%TF.GenerationSoftware,KiCad,Pcbnew,7.0.7*%
%TF.CreationDate,2024-03-23T11:57:09+09:00*%
%TF.ProjectId,RP2040_KBD,52503230-3430-45f4-9b42-442e6b696361,rev?*%
%TF.SameCoordinates,Original*%
%TF.FileFunction,Paste,Bot*%
%TF.FilePolarity,Positive*%
%FSLAX46Y46*%
G04 Gerber Fmt 4.6, Leading zero omitted, Abs format (unit mm)*
G04 Created by KiCad (PCBNEW 7.0.7) date 2024-03-23 11:57:09*
%MOMM*%
%LPD*%
G01*
G04 APERTURE LIST*
%ADD10R,2.550000X2.500000*%
G04 APERTURE END LIST*
D10*
%TO.C,SW3*%
X45800000Y-88600000D03*
X59650000Y-86060000D03*
%TD*%
%TO.C,SW14*%
X89320000Y-107650000D03*
X103170000Y-105110000D03*
%TD*%
%TO.C,SW6*%
X45800000Y-145750000D03*
X59650000Y-143210000D03*
%TD*%
%TO.C,SW8*%
X70270000Y-88600000D03*
X84120000Y-86060000D03*
%TD*%
%TO.C,SW17*%
X108370000Y-88600000D03*
X122220000Y-86060000D03*
%TD*%
%TO.C,SW13*%
X89320000Y-88600000D03*
X103170000Y-86060000D03*
%TD*%
%TO.C,SW15*%
X89320000Y-126700000D03*
X103170000Y-124160000D03*
%TD*%
%TO.C,SW22*%
X127420000Y-98125000D03*
X141270000Y-95585000D03*
%TD*%
%TO.C,SW11*%
X79795000Y-145750000D03*
X93645000Y-143210000D03*
%TD*%
%TO.C,SW12*%
X89320000Y-69550000D03*
X103170000Y-67010000D03*
%TD*%
%TO.C,SW4*%
X45800000Y-107650000D03*
X59650000Y-105110000D03*
%TD*%
%TO.C,SW5*%
X45800000Y-126700000D03*
X59650000Y-124160000D03*
%TD*%
%TO.C,SW19*%
X108370000Y-126700000D03*
X122220000Y-124160000D03*
%TD*%
%TO.C,SW18*%
X108370000Y-107650000D03*
X122220000Y-105110000D03*
%TD*%
%TO.C,SW9*%
X70270000Y-107650000D03*
X84120000Y-105110000D03*
%TD*%
%TO.C,SW10*%
X70270000Y-126700000D03*
X84120000Y-124160000D03*
%TD*%
%TO.C,SW20*%
X108370000Y-145750000D03*
X122220000Y-143210000D03*
%TD*%
%TO.C,SW2*%
X45800000Y-69550000D03*
X59650000Y-67010000D03*
%TD*%
%TO.C,SW24*%
X108370000Y-45780000D03*
X122220000Y-43240000D03*
%TD*%
%TO.C,SW7*%
X70270000Y-69550000D03*
X84120000Y-67010000D03*
%TD*%
%TO.C,SW23*%
X127420000Y-136225000D03*
X141270000Y-133685000D03*
%TD*%
%TO.C,SW21*%
X127420000Y-69550000D03*
X141270000Y-67010000D03*
%TD*%
%TO.C,SW25*%
X127420000Y-45780000D03*
X141270000Y-43240000D03*
%TD*%
%TO.C,SW16*%
X108370000Y-69550000D03*
X122220000Y-67010000D03*
%TD*%
M02*
