%TF.GenerationSoftware,KiCad,Pcbnew,7.0.7*%
%TF.CreationDate,2024-03-23T11:57:12+09:00*%
%TF.ProjectId,RP2040_KBD,52503230-3430-45f4-9b42-442e6b696361,rev?*%
%TF.SameCoordinates,Original*%
%TF.FileFunction,Drillmap*%
%TF.FilePolarity,Positive*%
%FSLAX45Y45*%
G04 Gerber Fmt 4.5, Leading zero omitted, Abs format (unit mm)*
G04 Created by KiCad (PCBNEW 7.0.7) date 2024-03-23 11:57:12*
%MOMM*%
%LPD*%
G01*
G04 APERTURE LIST*
%ADD10C,0.100000*%
%ADD11C,0.200000*%
%ADD12C,0.040000*%
%ADD13C,0.060000*%
%ADD14C,0.149860*%
G04 APERTURE END LIST*
D10*
X4542956Y-3500000D02*
G75*
G03*
X4542956Y-3500000I-102956J0D01*
G01*
X13500000Y-14420000D02*
G75*
G03*
X13500000Y-14420000I-102956J0D01*
G01*
X6802956Y-10257044D02*
G75*
G03*
X6802956Y-10257044I-102956J0D01*
G01*
X6802956Y-6450000D02*
G75*
G03*
X6802956Y-6450000I-102956J0D01*
G01*
X10900000Y-6640000D02*
G75*
G03*
X10900000Y-6640000I-102956J0D01*
G01*
X14262956Y-5290000D02*
G75*
G03*
X14262956Y-5290000I-102956J0D01*
G01*
X10900000Y-14257044D02*
G75*
G03*
X10900000Y-14257044I-102956J0D01*
G01*
X6802956Y-14067044D02*
G75*
G03*
X6802956Y-14067044I-102956J0D01*
G01*
X13500000Y-7880000D02*
G75*
G03*
X13500000Y-7880000I-102956J0D01*
G01*
X10900000Y-10447044D02*
G75*
G03*
X10900000Y-10447044I-102956J0D01*
G01*
X3830000Y-2670000D02*
X14480000Y-2670000D01*
X14480000Y-15210000D01*
X3830000Y-15210000D01*
X3830000Y-2670000D01*
X12862956Y-5290000D02*
G75*
G03*
X12862956Y-5290000I-102956J0D01*
G01*
X13500000Y-11687044D02*
G75*
G03*
X13500000Y-11687044I-102956J0D01*
G01*
D11*
D12*
X4172500Y-4682500D02*
X4212500Y-4722500D01*
X4212500Y-4682500D02*
X4172500Y-4722500D01*
X4200000Y-2740000D02*
X4240000Y-2780000D01*
X4240000Y-2740000D02*
X4200000Y-2780000D01*
X4200000Y-3000000D02*
X4240000Y-3040000D01*
X4240000Y-3000000D02*
X4200000Y-3040000D01*
X4200000Y-3260000D02*
X4240000Y-3300000D01*
X4240000Y-3260000D02*
X4200000Y-3300000D01*
X4200000Y-3590000D02*
X4240000Y-3630000D01*
X4240000Y-3590000D02*
X4200000Y-3630000D01*
X4200000Y-3700000D02*
X4240000Y-3740000D01*
X4240000Y-3700000D02*
X4200000Y-3740000D01*
X4200000Y-3820000D02*
X4240000Y-3860000D01*
X4240000Y-3820000D02*
X4200000Y-3860000D01*
X4200000Y-3930000D02*
X4240000Y-3970000D01*
X4240000Y-3930000D02*
X4200000Y-3970000D01*
X4200000Y-4040000D02*
X4240000Y-4080000D01*
X4240000Y-4040000D02*
X4200000Y-4080000D01*
X4200000Y-4150000D02*
X4240000Y-4190000D01*
X4240000Y-4150000D02*
X4200000Y-4190000D01*
X4200000Y-4270000D02*
X4240000Y-4310000D01*
X4240000Y-4270000D02*
X4200000Y-4310000D01*
X4200000Y-4380000D02*
X4240000Y-4420000D01*
X4240000Y-4380000D02*
X4200000Y-4420000D01*
X4200000Y-4500000D02*
X4240000Y-4540000D01*
X4240000Y-4500000D02*
X4200000Y-4540000D01*
X4220000Y-4840000D02*
X4260000Y-4880000D01*
X4260000Y-4840000D02*
X4220000Y-4880000D01*
X4220000Y-4950000D02*
X4260000Y-4990000D01*
X4260000Y-4950000D02*
X4220000Y-4990000D01*
X4220000Y-5060000D02*
X4260000Y-5100000D01*
X4260000Y-5060000D02*
X4220000Y-5100000D01*
X4220000Y-5170000D02*
X4260000Y-5210000D01*
X4260000Y-5170000D02*
X4220000Y-5210000D01*
X4220000Y-5280000D02*
X4260000Y-5320000D01*
X4260000Y-5280000D02*
X4220000Y-5320000D01*
X4220000Y-5390000D02*
X4260000Y-5430000D01*
X4260000Y-5390000D02*
X4220000Y-5430000D01*
X4310000Y-2740000D02*
X4350000Y-2780000D01*
X4350000Y-2740000D02*
X4310000Y-2780000D01*
X4310000Y-3000000D02*
X4350000Y-3040000D01*
X4350000Y-3000000D02*
X4310000Y-3040000D01*
X4310000Y-3260000D02*
X4350000Y-3300000D01*
X4350000Y-3260000D02*
X4310000Y-3300000D01*
X4310000Y-3700000D02*
X4350000Y-3740000D01*
X4350000Y-3700000D02*
X4310000Y-3740000D01*
X4310000Y-3820000D02*
X4350000Y-3860000D01*
X4350000Y-3820000D02*
X4310000Y-3860000D01*
X4310000Y-3930000D02*
X4350000Y-3970000D01*
X4350000Y-3930000D02*
X4310000Y-3970000D01*
X4310000Y-4040000D02*
X4350000Y-4080000D01*
X4350000Y-4040000D02*
X4310000Y-4080000D01*
X4310000Y-4150000D02*
X4350000Y-4190000D01*
X4350000Y-4150000D02*
X4310000Y-4190000D01*
X4310000Y-4270000D02*
X4350000Y-4310000D01*
X4350000Y-4270000D02*
X4310000Y-4310000D01*
X4310000Y-4380000D02*
X4350000Y-4420000D01*
X4350000Y-4380000D02*
X4310000Y-4420000D01*
X4310000Y-4500000D02*
X4350000Y-4540000D01*
X4350000Y-4500000D02*
X4310000Y-4540000D01*
X4330000Y-4840000D02*
X4370000Y-4880000D01*
X4370000Y-4840000D02*
X4330000Y-4880000D01*
X4330000Y-4950000D02*
X4370000Y-4990000D01*
X4370000Y-4950000D02*
X4330000Y-4990000D01*
X4330000Y-5060000D02*
X4370000Y-5100000D01*
X4370000Y-5060000D02*
X4330000Y-5100000D01*
X4330000Y-5170000D02*
X4370000Y-5210000D01*
X4370000Y-5170000D02*
X4330000Y-5210000D01*
X4330000Y-5280000D02*
X4370000Y-5320000D01*
X4370000Y-5280000D02*
X4330000Y-5320000D01*
X4330000Y-5390000D02*
X4370000Y-5430000D01*
X4370000Y-5390000D02*
X4330000Y-5430000D01*
X4420000Y-2740000D02*
X4460000Y-2780000D01*
X4460000Y-2740000D02*
X4420000Y-2780000D01*
X4420000Y-3000000D02*
X4460000Y-3040000D01*
X4460000Y-3000000D02*
X4420000Y-3040000D01*
X4420000Y-3260000D02*
X4460000Y-3300000D01*
X4460000Y-3260000D02*
X4420000Y-3300000D01*
X4420000Y-3700000D02*
X4460000Y-3740000D01*
X4460000Y-3700000D02*
X4420000Y-3740000D01*
X4420000Y-3820000D02*
X4460000Y-3860000D01*
X4460000Y-3820000D02*
X4420000Y-3860000D01*
X4420000Y-3930000D02*
X4460000Y-3970000D01*
X4460000Y-3930000D02*
X4420000Y-3970000D01*
X4420000Y-4040000D02*
X4460000Y-4080000D01*
X4460000Y-4040000D02*
X4420000Y-4080000D01*
X4420000Y-4150000D02*
X4460000Y-4190000D01*
X4460000Y-4150000D02*
X4420000Y-4190000D01*
X4420000Y-4270000D02*
X4460000Y-4310000D01*
X4460000Y-4270000D02*
X4420000Y-4310000D01*
X4420000Y-4380000D02*
X4460000Y-4420000D01*
X4460000Y-4380000D02*
X4420000Y-4420000D01*
X4420000Y-4500000D02*
X4460000Y-4540000D01*
X4460000Y-4500000D02*
X4420000Y-4540000D01*
X4440000Y-5060000D02*
X4480000Y-5100000D01*
X4480000Y-5060000D02*
X4440000Y-5100000D01*
X4440000Y-5170000D02*
X4480000Y-5210000D01*
X4480000Y-5170000D02*
X4440000Y-5210000D01*
X4440000Y-5280000D02*
X4480000Y-5320000D01*
X4480000Y-5280000D02*
X4440000Y-5320000D01*
X4530000Y-2740000D02*
X4570000Y-2780000D01*
X4570000Y-2740000D02*
X4530000Y-2780000D01*
X4530000Y-3000000D02*
X4570000Y-3040000D01*
X4570000Y-3000000D02*
X4530000Y-3040000D01*
X4530000Y-3260000D02*
X4570000Y-3300000D01*
X4570000Y-3260000D02*
X4530000Y-3300000D01*
X4530000Y-3700000D02*
X4570000Y-3740000D01*
X4570000Y-3700000D02*
X4530000Y-3740000D01*
X4530000Y-3820000D02*
X4570000Y-3860000D01*
X4570000Y-3820000D02*
X4530000Y-3860000D01*
X4530000Y-3930000D02*
X4570000Y-3970000D01*
X4570000Y-3930000D02*
X4530000Y-3970000D01*
X4530000Y-4040000D02*
X4570000Y-4080000D01*
X4570000Y-4040000D02*
X4530000Y-4080000D01*
X4530000Y-4150000D02*
X4570000Y-4190000D01*
X4570000Y-4150000D02*
X4530000Y-4190000D01*
X4530000Y-4270000D02*
X4570000Y-4310000D01*
X4570000Y-4270000D02*
X4530000Y-4310000D01*
X4530000Y-4380000D02*
X4570000Y-4420000D01*
X4570000Y-4380000D02*
X4530000Y-4420000D01*
X4530000Y-4500000D02*
X4570000Y-4540000D01*
X4570000Y-4500000D02*
X4530000Y-4540000D01*
X4550000Y-5060000D02*
X4590000Y-5100000D01*
X4590000Y-5060000D02*
X4550000Y-5100000D01*
X4550000Y-5170000D02*
X4590000Y-5210000D01*
X4590000Y-5170000D02*
X4550000Y-5210000D01*
X4660000Y-4270000D02*
X4700000Y-4310000D01*
X4700000Y-4270000D02*
X4660000Y-4310000D01*
X4660000Y-4380000D02*
X4700000Y-4420000D01*
X4700000Y-4380000D02*
X4660000Y-4420000D01*
X4670000Y-5060000D02*
X4710000Y-5100000D01*
X4710000Y-5060000D02*
X4670000Y-5100000D01*
X4750000Y-4800000D02*
X4790000Y-4840000D01*
X4790000Y-4800000D02*
X4750000Y-4840000D01*
X4760000Y-5719000D02*
X4800000Y-5759000D01*
X4800000Y-5719000D02*
X4760000Y-5759000D01*
X4760000Y-7624000D02*
X4800000Y-7664000D01*
X4800000Y-7624000D02*
X4760000Y-7664000D01*
X4760000Y-9529000D02*
X4800000Y-9569000D01*
X4800000Y-9529000D02*
X4760000Y-9569000D01*
X4760000Y-11434000D02*
X4800000Y-11474000D01*
X4800000Y-11434000D02*
X4760000Y-11474000D01*
X4760000Y-13339000D02*
X4800000Y-13379000D01*
X4800000Y-13339000D02*
X4760000Y-13379000D01*
X4770000Y-4270000D02*
X4810000Y-4310000D01*
X4810000Y-4270000D02*
X4770000Y-4310000D01*
X4770000Y-4380000D02*
X4810000Y-4420000D01*
X4810000Y-4380000D02*
X4770000Y-4420000D01*
X4790000Y-5060000D02*
X4830000Y-5100000D01*
X4830000Y-5060000D02*
X4790000Y-5100000D01*
X4800000Y-3260000D02*
X4840000Y-3300000D01*
X4840000Y-3260000D02*
X4800000Y-3300000D01*
X4800000Y-3380000D02*
X4840000Y-3420000D01*
X4840000Y-3380000D02*
X4800000Y-3420000D01*
X4890000Y-4270000D02*
X4930000Y-4310000D01*
X4930000Y-4270000D02*
X4890000Y-4310000D01*
X4890000Y-4380000D02*
X4930000Y-4420000D01*
X4930000Y-4380000D02*
X4890000Y-4420000D01*
X4910000Y-5060000D02*
X4950000Y-5100000D01*
X4950000Y-5060000D02*
X4910000Y-5100000D01*
X4920000Y-3260000D02*
X4960000Y-3300000D01*
X4960000Y-3260000D02*
X4920000Y-3300000D01*
X5000000Y-4270000D02*
X5040000Y-4310000D01*
X5040000Y-4270000D02*
X5000000Y-4310000D01*
X5000000Y-4380000D02*
X5040000Y-4420000D01*
X5040000Y-4380000D02*
X5000000Y-4420000D01*
X5030000Y-5060000D02*
X5070000Y-5100000D01*
X5070000Y-5060000D02*
X5030000Y-5100000D01*
X5090000Y-3200000D02*
X5130000Y-3240000D01*
X5130000Y-3200000D02*
X5090000Y-3240000D01*
X5150000Y-5060000D02*
X5190000Y-5100000D01*
X5190000Y-5060000D02*
X5150000Y-5100000D01*
X5160000Y-3820000D02*
X5200000Y-3860000D01*
X5200000Y-3820000D02*
X5160000Y-3860000D01*
X5160000Y-3940000D02*
X5200000Y-3980000D01*
X5200000Y-3940000D02*
X5160000Y-3980000D01*
X5170017Y-4526818D02*
X5210017Y-4566818D01*
X5210017Y-4526818D02*
X5170017Y-4566818D01*
X5210000Y-3200000D02*
X5250000Y-3240000D01*
X5250000Y-3200000D02*
X5210000Y-3240000D01*
X5270000Y-3820000D02*
X5310000Y-3860000D01*
X5310000Y-3820000D02*
X5270000Y-3860000D01*
X5270000Y-3940000D02*
X5310000Y-3980000D01*
X5310000Y-3940000D02*
X5270000Y-3980000D01*
X5551025Y-4526828D02*
X5591025Y-4566828D01*
X5591025Y-4526828D02*
X5551025Y-4566828D01*
X5580000Y-3820000D02*
X5620000Y-3860000D01*
X5620000Y-3820000D02*
X5580000Y-3860000D01*
X5580000Y-3950000D02*
X5620000Y-3990000D01*
X5620000Y-3950000D02*
X5580000Y-3990000D01*
X5690000Y-3820000D02*
X5730000Y-3860000D01*
X5730000Y-3820000D02*
X5690000Y-3860000D01*
X5690000Y-3950000D02*
X5730000Y-3990000D01*
X5730000Y-3950000D02*
X5690000Y-3990000D01*
X5720000Y-4870000D02*
X5760000Y-4910000D01*
X5760000Y-4870000D02*
X5720000Y-4910000D01*
X5790000Y-4460000D02*
X5830000Y-4500000D01*
X5830000Y-4460000D02*
X5790000Y-4500000D01*
X5790000Y-5360000D02*
X5830000Y-5400000D01*
X5830000Y-5360000D02*
X5790000Y-5400000D01*
X5790000Y-5470000D02*
X5830000Y-5510000D01*
X5830000Y-5470000D02*
X5790000Y-5510000D01*
X5840000Y-4070000D02*
X5880000Y-4110000D01*
X5880000Y-4070000D02*
X5840000Y-4110000D01*
X5900000Y-4340000D02*
X5940000Y-4380000D01*
X5940000Y-4340000D02*
X5900000Y-4380000D01*
X5900000Y-4460000D02*
X5940000Y-4500000D01*
X5940000Y-4460000D02*
X5900000Y-4500000D01*
X5900000Y-5360000D02*
X5940000Y-5400000D01*
X5940000Y-5360000D02*
X5900000Y-5400000D01*
X5900000Y-5470000D02*
X5940000Y-5510000D01*
X5940000Y-5470000D02*
X5900000Y-5510000D01*
X6040000Y-3670000D02*
X6080000Y-3710000D01*
X6080000Y-3670000D02*
X6040000Y-3710000D01*
X6040000Y-3780000D02*
X6080000Y-3820000D01*
X6080000Y-3780000D02*
X6040000Y-3820000D01*
X6040000Y-4270000D02*
X6080000Y-4310000D01*
X6080000Y-4270000D02*
X6040000Y-4310000D01*
X6052002Y-3520050D02*
X6092002Y-3560050D01*
X6092002Y-3520050D02*
X6052002Y-3560050D01*
X6160000Y-3870000D02*
X6200000Y-3910000D01*
X6200000Y-3870000D02*
X6160000Y-3910000D01*
X6170000Y-13005000D02*
X6210000Y-13045000D01*
X6210000Y-13005000D02*
X6170000Y-13045000D01*
X6194782Y-11100000D02*
X6234782Y-11140000D01*
X6234782Y-11100000D02*
X6194782Y-11140000D01*
X6200004Y-5440000D02*
X6240004Y-5480000D01*
X6240004Y-5440000D02*
X6200004Y-5480000D01*
X6210000Y-7290000D02*
X6250000Y-7330000D01*
X6250000Y-7290000D02*
X6210000Y-7330000D01*
X6210000Y-11580000D02*
X6250000Y-11620000D01*
X6250000Y-11580000D02*
X6210000Y-11620000D01*
X6215000Y-9195000D02*
X6255000Y-9235000D01*
X6255000Y-9195000D02*
X6215000Y-9235000D01*
X6230000Y-13480000D02*
X6270000Y-13520000D01*
X6270000Y-13480000D02*
X6230000Y-13520000D01*
X6240000Y-7750000D02*
X6280000Y-7790000D01*
X6280000Y-7750000D02*
X6240000Y-7790000D01*
X6240000Y-9680000D02*
X6280000Y-9720000D01*
X6280000Y-9680000D02*
X6240000Y-9720000D01*
X6260000Y-3300000D02*
X6300000Y-3340000D01*
X6300000Y-3300000D02*
X6260000Y-3340000D01*
X6285000Y-5845000D02*
X6325000Y-5885000D01*
X6325000Y-5845000D02*
X6285000Y-5885000D01*
X6330000Y-3630000D02*
X6370000Y-3670000D01*
X6370000Y-3630000D02*
X6330000Y-3670000D01*
X6330000Y-3760000D02*
X6370000Y-3800000D01*
X6370000Y-3760000D02*
X6330000Y-3800000D01*
X6330000Y-3890000D02*
X6370000Y-3930000D01*
X6370000Y-3890000D02*
X6330000Y-3930000D01*
X6350000Y-4480000D02*
X6390000Y-4520000D01*
X6390000Y-4480000D02*
X6350000Y-4520000D01*
X6350000Y-4590000D02*
X6390000Y-4630000D01*
X6390000Y-4590000D02*
X6350000Y-4630000D01*
X6350000Y-4700000D02*
X6390000Y-4740000D01*
X6390000Y-4700000D02*
X6350000Y-4740000D01*
X6350000Y-4810000D02*
X6390000Y-4850000D01*
X6390000Y-4810000D02*
X6350000Y-4850000D01*
X6350000Y-4930000D02*
X6390000Y-4970000D01*
X6390000Y-4930000D02*
X6350000Y-4970000D01*
X6450000Y-3630000D02*
X6490000Y-3670000D01*
X6490000Y-3630000D02*
X6450000Y-3670000D01*
X6450000Y-3760000D02*
X6490000Y-3800000D01*
X6490000Y-3760000D02*
X6450000Y-3800000D01*
X6450000Y-3890000D02*
X6490000Y-3930000D01*
X6490000Y-3890000D02*
X6450000Y-3930000D01*
X6460000Y-4480000D02*
X6500000Y-4520000D01*
X6500000Y-4480000D02*
X6460000Y-4520000D01*
X6460000Y-4590000D02*
X6500000Y-4630000D01*
X6500000Y-4590000D02*
X6460000Y-4630000D01*
X6460000Y-4700000D02*
X6500000Y-4740000D01*
X6500000Y-4700000D02*
X6460000Y-4740000D01*
X6460000Y-4810000D02*
X6500000Y-4850000D01*
X6500000Y-4810000D02*
X6460000Y-4850000D01*
X6460000Y-4930000D02*
X6500000Y-4970000D01*
X6500000Y-4930000D02*
X6460000Y-4970000D01*
X6570000Y-3630000D02*
X6610000Y-3670000D01*
X6610000Y-3630000D02*
X6570000Y-3670000D01*
X6570000Y-3760000D02*
X6610000Y-3800000D01*
X6610000Y-3760000D02*
X6570000Y-3800000D01*
X6570000Y-3890000D02*
X6610000Y-3930000D01*
X6610000Y-3890000D02*
X6570000Y-3930000D01*
X6690000Y-3630000D02*
X6730000Y-3670000D01*
X6730000Y-3630000D02*
X6690000Y-3670000D01*
X6690000Y-3760000D02*
X6730000Y-3800000D01*
X6730000Y-3760000D02*
X6690000Y-3800000D01*
X6690000Y-3890000D02*
X6730000Y-3930000D01*
X6730000Y-3890000D02*
X6690000Y-3930000D01*
X6770000Y-4440000D02*
X6810000Y-4480000D01*
X6810000Y-4440000D02*
X6770000Y-4480000D01*
X6770000Y-4560000D02*
X6810000Y-4600000D01*
X6810000Y-4560000D02*
X6770000Y-4600000D01*
X6770000Y-4650050D02*
X6810000Y-4690050D01*
X6810000Y-4650050D02*
X6770000Y-4690050D01*
X6770000Y-4740000D02*
X6810000Y-4780000D01*
X6810000Y-4740000D02*
X6770000Y-4780000D01*
X6770000Y-4830000D02*
X6810000Y-4870000D01*
X6810000Y-4830000D02*
X6770000Y-4870000D01*
X6770000Y-4919950D02*
X6810000Y-4959950D01*
X6810000Y-4919950D02*
X6770000Y-4959950D01*
X6880000Y-3700050D02*
X6920000Y-3740050D01*
X6920000Y-3700050D02*
X6880000Y-3740050D01*
X6900000Y-5340000D02*
X6940000Y-5380000D01*
X6940000Y-5340000D02*
X6900000Y-5380000D01*
X6910000Y-3070000D02*
X6950000Y-3110000D01*
X6950000Y-3070000D02*
X6910000Y-3110000D01*
X6970000Y-4970000D02*
X7010000Y-5010000D01*
X7010000Y-4970000D02*
X6970000Y-5010000D01*
X6979695Y-4273579D02*
X7019695Y-4313579D01*
X7019695Y-4273579D02*
X6979695Y-4313579D01*
X7000000Y-5340000D02*
X7040000Y-5380000D01*
X7040000Y-5340000D02*
X7000000Y-5380000D01*
X7030000Y-3880000D02*
X7070000Y-3920000D01*
X7070000Y-3880000D02*
X7030000Y-3920000D01*
X7080000Y-4750000D02*
X7120000Y-4790000D01*
X7120000Y-4750000D02*
X7080000Y-4790000D01*
X7080000Y-4860000D02*
X7120000Y-4900000D01*
X7120000Y-4860000D02*
X7080000Y-4900000D01*
X7080000Y-4970000D02*
X7120000Y-5010000D01*
X7120000Y-4970000D02*
X7080000Y-5010000D01*
X7100000Y-3100000D02*
X7140000Y-3140000D01*
X7140000Y-3100000D02*
X7100000Y-3140000D01*
X7100000Y-3210000D02*
X7140000Y-3250000D01*
X7140000Y-3210000D02*
X7100000Y-3250000D01*
X7100000Y-5340000D02*
X7140000Y-5380000D01*
X7140000Y-5340000D02*
X7100000Y-5380000D01*
X7190000Y-4750000D02*
X7230000Y-4790000D01*
X7230000Y-4750000D02*
X7190000Y-4790000D01*
X7190000Y-4860000D02*
X7230000Y-4900000D01*
X7230000Y-4860000D02*
X7190000Y-4900000D01*
X7190000Y-4970000D02*
X7230000Y-5010000D01*
X7230000Y-4970000D02*
X7190000Y-5010000D01*
X7203275Y-4050000D02*
X7243275Y-4090000D01*
X7243275Y-4050000D02*
X7203275Y-4090000D01*
X7210000Y-4577426D02*
X7250000Y-4617426D01*
X7250000Y-4577426D02*
X7210000Y-4617426D01*
X7240000Y-4400000D02*
X7280000Y-4440000D01*
X7280000Y-4400000D02*
X7240000Y-4440000D01*
X7370000Y-2810000D02*
X7410000Y-2850000D01*
X7410000Y-2810000D02*
X7370000Y-2850000D01*
X7370000Y-2930000D02*
X7410000Y-2970000D01*
X7410000Y-2930000D02*
X7370000Y-2970000D01*
X7370000Y-4850000D02*
X7410000Y-4890000D01*
X7410000Y-4850000D02*
X7370000Y-4890000D01*
X7370050Y-4760000D02*
X7410050Y-4800000D01*
X7410050Y-4760000D02*
X7370050Y-4800000D01*
X7490156Y-3649843D02*
X7530156Y-3689843D01*
X7530156Y-3649843D02*
X7490156Y-3689843D01*
X7520000Y-4600000D02*
X7560000Y-4640000D01*
X7560000Y-4600000D02*
X7520000Y-4640000D01*
X7540000Y-4750000D02*
X7580000Y-4790000D01*
X7580000Y-4750000D02*
X7540000Y-4790000D01*
X7616440Y-4619950D02*
X7656440Y-4659950D01*
X7656440Y-4619950D02*
X7616440Y-4659950D01*
X7700000Y-4380050D02*
X7740000Y-4420050D01*
X7740000Y-4380050D02*
X7700000Y-4420050D01*
X7710000Y-2850000D02*
X7750000Y-2890000D01*
X7750000Y-2850000D02*
X7710000Y-2890000D01*
X7710000Y-2960000D02*
X7750000Y-3000000D01*
X7750000Y-2960000D02*
X7710000Y-3000000D01*
X7715000Y-3720050D02*
X7755000Y-3760050D01*
X7755000Y-3720050D02*
X7715000Y-3760050D01*
X7740000Y-3470000D02*
X7780000Y-3510000D01*
X7780000Y-3470000D02*
X7740000Y-3510000D01*
X7775025Y-3989950D02*
X7815025Y-4029950D01*
X7815025Y-3989950D02*
X7775025Y-4029950D01*
X7820000Y-2850000D02*
X7860000Y-2890000D01*
X7860000Y-2850000D02*
X7820000Y-2890000D01*
X7820000Y-2960000D02*
X7860000Y-3000000D01*
X7860000Y-2960000D02*
X7820000Y-3000000D01*
X7820000Y-3070000D02*
X7860000Y-3110000D01*
X7860000Y-3070000D02*
X7820000Y-3110000D01*
X7913735Y-4398063D02*
X7953735Y-4438063D01*
X7953735Y-4398063D02*
X7913735Y-4438063D01*
X7920000Y-4575000D02*
X7960000Y-4615000D01*
X7960000Y-4575000D02*
X7920000Y-4615000D01*
X7930000Y-2850000D02*
X7970000Y-2890000D01*
X7970000Y-2850000D02*
X7930000Y-2890000D01*
X7930000Y-2960000D02*
X7970000Y-3000000D01*
X7970000Y-2960000D02*
X7930000Y-3000000D01*
X7930000Y-3070000D02*
X7970000Y-3110000D01*
X7970000Y-3070000D02*
X7930000Y-3110000D01*
X7930000Y-4098190D02*
X7970000Y-4138190D01*
X7970000Y-4098190D02*
X7930000Y-4138190D01*
X8020000Y-4575000D02*
X8060000Y-4615000D01*
X8060000Y-4575000D02*
X8020000Y-4615000D01*
X8030000Y-4098190D02*
X8070000Y-4138190D01*
X8070000Y-4098190D02*
X8030000Y-4138190D01*
X8030000Y-4440000D02*
X8070000Y-4480000D01*
X8070000Y-4440000D02*
X8030000Y-4480000D01*
X8040000Y-2850000D02*
X8080000Y-2890000D01*
X8080000Y-2850000D02*
X8040000Y-2890000D01*
X8040000Y-2960000D02*
X8080000Y-3000000D01*
X8080000Y-2960000D02*
X8040000Y-3000000D01*
X8040000Y-3070000D02*
X8080000Y-3110000D01*
X8080000Y-3070000D02*
X8040000Y-3110000D01*
X8059950Y-5048033D02*
X8099950Y-5088033D01*
X8099950Y-5048033D02*
X8059950Y-5088033D01*
X8120000Y-4575000D02*
X8160000Y-4615000D01*
X8160000Y-4575000D02*
X8120000Y-4615000D01*
X8133844Y-3906786D02*
X8173844Y-3946786D01*
X8173844Y-3906786D02*
X8133844Y-3946786D01*
X8150000Y-2850000D02*
X8190000Y-2890000D01*
X8190000Y-2850000D02*
X8150000Y-2890000D01*
X8150000Y-2960000D02*
X8190000Y-3000000D01*
X8190000Y-2960000D02*
X8150000Y-3000000D01*
X8155010Y-4124940D02*
X8195010Y-4164940D01*
X8195010Y-4124940D02*
X8155010Y-4164940D01*
X8220013Y-3422057D02*
X8260013Y-3462057D01*
X8260013Y-3422057D02*
X8220013Y-3462057D01*
X8240000Y-4240000D02*
X8280000Y-4280000D01*
X8280000Y-4240000D02*
X8240000Y-4280000D01*
X8260000Y-2850000D02*
X8300000Y-2890000D01*
X8300000Y-2850000D02*
X8260000Y-2890000D01*
X8260000Y-2960000D02*
X8300000Y-3000000D01*
X8300000Y-2960000D02*
X8260000Y-3000000D01*
X8280000Y-3800000D02*
X8320000Y-3840000D01*
X8320000Y-3800000D02*
X8280000Y-3840000D01*
X8305013Y-3474987D02*
X8345013Y-3514987D01*
X8345013Y-3474987D02*
X8305013Y-3514987D01*
X8349950Y-4265432D02*
X8389950Y-4305432D01*
X8389950Y-4265432D02*
X8349950Y-4305432D01*
X8349950Y-4355382D02*
X8389950Y-4395382D01*
X8389950Y-4355382D02*
X8349950Y-4395382D01*
X8377450Y-3700000D02*
X8417450Y-3740000D01*
X8417450Y-3700000D02*
X8377450Y-3740000D01*
X8379950Y-4560088D02*
X8419950Y-4600088D01*
X8419950Y-4560088D02*
X8379950Y-4600088D01*
X8380000Y-4440138D02*
X8420000Y-4480138D01*
X8420000Y-4440138D02*
X8380000Y-4480138D01*
X8427019Y-4874277D02*
X8467019Y-4914277D01*
X8467019Y-4874277D02*
X8427019Y-4914277D01*
X8430592Y-4964156D02*
X8470592Y-5004156D01*
X8470592Y-4964156D02*
X8430592Y-5004156D01*
X8452400Y-3774950D02*
X8492400Y-3814950D01*
X8492400Y-3774950D02*
X8452400Y-3814950D01*
X8459950Y-4660000D02*
X8499950Y-4700000D01*
X8499950Y-4660000D02*
X8459950Y-4700000D01*
X8570000Y-3900000D02*
X8610000Y-3940000D01*
X8610000Y-3900000D02*
X8570000Y-3940000D01*
X8571286Y-4430288D02*
X8611286Y-4470288D01*
X8611286Y-4430288D02*
X8571286Y-4470288D01*
X8577450Y-4520000D02*
X8617450Y-4560000D01*
X8617450Y-4520000D02*
X8577450Y-4560000D01*
X8580000Y-3633830D02*
X8620000Y-3673830D01*
X8620000Y-3633830D02*
X8580000Y-3673830D01*
X8590000Y-4650000D02*
X8630000Y-4690000D01*
X8630000Y-4650000D02*
X8590000Y-4690000D01*
X8600000Y-2820000D02*
X8640000Y-2860000D01*
X8640000Y-2820000D02*
X8600000Y-2860000D01*
X8600000Y-2930000D02*
X8640000Y-2970000D01*
X8640000Y-2930000D02*
X8600000Y-2970000D01*
X8620000Y-4210000D02*
X8660000Y-4250000D01*
X8660000Y-4210000D02*
X8620000Y-4250000D01*
X8620000Y-5280000D02*
X8660000Y-5320000D01*
X8660000Y-5280000D02*
X8620000Y-5320000D01*
X8630000Y-9190000D02*
X8670000Y-9230000D01*
X8670000Y-9190000D02*
X8630000Y-9230000D01*
X8630000Y-11100000D02*
X8670000Y-11140000D01*
X8670000Y-11100000D02*
X8630000Y-11140000D01*
X8640000Y-7290000D02*
X8680000Y-7330000D01*
X8680000Y-7290000D02*
X8640000Y-7330000D01*
X8640000Y-11590000D02*
X8680000Y-11630000D01*
X8680000Y-11590000D02*
X8640000Y-11630000D01*
X8644000Y-13004000D02*
X8684000Y-13044000D01*
X8684000Y-13004000D02*
X8644000Y-13044000D01*
X8653520Y-3708738D02*
X8693520Y-3748738D01*
X8693520Y-3708738D02*
X8653520Y-3748738D01*
X8680000Y-7750000D02*
X8720000Y-7790000D01*
X8720000Y-7750000D02*
X8680000Y-7790000D01*
X8680000Y-9670000D02*
X8720000Y-9710000D01*
X8720000Y-9670000D02*
X8680000Y-9710000D01*
X8690000Y-5010050D02*
X8730000Y-5050050D01*
X8730000Y-5010050D02*
X8690000Y-5050050D01*
X8690000Y-5100000D02*
X8730000Y-5140000D01*
X8730000Y-5100000D02*
X8690000Y-5140000D01*
X8690000Y-5860000D02*
X8730000Y-5900000D01*
X8730000Y-5860000D02*
X8690000Y-5900000D01*
X8720000Y-4840000D02*
X8760000Y-4880000D01*
X8760000Y-4840000D02*
X8720000Y-4880000D01*
X8730000Y-5280000D02*
X8770000Y-5320000D01*
X8770000Y-5280000D02*
X8730000Y-5320000D01*
X8730030Y-3974959D02*
X8770030Y-4014959D01*
X8770030Y-3974959D02*
X8730030Y-4014959D01*
X8800000Y-2820000D02*
X8840000Y-2860000D01*
X8840000Y-2820000D02*
X8800000Y-2860000D01*
X8800000Y-2930000D02*
X8840000Y-2970000D01*
X8840000Y-2930000D02*
X8800000Y-2970000D01*
X8800000Y-3050000D02*
X8840000Y-3090000D01*
X8840000Y-3050000D02*
X8800000Y-3090000D01*
X8810000Y-4740000D02*
X8850000Y-4780000D01*
X8850000Y-4740000D02*
X8810000Y-4780000D01*
X8835000Y-4210000D02*
X8875000Y-4250000D01*
X8875000Y-4210000D02*
X8835000Y-4250000D01*
X8840000Y-5280000D02*
X8880000Y-5320000D01*
X8880000Y-5280000D02*
X8840000Y-5320000D01*
X8870000Y-3460000D02*
X8910000Y-3500000D01*
X8910000Y-3460000D02*
X8870000Y-3500000D01*
X8910000Y-2820000D02*
X8950000Y-2860000D01*
X8950000Y-2820000D02*
X8910000Y-2860000D01*
X8910000Y-2930000D02*
X8950000Y-2970000D01*
X8950000Y-2930000D02*
X8910000Y-2970000D01*
X8950000Y-5280000D02*
X8990000Y-5320000D01*
X8990000Y-5280000D02*
X8950000Y-5320000D01*
X8960000Y-3790000D02*
X9000000Y-3830000D01*
X9000000Y-3790000D02*
X8960000Y-3830000D01*
X8990000Y-3330000D02*
X9030000Y-3370000D01*
X9030000Y-3330000D02*
X8990000Y-3370000D01*
X8990000Y-3460000D02*
X9030000Y-3500000D01*
X9030000Y-3460000D02*
X8990000Y-3500000D01*
X8990000Y-3460000D02*
X9030000Y-3500000D01*
X9030000Y-3460000D02*
X8990000Y-3500000D01*
X9020000Y-2820000D02*
X9060000Y-2860000D01*
X9060000Y-2820000D02*
X9020000Y-2860000D01*
X9020000Y-2930000D02*
X9060000Y-2970000D01*
X9060000Y-2930000D02*
X9020000Y-2970000D01*
X9040000Y-3100000D02*
X9080000Y-3140000D01*
X9080000Y-3100000D02*
X9040000Y-3140000D01*
X9060000Y-5280000D02*
X9100000Y-5320000D01*
X9100000Y-5280000D02*
X9060000Y-5320000D01*
X9090000Y-4830000D02*
X9130000Y-4870000D01*
X9130000Y-4830000D02*
X9090000Y-4870000D01*
X9110000Y-3460000D02*
X9150000Y-3500000D01*
X9150000Y-3460000D02*
X9110000Y-3500000D01*
X9120000Y-4080000D02*
X9160000Y-4120000D01*
X9160000Y-4080000D02*
X9120000Y-4120000D01*
X9130000Y-2820000D02*
X9170000Y-2860000D01*
X9170000Y-2820000D02*
X9130000Y-2860000D01*
X9130000Y-2930000D02*
X9170000Y-2970000D01*
X9170000Y-2930000D02*
X9130000Y-2970000D01*
X9130000Y-3890000D02*
X9170000Y-3930000D01*
X9170000Y-3890000D02*
X9130000Y-3930000D01*
X9170000Y-5280000D02*
X9210000Y-5320000D01*
X9210000Y-5280000D02*
X9170000Y-5320000D01*
X9200000Y-4390000D02*
X9240000Y-4430000D01*
X9240000Y-4390000D02*
X9200000Y-4430000D01*
X9200000Y-4500000D02*
X9240000Y-4540000D01*
X9240000Y-4500000D02*
X9200000Y-4540000D01*
X9200000Y-4610000D02*
X9240000Y-4650000D01*
X9240000Y-4610000D02*
X9200000Y-4650000D01*
X9200000Y-4720000D02*
X9240000Y-4760000D01*
X9240000Y-4720000D02*
X9200000Y-4760000D01*
X9200000Y-4830000D02*
X9240000Y-4870000D01*
X9240000Y-4830000D02*
X9200000Y-4870000D01*
X9230000Y-3460000D02*
X9270000Y-3500000D01*
X9270000Y-3460000D02*
X9230000Y-3500000D01*
X9270000Y-3890000D02*
X9310000Y-3930000D01*
X9310000Y-3890000D02*
X9270000Y-3930000D01*
X9270000Y-4000000D02*
X9310000Y-4040000D01*
X9310000Y-4000000D02*
X9270000Y-4040000D01*
X9280000Y-4140000D02*
X9320000Y-4180000D01*
X9320000Y-4140000D02*
X9280000Y-4180000D01*
X9280000Y-5280000D02*
X9320000Y-5320000D01*
X9320000Y-5280000D02*
X9280000Y-5320000D01*
X9310000Y-4390000D02*
X9350000Y-4430000D01*
X9350000Y-4390000D02*
X9310000Y-4430000D01*
X9310000Y-4500000D02*
X9350000Y-4540000D01*
X9350000Y-4500000D02*
X9310000Y-4540000D01*
X9310000Y-4610000D02*
X9350000Y-4650000D01*
X9350000Y-4610000D02*
X9310000Y-4650000D01*
X9310000Y-4720000D02*
X9350000Y-4760000D01*
X9350000Y-4720000D02*
X9310000Y-4760000D01*
X9310000Y-4830000D02*
X9350000Y-4870000D01*
X9350000Y-4830000D02*
X9310000Y-4870000D01*
X9350000Y-3460000D02*
X9390000Y-3500000D01*
X9390000Y-3460000D02*
X9350000Y-3500000D01*
X9390000Y-5280000D02*
X9430000Y-5320000D01*
X9430000Y-5280000D02*
X9390000Y-5320000D01*
X9400000Y-3890000D02*
X9440000Y-3930000D01*
X9440000Y-3890000D02*
X9400000Y-3930000D01*
X9400000Y-4000000D02*
X9440000Y-4040000D01*
X9440000Y-4000000D02*
X9400000Y-4040000D01*
X9420000Y-4500000D02*
X9460000Y-4540000D01*
X9460000Y-4500000D02*
X9420000Y-4540000D01*
X9450000Y-2730000D02*
X9490000Y-2770000D01*
X9490000Y-2730000D02*
X9450000Y-2770000D01*
X9500000Y-5280000D02*
X9540000Y-5320000D01*
X9540000Y-5280000D02*
X9500000Y-5320000D01*
X9550000Y-2730000D02*
X9590000Y-2770000D01*
X9590000Y-2730000D02*
X9550000Y-2770000D01*
X9570000Y-13550000D02*
X9610000Y-13590000D01*
X9610000Y-13550000D02*
X9570000Y-13590000D01*
X9610000Y-5280000D02*
X9650000Y-5320000D01*
X9650000Y-5280000D02*
X9610000Y-5320000D01*
X9650000Y-2730000D02*
X9690000Y-2770000D01*
X9690000Y-2730000D02*
X9650000Y-2770000D01*
X9675050Y-3510000D02*
X9715050Y-3550000D01*
X9715050Y-3510000D02*
X9675050Y-3550000D01*
X9720000Y-5280000D02*
X9760000Y-5320000D01*
X9760000Y-5280000D02*
X9720000Y-5320000D01*
X9730000Y-3650000D02*
X9770000Y-3690000D01*
X9770000Y-3650000D02*
X9730000Y-3690000D01*
X9730000Y-3770000D02*
X9770000Y-3810000D01*
X9770000Y-3770000D02*
X9730000Y-3810000D01*
X9730000Y-3900000D02*
X9770000Y-3940000D01*
X9770000Y-3900000D02*
X9730000Y-3940000D01*
X9730000Y-4030000D02*
X9770000Y-4070000D01*
X9770000Y-4030000D02*
X9730000Y-4070000D01*
X9750000Y-2730000D02*
X9790000Y-2770000D01*
X9790000Y-2730000D02*
X9750000Y-2770000D01*
X9830000Y-5280000D02*
X9870000Y-5320000D01*
X9870000Y-5280000D02*
X9830000Y-5320000D01*
X9850000Y-2730000D02*
X9890000Y-2770000D01*
X9890000Y-2730000D02*
X9850000Y-2770000D01*
X9890000Y-3010000D02*
X9930000Y-3050000D01*
X9930000Y-3010000D02*
X9890000Y-3050000D01*
X9910000Y-4320000D02*
X9950000Y-4360000D01*
X9950000Y-4320000D02*
X9910000Y-4360000D01*
X9910000Y-4610000D02*
X9950000Y-4650000D01*
X9950000Y-4610000D02*
X9910000Y-4650000D01*
X9910000Y-4720000D02*
X9950000Y-4760000D01*
X9950000Y-4720000D02*
X9910000Y-4760000D01*
X9910000Y-4830000D02*
X9950000Y-4870000D01*
X9950000Y-4830000D02*
X9910000Y-4870000D01*
X9930000Y-3280000D02*
X9970000Y-3320000D01*
X9970000Y-3280000D02*
X9930000Y-3320000D01*
X9960000Y-4510000D02*
X10000000Y-4550000D01*
X10000000Y-4510000D02*
X9960000Y-4550000D01*
X10000000Y-3510000D02*
X10040000Y-3550000D01*
X10040000Y-3510000D02*
X10000000Y-3550000D01*
X10010000Y-5355050D02*
X10050000Y-5395050D01*
X10050000Y-5355050D02*
X10010000Y-5395050D01*
X10020000Y-4610000D02*
X10060000Y-4650000D01*
X10060000Y-4610000D02*
X10020000Y-4650000D01*
X10020000Y-4720000D02*
X10060000Y-4760000D01*
X10060000Y-4720000D02*
X10020000Y-4760000D01*
X10020000Y-4830000D02*
X10060000Y-4870000D01*
X10060000Y-4830000D02*
X10020000Y-4870000D01*
X10100000Y-2900000D02*
X10140000Y-2940000D01*
X10140000Y-2900000D02*
X10100000Y-2940000D01*
X10100000Y-3020000D02*
X10140000Y-3060000D01*
X10140000Y-3020000D02*
X10100000Y-3060000D01*
X10100000Y-3920000D02*
X10140000Y-3960000D01*
X10140000Y-3920000D02*
X10100000Y-3960000D01*
X10100000Y-4310000D02*
X10140000Y-4350000D01*
X10140000Y-4310000D02*
X10100000Y-4350000D01*
X10130000Y-4720000D02*
X10170000Y-4760000D01*
X10170000Y-4720000D02*
X10130000Y-4760000D01*
X10130000Y-4830000D02*
X10170000Y-4870000D01*
X10170000Y-4830000D02*
X10130000Y-4870000D01*
X10130000Y-4920000D02*
X10170000Y-4960000D01*
X10170000Y-4920000D02*
X10130000Y-4960000D01*
X10160000Y-3620000D02*
X10200000Y-3660000D01*
X10200000Y-3620000D02*
X10160000Y-3660000D01*
X10220000Y-2900000D02*
X10260000Y-2940000D01*
X10260000Y-2900000D02*
X10220000Y-2940000D01*
X10220000Y-3020000D02*
X10260000Y-3060000D01*
X10260000Y-3020000D02*
X10220000Y-3060000D01*
X10290000Y-3340000D02*
X10330000Y-3380000D01*
X10330000Y-3340000D02*
X10290000Y-3380000D01*
X10290000Y-3470000D02*
X10330000Y-3510000D01*
X10330000Y-3470000D02*
X10290000Y-3510000D01*
X10290000Y-3620000D02*
X10330000Y-3660000D01*
X10330000Y-3620000D02*
X10290000Y-3660000D01*
X10290000Y-4820000D02*
X10330000Y-4860000D01*
X10330000Y-4820000D02*
X10290000Y-4860000D01*
X10340000Y-2900000D02*
X10380000Y-2940000D01*
X10380000Y-2900000D02*
X10340000Y-2940000D01*
X10340000Y-3020000D02*
X10380000Y-3060000D01*
X10380000Y-3020000D02*
X10340000Y-3060000D01*
X10380000Y-4560000D02*
X10420000Y-4600000D01*
X10420000Y-4560000D02*
X10380000Y-4600000D01*
X10380000Y-4820000D02*
X10420000Y-4860000D01*
X10420000Y-4820000D02*
X10380000Y-4860000D01*
X10390000Y-4100000D02*
X10430000Y-4140000D01*
X10430000Y-4100000D02*
X10390000Y-4140000D01*
X10420000Y-3330000D02*
X10460000Y-3370000D01*
X10460000Y-3330000D02*
X10420000Y-3370000D01*
X10420000Y-3470000D02*
X10460000Y-3510000D01*
X10460000Y-3470000D02*
X10420000Y-3510000D01*
X10420000Y-3620000D02*
X10460000Y-3660000D01*
X10460000Y-3620000D02*
X10420000Y-3660000D01*
X10460000Y-2900000D02*
X10500000Y-2940000D01*
X10500000Y-2900000D02*
X10460000Y-2940000D01*
X10460000Y-3020000D02*
X10500000Y-3060000D01*
X10500000Y-3020000D02*
X10460000Y-3060000D01*
X10474975Y-4965025D02*
X10514975Y-5005025D01*
X10514975Y-4965025D02*
X10474975Y-5005025D01*
X10540000Y-7280000D02*
X10580000Y-7320000D01*
X10580000Y-7280000D02*
X10540000Y-7320000D01*
X10550000Y-9190000D02*
X10590000Y-9230000D01*
X10590000Y-9190000D02*
X10550000Y-9230000D01*
X10550000Y-11090000D02*
X10590000Y-11130000D01*
X10590000Y-11090000D02*
X10550000Y-11130000D01*
X10580000Y-2900000D02*
X10620000Y-2940000D01*
X10620000Y-2900000D02*
X10580000Y-2940000D01*
X10580000Y-3020000D02*
X10620000Y-3060000D01*
X10620000Y-3020000D02*
X10580000Y-3060000D01*
X10580000Y-5850000D02*
X10620000Y-5890000D01*
X10620000Y-5850000D02*
X10580000Y-5890000D01*
X10580000Y-11540000D02*
X10620000Y-11580000D01*
X10620000Y-11540000D02*
X10580000Y-11580000D01*
X10590000Y-7750000D02*
X10630000Y-7790000D01*
X10630000Y-7750000D02*
X10590000Y-7790000D01*
X10590000Y-9660000D02*
X10630000Y-9700000D01*
X10630000Y-9660000D02*
X10590000Y-9700000D01*
X10700000Y-2900000D02*
X10740000Y-2940000D01*
X10740000Y-2900000D02*
X10700000Y-2940000D01*
X10700000Y-3020000D02*
X10740000Y-3060000D01*
X10740000Y-3020000D02*
X10700000Y-3060000D01*
X10820000Y-2900000D02*
X10860000Y-2940000D01*
X10860000Y-2900000D02*
X10820000Y-2940000D01*
X10820000Y-3020000D02*
X10860000Y-3060000D01*
X10860000Y-3020000D02*
X10820000Y-3060000D01*
X10940000Y-2900000D02*
X10980000Y-2940000D01*
X10980000Y-2900000D02*
X10940000Y-2940000D01*
X10940000Y-3020000D02*
X10980000Y-3060000D01*
X10980000Y-3020000D02*
X10940000Y-3060000D01*
X11060000Y-2900000D02*
X11100000Y-2940000D01*
X11100000Y-2900000D02*
X11060000Y-2940000D01*
X11060000Y-3020000D02*
X11100000Y-3060000D01*
X11100000Y-3020000D02*
X11060000Y-3060000D01*
X11180000Y-2900000D02*
X11220000Y-2940000D01*
X11220000Y-2900000D02*
X11180000Y-2940000D01*
X11180000Y-3020000D02*
X11220000Y-3060000D01*
X11220000Y-3020000D02*
X11180000Y-3060000D01*
X11300000Y-2900000D02*
X11340000Y-2940000D01*
X11340000Y-2900000D02*
X11300000Y-2940000D01*
X11300000Y-3020000D02*
X11340000Y-3060000D01*
X11340000Y-3020000D02*
X11300000Y-3060000D01*
X11420000Y-2900000D02*
X11460000Y-2940000D01*
X11460000Y-2900000D02*
X11420000Y-2940000D01*
X11420000Y-3020000D02*
X11460000Y-3060000D01*
X11460000Y-3020000D02*
X11420000Y-3060000D01*
X11540000Y-2900000D02*
X11580000Y-2940000D01*
X11580000Y-2900000D02*
X11540000Y-2940000D01*
X11540000Y-3020000D02*
X11580000Y-3060000D01*
X11580000Y-3020000D02*
X11540000Y-3060000D01*
X11660000Y-2900000D02*
X11700000Y-2940000D01*
X11700000Y-2900000D02*
X11660000Y-2940000D01*
X11660000Y-3020000D02*
X11700000Y-3060000D01*
X11700000Y-3020000D02*
X11660000Y-3060000D01*
X11700000Y-11080000D02*
X11740000Y-11120000D01*
X11740000Y-11080000D02*
X11700000Y-11120000D01*
X11700000Y-12990000D02*
X11740000Y-13030000D01*
X11740000Y-12990000D02*
X11700000Y-13030000D01*
X11730000Y-5100000D02*
X11770000Y-5140000D01*
X11770000Y-5100000D02*
X11730000Y-5140000D01*
X11730000Y-5220000D02*
X11770000Y-5260000D01*
X11770000Y-5220000D02*
X11730000Y-5260000D01*
X11780000Y-2900000D02*
X11820000Y-2940000D01*
X11820000Y-2900000D02*
X11780000Y-2940000D01*
X11780000Y-3020000D02*
X11820000Y-3060000D01*
X11820000Y-3020000D02*
X11780000Y-3060000D01*
X11820000Y-11080000D02*
X11860000Y-11120000D01*
X11860000Y-11080000D02*
X11820000Y-11120000D01*
X11820000Y-12990000D02*
X11860000Y-13030000D01*
X11860000Y-12990000D02*
X11820000Y-13030000D01*
X11850000Y-5100000D02*
X11890000Y-5140000D01*
X11890000Y-5100000D02*
X11850000Y-5140000D01*
X11850000Y-5220000D02*
X11890000Y-5260000D01*
X11890000Y-5220000D02*
X11850000Y-5260000D01*
X11900000Y-2900000D02*
X11940000Y-2940000D01*
X11940000Y-2900000D02*
X11900000Y-2940000D01*
X11900000Y-3020000D02*
X11940000Y-3060000D01*
X11940000Y-3020000D02*
X11900000Y-3060000D01*
X11970000Y-5100000D02*
X12010000Y-5140000D01*
X12010000Y-5100000D02*
X11970000Y-5140000D01*
X11970000Y-5220000D02*
X12010000Y-5260000D01*
X12010000Y-5220000D02*
X11970000Y-5260000D01*
X12020000Y-2900000D02*
X12060000Y-2940000D01*
X12060000Y-2900000D02*
X12020000Y-2940000D01*
X12020000Y-3020000D02*
X12060000Y-3060000D01*
X12060000Y-3020000D02*
X12020000Y-3060000D01*
X12050000Y-10850000D02*
X12090000Y-10890000D01*
X12090000Y-10850000D02*
X12050000Y-10890000D01*
X12050000Y-12750000D02*
X12090000Y-12790000D01*
X12090000Y-12750000D02*
X12050000Y-12790000D01*
X12090000Y-5100000D02*
X12130000Y-5140000D01*
X12130000Y-5100000D02*
X12090000Y-5140000D01*
X12090000Y-5220000D02*
X12130000Y-5260000D01*
X12130000Y-5220000D02*
X12090000Y-5260000D01*
X12140000Y-2900000D02*
X12180000Y-2940000D01*
X12180000Y-2900000D02*
X12140000Y-2940000D01*
X12140000Y-3020000D02*
X12180000Y-3060000D01*
X12180000Y-3020000D02*
X12140000Y-3060000D01*
X12170000Y-10740000D02*
X12210000Y-10780000D01*
X12210000Y-10740000D02*
X12170000Y-10780000D01*
X12170000Y-12640000D02*
X12210000Y-12680000D01*
X12210000Y-12640000D02*
X12170000Y-12680000D01*
X12210000Y-5100000D02*
X12250000Y-5140000D01*
X12250000Y-5100000D02*
X12210000Y-5140000D01*
X12210000Y-5220000D02*
X12250000Y-5260000D01*
X12250000Y-5220000D02*
X12210000Y-5260000D01*
X12230000Y-11260000D02*
X12270000Y-11300000D01*
X12270000Y-11260000D02*
X12230000Y-11300000D01*
X12230000Y-11383333D02*
X12270000Y-11423333D01*
X12270000Y-11383333D02*
X12230000Y-11423333D01*
X12230000Y-11506667D02*
X12270000Y-11546667D01*
X12270000Y-11506667D02*
X12230000Y-11546667D01*
X12230000Y-11630000D02*
X12270000Y-11670000D01*
X12270000Y-11630000D02*
X12230000Y-11670000D01*
X12230000Y-13170000D02*
X12270000Y-13210000D01*
X12270000Y-13170000D02*
X12230000Y-13210000D01*
X12230000Y-13293333D02*
X12270000Y-13333333D01*
X12270000Y-13293333D02*
X12230000Y-13333333D01*
X12230000Y-13416667D02*
X12270000Y-13456667D01*
X12270000Y-13416667D02*
X12230000Y-13456667D01*
X12230000Y-13540000D02*
X12270000Y-13580000D01*
X12270000Y-13540000D02*
X12230000Y-13580000D01*
X12240000Y-9530000D02*
X12280000Y-9570000D01*
X12280000Y-9530000D02*
X12240000Y-9570000D01*
X12260000Y-2900000D02*
X12300000Y-2940000D01*
X12300000Y-2900000D02*
X12260000Y-2940000D01*
X12260000Y-3020000D02*
X12300000Y-3060000D01*
X12300000Y-3020000D02*
X12260000Y-3060000D01*
X12310000Y-5604950D02*
X12350000Y-5644950D01*
X12350000Y-5604950D02*
X12310000Y-5644950D01*
X12330000Y-5100000D02*
X12370000Y-5140000D01*
X12370000Y-5100000D02*
X12330000Y-5140000D01*
X12330000Y-5220000D02*
X12370000Y-5260000D01*
X12370000Y-5220000D02*
X12330000Y-5260000D01*
X12380000Y-2900000D02*
X12420000Y-2940000D01*
X12420000Y-2900000D02*
X12380000Y-2940000D01*
X12380000Y-3020000D02*
X12420000Y-3060000D01*
X12420000Y-3020000D02*
X12380000Y-3060000D01*
X12430000Y-5850000D02*
X12470000Y-5890000D01*
X12470000Y-5850000D02*
X12430000Y-5890000D01*
X12440000Y-7500000D02*
X12480000Y-7540000D01*
X12480000Y-7500000D02*
X12440000Y-7540000D01*
X12440000Y-7910000D02*
X12480000Y-7950000D01*
X12480000Y-7910000D02*
X12440000Y-7950000D01*
X12450000Y-5100000D02*
X12490000Y-5140000D01*
X12490000Y-5100000D02*
X12450000Y-5140000D01*
X12450000Y-5220000D02*
X12490000Y-5260000D01*
X12490000Y-5220000D02*
X12450000Y-5260000D01*
X12454950Y-12220000D02*
X12494950Y-12260000D01*
X12494950Y-12220000D02*
X12454950Y-12260000D01*
X12480000Y-4910000D02*
X12520000Y-4950000D01*
X12520000Y-4910000D02*
X12480000Y-4950000D01*
X12500000Y-2900000D02*
X12540000Y-2940000D01*
X12540000Y-2900000D02*
X12500000Y-2940000D01*
X12500000Y-3020000D02*
X12540000Y-3060000D01*
X12540000Y-3020000D02*
X12500000Y-3060000D01*
X12570000Y-5100000D02*
X12610000Y-5140000D01*
X12610000Y-5100000D02*
X12570000Y-5140000D01*
X12570000Y-5220000D02*
X12610000Y-5260000D01*
X12610000Y-5220000D02*
X12570000Y-5260000D01*
X12620000Y-2900000D02*
X12660000Y-2940000D01*
X12660000Y-2900000D02*
X12620000Y-2940000D01*
X12620000Y-3020000D02*
X12660000Y-3060000D01*
X12660000Y-3020000D02*
X12620000Y-3060000D01*
X12740000Y-2900000D02*
X12780000Y-2940000D01*
X12780000Y-2900000D02*
X12740000Y-2940000D01*
X12740000Y-3020000D02*
X12780000Y-3060000D01*
X12780000Y-3020000D02*
X12740000Y-3060000D01*
X12760000Y-5610000D02*
X12800000Y-5650000D01*
X12800000Y-5610000D02*
X12760000Y-5650000D01*
X12860000Y-2900000D02*
X12900000Y-2940000D01*
X12900000Y-2900000D02*
X12860000Y-2940000D01*
X12860000Y-3020000D02*
X12900000Y-3060000D01*
X12900000Y-3020000D02*
X12860000Y-3060000D01*
X12980000Y-2900000D02*
X13020000Y-2940000D01*
X13020000Y-2900000D02*
X12980000Y-2940000D01*
X12980000Y-3020000D02*
X13020000Y-3060000D01*
X13020000Y-3020000D02*
X12980000Y-3060000D01*
X13070000Y-4960000D02*
X13110000Y-5000000D01*
X13110000Y-4960000D02*
X13070000Y-5000000D01*
X13070000Y-5080000D02*
X13110000Y-5120000D01*
X13110000Y-5080000D02*
X13070000Y-5120000D01*
X13070000Y-5330000D02*
X13110000Y-5370000D01*
X13110000Y-5330000D02*
X13070000Y-5370000D01*
X13100000Y-2900000D02*
X13140000Y-2940000D01*
X13140000Y-2900000D02*
X13100000Y-2940000D01*
X13100000Y-3020000D02*
X13140000Y-3060000D01*
X13140000Y-3020000D02*
X13100000Y-3060000D01*
X13190000Y-4960000D02*
X13230000Y-5000000D01*
X13230000Y-4960000D02*
X13190000Y-5000000D01*
X13190000Y-5080000D02*
X13230000Y-5120000D01*
X13230000Y-5080000D02*
X13190000Y-5120000D01*
X13220000Y-2900000D02*
X13260000Y-2940000D01*
X13260000Y-2900000D02*
X13220000Y-2940000D01*
X13220000Y-3020000D02*
X13260000Y-3060000D01*
X13260000Y-3020000D02*
X13220000Y-3060000D01*
X13310000Y-4960000D02*
X13350000Y-5000000D01*
X13350000Y-4960000D02*
X13310000Y-5000000D01*
X13310000Y-5080000D02*
X13350000Y-5120000D01*
X13350000Y-5080000D02*
X13310000Y-5120000D01*
X13340000Y-2900000D02*
X13380000Y-2940000D01*
X13380000Y-2900000D02*
X13340000Y-2940000D01*
X13340000Y-3020000D02*
X13380000Y-3060000D01*
X13380000Y-3020000D02*
X13340000Y-3060000D01*
X13430000Y-4960000D02*
X13470000Y-5000000D01*
X13470000Y-4960000D02*
X13430000Y-5000000D01*
X13430000Y-5080000D02*
X13470000Y-5120000D01*
X13470000Y-5080000D02*
X13430000Y-5120000D01*
X13460000Y-2900000D02*
X13500000Y-2940000D01*
X13500000Y-2900000D02*
X13460000Y-2940000D01*
X13460000Y-3020000D02*
X13500000Y-3060000D01*
X13500000Y-3020000D02*
X13460000Y-3060000D01*
X13460000Y-3150000D02*
X13500000Y-3190000D01*
X13500000Y-3150000D02*
X13460000Y-3190000D01*
X13460000Y-3270000D02*
X13500000Y-3310000D01*
X13500000Y-3270000D02*
X13460000Y-3310000D01*
X13550000Y-4960000D02*
X13590000Y-5000000D01*
X13590000Y-4960000D02*
X13550000Y-5000000D01*
X13550000Y-5080000D02*
X13590000Y-5120000D01*
X13590000Y-5080000D02*
X13550000Y-5120000D01*
X13580000Y-2900000D02*
X13620000Y-2940000D01*
X13620000Y-2900000D02*
X13580000Y-2940000D01*
X13580000Y-3020000D02*
X13620000Y-3060000D01*
X13620000Y-3020000D02*
X13580000Y-3060000D01*
X13580000Y-3150000D02*
X13620000Y-3190000D01*
X13620000Y-3150000D02*
X13580000Y-3190000D01*
X13580000Y-3270000D02*
X13620000Y-3310000D01*
X13620000Y-3270000D02*
X13580000Y-3310000D01*
X13670000Y-4960000D02*
X13710000Y-5000000D01*
X13710000Y-4960000D02*
X13670000Y-5000000D01*
X13670000Y-5080000D02*
X13710000Y-5120000D01*
X13710000Y-5080000D02*
X13670000Y-5120000D01*
X13700000Y-2900000D02*
X13740000Y-2940000D01*
X13740000Y-2900000D02*
X13700000Y-2940000D01*
X13700000Y-3020000D02*
X13740000Y-3060000D01*
X13740000Y-3020000D02*
X13700000Y-3060000D01*
X13700000Y-3150000D02*
X13740000Y-3190000D01*
X13740000Y-3150000D02*
X13700000Y-3190000D01*
X13700000Y-3270000D02*
X13740000Y-3310000D01*
X13740000Y-3270000D02*
X13700000Y-3310000D01*
X13790000Y-4960000D02*
X13830000Y-5000000D01*
X13830000Y-4960000D02*
X13790000Y-5000000D01*
X13790000Y-5080000D02*
X13830000Y-5120000D01*
X13830000Y-5080000D02*
X13790000Y-5120000D01*
X13820000Y-2900000D02*
X13860000Y-2940000D01*
X13860000Y-2900000D02*
X13820000Y-2940000D01*
X13820000Y-3020000D02*
X13860000Y-3060000D01*
X13860000Y-3020000D02*
X13820000Y-3060000D01*
X13820000Y-3150000D02*
X13860000Y-3190000D01*
X13860000Y-3150000D02*
X13820000Y-3190000D01*
X13820000Y-3270000D02*
X13860000Y-3310000D01*
X13860000Y-3270000D02*
X13820000Y-3310000D01*
X13820000Y-3390000D02*
X13860000Y-3430000D01*
X13860000Y-3390000D02*
X13820000Y-3430000D01*
X13940000Y-2900000D02*
X13980000Y-2940000D01*
X13980000Y-2900000D02*
X13940000Y-2940000D01*
X13940000Y-3020000D02*
X13980000Y-3060000D01*
X13980000Y-3020000D02*
X13940000Y-3060000D01*
X13940000Y-3150000D02*
X13980000Y-3190000D01*
X13980000Y-3150000D02*
X13940000Y-3190000D01*
X13940000Y-3270000D02*
X13980000Y-3310000D01*
X13980000Y-3270000D02*
X13940000Y-3310000D01*
X13940000Y-3390000D02*
X13980000Y-3430000D01*
X13980000Y-3390000D02*
X13940000Y-3430000D01*
X13940000Y-5280000D02*
X13980000Y-5320000D01*
X13980000Y-5280000D02*
X13940000Y-5320000D01*
X14060000Y-2900000D02*
X14100000Y-2940000D01*
X14100000Y-2900000D02*
X14060000Y-2940000D01*
X14060000Y-3020000D02*
X14100000Y-3060000D01*
X14100000Y-3020000D02*
X14060000Y-3060000D01*
X14060000Y-3150000D02*
X14100000Y-3190000D01*
X14100000Y-3150000D02*
X14060000Y-3190000D01*
X14060000Y-3270000D02*
X14100000Y-3310000D01*
X14100000Y-3270000D02*
X14060000Y-3310000D01*
X14060000Y-3390000D02*
X14100000Y-3430000D01*
X14100000Y-3390000D02*
X14060000Y-3430000D01*
X14060000Y-3510000D02*
X14100000Y-3550000D01*
X14100000Y-3510000D02*
X14060000Y-3550000D01*
X14070000Y-5850000D02*
X14110000Y-5890000D01*
X14110000Y-5850000D02*
X14070000Y-5890000D01*
X14140000Y-4910000D02*
X14180000Y-4950000D01*
X14180000Y-4910000D02*
X14140000Y-4950000D01*
X14180000Y-2900000D02*
X14220000Y-2940000D01*
X14220000Y-2900000D02*
X14180000Y-2940000D01*
X14180000Y-3020000D02*
X14220000Y-3060000D01*
X14220000Y-3020000D02*
X14180000Y-3060000D01*
X14180000Y-3150000D02*
X14220000Y-3190000D01*
X14220000Y-3150000D02*
X14180000Y-3190000D01*
X14180000Y-3270000D02*
X14220000Y-3310000D01*
X14220000Y-3270000D02*
X14180000Y-3310000D01*
X14180000Y-3390000D02*
X14220000Y-3430000D01*
X14220000Y-3390000D02*
X14180000Y-3430000D01*
X14180000Y-3510000D02*
X14220000Y-3550000D01*
X14220000Y-3510000D02*
X14180000Y-3550000D01*
D13*
X7598000Y-2876000D02*
G75*
G03*
X7598000Y-2876000I-30000J0D01*
G01*
D11*
X7538000Y-2836000D02*
X7538000Y-2916000D01*
X7538000Y-2916000D02*
G75*
G03*
X7598000Y-2916000I30000J0D01*
G01*
X7598000Y-2916000D02*
X7598000Y-2836000D01*
X7598000Y-2836000D02*
G75*
G03*
X7538000Y-2836000I-30000J0D01*
G01*
D13*
X7598000Y-3293000D02*
G75*
G03*
X7598000Y-3293000I-30000J0D01*
G01*
D11*
X7538000Y-3238000D02*
X7538000Y-3348000D01*
X7538000Y-3348000D02*
G75*
G03*
X7598000Y-3348000I30000J0D01*
G01*
X7598000Y-3348000D02*
X7598000Y-3238000D01*
X7598000Y-3238000D02*
G75*
G03*
X7538000Y-3238000I-30000J0D01*
G01*
D13*
X8462000Y-2876000D02*
G75*
G03*
X8462000Y-2876000I-30000J0D01*
G01*
D11*
X8402000Y-2836000D02*
X8402000Y-2916000D01*
X8402000Y-2916000D02*
G75*
G03*
X8462000Y-2916000I30000J0D01*
G01*
X8462000Y-2916000D02*
X8462000Y-2836000D01*
X8462000Y-2836000D02*
G75*
G03*
X8402000Y-2836000I-30000J0D01*
G01*
D13*
X8462000Y-3293000D02*
G75*
G03*
X8462000Y-3293000I-30000J0D01*
G01*
D11*
X8402000Y-3238000D02*
X8402000Y-3348000D01*
X8402000Y-3348000D02*
G75*
G03*
X8462000Y-3348000I30000J0D01*
G01*
X8462000Y-3348000D02*
X8462000Y-3238000D01*
X8462000Y-3238000D02*
G75*
G03*
X8402000Y-3238000I-30000J0D01*
G01*
D10*
X4050000Y-2837500D02*
X4050000Y-2937500D01*
X4000000Y-2887500D02*
X4100000Y-2887500D01*
X4050000Y-3091500D02*
X4050000Y-3191500D01*
X4000000Y-3141500D02*
X4100000Y-3141500D01*
X4050000Y-3345500D02*
X4050000Y-3445500D01*
X4000000Y-3395500D02*
X4100000Y-3395500D01*
X4894000Y-2907500D02*
X4894000Y-3007500D01*
X4844000Y-2957500D02*
X4944000Y-2957500D01*
X4894000Y-3766000D02*
X4894000Y-3866000D01*
X4844000Y-3816000D02*
X4944000Y-3816000D01*
X4894000Y-4020000D02*
X4894000Y-4120000D01*
X4844000Y-4070000D02*
X4944000Y-4070000D01*
X5148000Y-2907500D02*
X5148000Y-3007500D01*
X5098000Y-2957500D02*
X5198000Y-2957500D01*
X5402000Y-2907500D02*
X5402000Y-3007500D01*
X5352000Y-2957500D02*
X5452000Y-2957500D01*
X5656000Y-2907500D02*
X5656000Y-3007500D01*
X5606000Y-2957500D02*
X5706000Y-2957500D01*
X5910000Y-2907500D02*
X5910000Y-3007500D01*
X5860000Y-2957500D02*
X5960000Y-2957500D01*
X6164000Y-2907500D02*
X6164000Y-3007500D01*
X6114000Y-2957500D02*
X6214000Y-2957500D01*
X6418000Y-2907500D02*
X6418000Y-3007500D01*
X6368000Y-2957500D02*
X6468000Y-2957500D01*
X6672000Y-2907500D02*
X6672000Y-3007500D01*
X6622000Y-2957500D02*
X6722000Y-2957500D01*
X10700000Y-5200000D02*
X10700000Y-5300000D01*
X10650000Y-5250000D02*
X10750000Y-5250000D01*
X10954000Y-5200000D02*
X10954000Y-5300000D01*
X10904000Y-5250000D02*
X11004000Y-5250000D01*
X11208000Y-5200000D02*
X11208000Y-5300000D01*
X11158000Y-5250000D02*
X11258000Y-5250000D01*
X11462000Y-5200000D02*
X11462000Y-5300000D01*
X11412000Y-5250000D02*
X11512000Y-5250000D01*
D14*
X4880984Y-6245984D02*
X4880984Y-6140016D01*
X4775016Y-6140016D01*
X4775016Y-6245984D01*
X4880984Y-6245984D01*
X4880984Y-6753984D02*
X4880984Y-6648016D01*
X4775016Y-6648016D01*
X4775016Y-6753984D01*
X4880984Y-6753984D01*
X4880984Y-8150984D02*
X4880984Y-8045016D01*
X4775016Y-8045016D01*
X4775016Y-8150984D01*
X4880984Y-8150984D01*
X4880984Y-8658984D02*
X4880984Y-8553016D01*
X4775016Y-8553016D01*
X4775016Y-8658984D01*
X4880984Y-8658984D01*
X4880984Y-10055984D02*
X4880984Y-9950016D01*
X4775016Y-9950016D01*
X4775016Y-10055984D01*
X4880984Y-10055984D01*
X4880984Y-10563984D02*
X4880984Y-10458016D01*
X4775016Y-10458016D01*
X4775016Y-10563984D01*
X4880984Y-10563984D01*
X4880984Y-11960984D02*
X4880984Y-11855016D01*
X4775016Y-11855016D01*
X4775016Y-11960984D01*
X4880984Y-11960984D01*
X4880984Y-12468984D02*
X4880984Y-12363016D01*
X4775016Y-12363016D01*
X4775016Y-12468984D01*
X4880984Y-12468984D01*
X4880984Y-13865984D02*
X4880984Y-13760016D01*
X4775016Y-13760016D01*
X4775016Y-13865984D01*
X4880984Y-13865984D01*
X4880984Y-14373984D02*
X4880984Y-14268016D01*
X4775016Y-14268016D01*
X4775016Y-14373984D01*
X4880984Y-14373984D01*
X5515984Y-5991984D02*
X5515984Y-5886016D01*
X5410016Y-5886016D01*
X5410016Y-5991984D01*
X5515984Y-5991984D01*
X5515984Y-7007984D02*
X5515984Y-6902016D01*
X5410016Y-6902016D01*
X5410016Y-7007984D01*
X5515984Y-7007984D01*
X5515984Y-7896984D02*
X5515984Y-7791016D01*
X5410016Y-7791016D01*
X5410016Y-7896984D01*
X5515984Y-7896984D01*
X5515984Y-8912984D02*
X5515984Y-8807016D01*
X5410016Y-8807016D01*
X5410016Y-8912984D01*
X5515984Y-8912984D01*
X5515984Y-9801984D02*
X5515984Y-9696016D01*
X5410016Y-9696016D01*
X5410016Y-9801984D01*
X5515984Y-9801984D01*
X5515984Y-10817984D02*
X5515984Y-10712016D01*
X5410016Y-10712016D01*
X5410016Y-10817984D01*
X5515984Y-10817984D01*
X5515984Y-11706984D02*
X5515984Y-11601016D01*
X5410016Y-11601016D01*
X5410016Y-11706984D01*
X5515984Y-11706984D01*
X5515984Y-12722984D02*
X5515984Y-12617016D01*
X5410016Y-12617016D01*
X5410016Y-12722984D01*
X5515984Y-12722984D01*
X5515984Y-13611984D02*
X5515984Y-13506016D01*
X5410016Y-13506016D01*
X5410016Y-13611984D01*
X5515984Y-13611984D01*
X5515984Y-14627984D02*
X5515984Y-14522016D01*
X5410016Y-14522016D01*
X5410016Y-14627984D01*
X5515984Y-14627984D01*
X7327984Y-6245984D02*
X7327984Y-6140016D01*
X7222016Y-6140016D01*
X7222016Y-6245984D01*
X7327984Y-6245984D01*
X7327984Y-6753984D02*
X7327984Y-6648016D01*
X7222016Y-6648016D01*
X7222016Y-6753984D01*
X7327984Y-6753984D01*
X7327984Y-8150984D02*
X7327984Y-8045016D01*
X7222016Y-8045016D01*
X7222016Y-8150984D01*
X7327984Y-8150984D01*
X7327984Y-8658984D02*
X7327984Y-8553016D01*
X7222016Y-8553016D01*
X7222016Y-8658984D01*
X7327984Y-8658984D01*
X7327984Y-10055984D02*
X7327984Y-9950016D01*
X7222016Y-9950016D01*
X7222016Y-10055984D01*
X7327984Y-10055984D01*
X7327984Y-10563984D02*
X7327984Y-10458016D01*
X7222016Y-10458016D01*
X7222016Y-10563984D01*
X7327984Y-10563984D01*
X7327984Y-11960984D02*
X7327984Y-11855016D01*
X7222016Y-11855016D01*
X7222016Y-11960984D01*
X7327984Y-11960984D01*
X7327984Y-12468984D02*
X7327984Y-12363016D01*
X7222016Y-12363016D01*
X7222016Y-12468984D01*
X7327984Y-12468984D01*
X7962984Y-5991984D02*
X7962984Y-5886016D01*
X7857016Y-5886016D01*
X7857016Y-5991984D01*
X7962984Y-5991984D01*
X7962984Y-7007984D02*
X7962984Y-6902016D01*
X7857016Y-6902016D01*
X7857016Y-7007984D01*
X7962984Y-7007984D01*
X7962984Y-7896984D02*
X7962984Y-7791016D01*
X7857016Y-7791016D01*
X7857016Y-7896984D01*
X7962984Y-7896984D01*
X7962984Y-8912984D02*
X7962984Y-8807016D01*
X7857016Y-8807016D01*
X7857016Y-8912984D01*
X7962984Y-8912984D01*
X7962984Y-9801984D02*
X7962984Y-9696016D01*
X7857016Y-9696016D01*
X7857016Y-9801984D01*
X7962984Y-9801984D01*
X7962984Y-10817984D02*
X7962984Y-10712016D01*
X7857016Y-10712016D01*
X7857016Y-10817984D01*
X7962984Y-10817984D01*
X7962984Y-11706984D02*
X7962984Y-11601016D01*
X7857016Y-11601016D01*
X7857016Y-11706984D01*
X7962984Y-11706984D01*
X7962984Y-12722984D02*
X7962984Y-12617016D01*
X7857016Y-12617016D01*
X7857016Y-12722984D01*
X7962984Y-12722984D01*
X8280484Y-13865984D02*
X8280484Y-13760016D01*
X8174516Y-13760016D01*
X8174516Y-13865984D01*
X8280484Y-13865984D01*
X8280484Y-14373984D02*
X8280484Y-14268016D01*
X8174516Y-14268016D01*
X8174516Y-14373984D01*
X8280484Y-14373984D01*
X8915484Y-13611984D02*
X8915484Y-13506016D01*
X8809516Y-13506016D01*
X8809516Y-13611984D01*
X8915484Y-13611984D01*
X8915484Y-14627984D02*
X8915484Y-14522016D01*
X8809516Y-14522016D01*
X8809516Y-14627984D01*
X8915484Y-14627984D01*
X9232984Y-6245984D02*
X9232984Y-6140016D01*
X9127016Y-6140016D01*
X9127016Y-6245984D01*
X9232984Y-6245984D01*
X9232984Y-6753984D02*
X9232984Y-6648016D01*
X9127016Y-6648016D01*
X9127016Y-6753984D01*
X9232984Y-6753984D01*
X9232984Y-8150984D02*
X9232984Y-8045016D01*
X9127016Y-8045016D01*
X9127016Y-8150984D01*
X9232984Y-8150984D01*
X9232984Y-8658984D02*
X9232984Y-8553016D01*
X9127016Y-8553016D01*
X9127016Y-8658984D01*
X9232984Y-8658984D01*
X9232984Y-10055984D02*
X9232984Y-9950016D01*
X9127016Y-9950016D01*
X9127016Y-10055984D01*
X9232984Y-10055984D01*
X9232984Y-10563984D02*
X9232984Y-10458016D01*
X9127016Y-10458016D01*
X9127016Y-10563984D01*
X9232984Y-10563984D01*
X9232984Y-11960984D02*
X9232984Y-11855016D01*
X9127016Y-11855016D01*
X9127016Y-11960984D01*
X9232984Y-11960984D01*
X9232984Y-12468984D02*
X9232984Y-12363016D01*
X9127016Y-12363016D01*
X9127016Y-12468984D01*
X9232984Y-12468984D01*
X9867984Y-5991984D02*
X9867984Y-5886016D01*
X9762016Y-5886016D01*
X9762016Y-5991984D01*
X9867984Y-5991984D01*
X9867984Y-7007984D02*
X9867984Y-6902016D01*
X9762016Y-6902016D01*
X9762016Y-7007984D01*
X9867984Y-7007984D01*
X9867984Y-7896984D02*
X9867984Y-7791016D01*
X9762016Y-7791016D01*
X9762016Y-7896984D01*
X9867984Y-7896984D01*
X9867984Y-8912984D02*
X9867984Y-8807016D01*
X9762016Y-8807016D01*
X9762016Y-8912984D01*
X9867984Y-8912984D01*
X9867984Y-9801984D02*
X9867984Y-9696016D01*
X9762016Y-9696016D01*
X9762016Y-9801984D01*
X9867984Y-9801984D01*
X9867984Y-10817984D02*
X9867984Y-10712016D01*
X9762016Y-10712016D01*
X9762016Y-10817984D01*
X9867984Y-10817984D01*
X9867984Y-11706984D02*
X9867984Y-11601016D01*
X9762016Y-11601016D01*
X9762016Y-11706984D01*
X9867984Y-11706984D01*
X9867984Y-12722984D02*
X9867984Y-12617016D01*
X9762016Y-12617016D01*
X9762016Y-12722984D01*
X9867984Y-12722984D01*
X11137984Y-3868984D02*
X11137984Y-3763016D01*
X11032016Y-3763016D01*
X11032016Y-3868984D01*
X11137984Y-3868984D01*
X11137984Y-4376984D02*
X11137984Y-4271016D01*
X11032016Y-4271016D01*
X11032016Y-4376984D01*
X11137984Y-4376984D01*
X11137984Y-6245984D02*
X11137984Y-6140016D01*
X11032016Y-6140016D01*
X11032016Y-6245984D01*
X11137984Y-6245984D01*
X11137984Y-6753984D02*
X11137984Y-6648016D01*
X11032016Y-6648016D01*
X11032016Y-6753984D01*
X11137984Y-6753984D01*
X11137984Y-8150984D02*
X11137984Y-8045016D01*
X11032016Y-8045016D01*
X11032016Y-8150984D01*
X11137984Y-8150984D01*
X11137984Y-8658984D02*
X11137984Y-8553016D01*
X11032016Y-8553016D01*
X11032016Y-8658984D01*
X11137984Y-8658984D01*
X11137984Y-10055984D02*
X11137984Y-9950016D01*
X11032016Y-9950016D01*
X11032016Y-10055984D01*
X11137984Y-10055984D01*
X11137984Y-10563984D02*
X11137984Y-10458016D01*
X11032016Y-10458016D01*
X11032016Y-10563984D01*
X11137984Y-10563984D01*
X11137984Y-11960984D02*
X11137984Y-11855016D01*
X11032016Y-11855016D01*
X11032016Y-11960984D01*
X11137984Y-11960984D01*
X11137984Y-12468984D02*
X11137984Y-12363016D01*
X11032016Y-12363016D01*
X11032016Y-12468984D01*
X11137984Y-12468984D01*
X11137984Y-13865984D02*
X11137984Y-13760016D01*
X11032016Y-13760016D01*
X11032016Y-13865984D01*
X11137984Y-13865984D01*
X11137984Y-14373984D02*
X11137984Y-14268016D01*
X11032016Y-14268016D01*
X11032016Y-14373984D01*
X11137984Y-14373984D01*
X11772984Y-3614984D02*
X11772984Y-3509016D01*
X11667016Y-3509016D01*
X11667016Y-3614984D01*
X11772984Y-3614984D01*
X11772984Y-4630984D02*
X11772984Y-4525016D01*
X11667016Y-4525016D01*
X11667016Y-4630984D01*
X11772984Y-4630984D01*
X11772984Y-5991984D02*
X11772984Y-5886016D01*
X11667016Y-5886016D01*
X11667016Y-5991984D01*
X11772984Y-5991984D01*
X11772984Y-7007984D02*
X11772984Y-6902016D01*
X11667016Y-6902016D01*
X11667016Y-7007984D01*
X11772984Y-7007984D01*
X11772984Y-7896984D02*
X11772984Y-7791016D01*
X11667016Y-7791016D01*
X11667016Y-7896984D01*
X11772984Y-7896984D01*
X11772984Y-8912984D02*
X11772984Y-8807016D01*
X11667016Y-8807016D01*
X11667016Y-8912984D01*
X11772984Y-8912984D01*
X11772984Y-9801984D02*
X11772984Y-9696016D01*
X11667016Y-9696016D01*
X11667016Y-9801984D01*
X11772984Y-9801984D01*
X11772984Y-10817984D02*
X11772984Y-10712016D01*
X11667016Y-10712016D01*
X11667016Y-10817984D01*
X11772984Y-10817984D01*
X11772984Y-11706984D02*
X11772984Y-11601016D01*
X11667016Y-11601016D01*
X11667016Y-11706984D01*
X11772984Y-11706984D01*
X11772984Y-12722984D02*
X11772984Y-12617016D01*
X11667016Y-12617016D01*
X11667016Y-12722984D01*
X11772984Y-12722984D01*
X11772984Y-13611984D02*
X11772984Y-13506016D01*
X11667016Y-13506016D01*
X11667016Y-13611984D01*
X11772984Y-13611984D01*
X11772984Y-14627984D02*
X11772984Y-14522016D01*
X11667016Y-14522016D01*
X11667016Y-14627984D01*
X11772984Y-14627984D01*
X13042984Y-3868984D02*
X13042984Y-3763016D01*
X12937016Y-3763016D01*
X12937016Y-3868984D01*
X13042984Y-3868984D01*
X13042984Y-4376984D02*
X13042984Y-4271016D01*
X12937016Y-4271016D01*
X12937016Y-4376984D01*
X13042984Y-4376984D01*
X13042984Y-6245984D02*
X13042984Y-6140016D01*
X12937016Y-6140016D01*
X12937016Y-6245984D01*
X13042984Y-6245984D01*
X13042984Y-6753984D02*
X13042984Y-6648016D01*
X12937016Y-6648016D01*
X12937016Y-6753984D01*
X13042984Y-6753984D01*
X13042984Y-9103484D02*
X13042984Y-8997516D01*
X12937016Y-8997516D01*
X12937016Y-9103484D01*
X13042984Y-9103484D01*
X13042984Y-9611484D02*
X13042984Y-9505516D01*
X12937016Y-9505516D01*
X12937016Y-9611484D01*
X13042984Y-9611484D01*
X13042984Y-12913484D02*
X13042984Y-12807516D01*
X12937016Y-12807516D01*
X12937016Y-12913484D01*
X13042984Y-12913484D01*
X13042984Y-13421484D02*
X13042984Y-13315516D01*
X12937016Y-13315516D01*
X12937016Y-13421484D01*
X13042984Y-13421484D01*
X13677984Y-3614984D02*
X13677984Y-3509016D01*
X13572016Y-3509016D01*
X13572016Y-3614984D01*
X13677984Y-3614984D01*
X13677984Y-4630984D02*
X13677984Y-4525016D01*
X13572016Y-4525016D01*
X13572016Y-4630984D01*
X13677984Y-4630984D01*
X13677984Y-5991984D02*
X13677984Y-5886016D01*
X13572016Y-5886016D01*
X13572016Y-5991984D01*
X13677984Y-5991984D01*
X13677984Y-7007984D02*
X13677984Y-6902016D01*
X13572016Y-6902016D01*
X13572016Y-7007984D01*
X13677984Y-7007984D01*
X13677984Y-8849484D02*
X13677984Y-8743516D01*
X13572016Y-8743516D01*
X13572016Y-8849484D01*
X13677984Y-8849484D01*
X13677984Y-9865484D02*
X13677984Y-9759516D01*
X13572016Y-9759516D01*
X13572016Y-9865484D01*
X13677984Y-9865484D01*
X13677984Y-12659484D02*
X13677984Y-12553516D01*
X13572016Y-12553516D01*
X13572016Y-12659484D01*
X13677984Y-12659484D01*
X13677984Y-13675484D02*
X13677984Y-13569516D01*
X13572016Y-13569516D01*
X13572016Y-13675484D01*
X13677984Y-13675484D01*
D11*
X4085777Y-15526484D02*
X4085777Y-15326484D01*
X4085777Y-15326484D02*
X4133396Y-15326484D01*
X4133396Y-15326484D02*
X4161967Y-15336008D01*
X4161967Y-15336008D02*
X4181015Y-15355055D01*
X4181015Y-15355055D02*
X4190539Y-15374103D01*
X4190539Y-15374103D02*
X4200063Y-15412198D01*
X4200063Y-15412198D02*
X4200063Y-15440769D01*
X4200063Y-15440769D02*
X4190539Y-15478865D01*
X4190539Y-15478865D02*
X4181015Y-15497912D01*
X4181015Y-15497912D02*
X4161967Y-15516960D01*
X4161967Y-15516960D02*
X4133396Y-15526484D01*
X4133396Y-15526484D02*
X4085777Y-15526484D01*
X4285777Y-15526484D02*
X4285777Y-15393150D01*
X4285777Y-15431246D02*
X4295301Y-15412198D01*
X4295301Y-15412198D02*
X4304824Y-15402674D01*
X4304824Y-15402674D02*
X4323872Y-15393150D01*
X4323872Y-15393150D02*
X4342920Y-15393150D01*
X4409586Y-15526484D02*
X4409586Y-15393150D01*
X4409586Y-15326484D02*
X4400063Y-15336008D01*
X4400063Y-15336008D02*
X4409586Y-15345531D01*
X4409586Y-15345531D02*
X4419110Y-15336008D01*
X4419110Y-15336008D02*
X4409586Y-15326484D01*
X4409586Y-15326484D02*
X4409586Y-15345531D01*
X4533396Y-15526484D02*
X4514348Y-15516960D01*
X4514348Y-15516960D02*
X4504824Y-15497912D01*
X4504824Y-15497912D02*
X4504824Y-15326484D01*
X4638158Y-15526484D02*
X4619110Y-15516960D01*
X4619110Y-15516960D02*
X4609586Y-15497912D01*
X4609586Y-15497912D02*
X4609586Y-15326484D01*
X4866729Y-15526484D02*
X4866729Y-15326484D01*
X4866729Y-15326484D02*
X4933396Y-15469341D01*
X4933396Y-15469341D02*
X5000063Y-15326484D01*
X5000063Y-15326484D02*
X5000063Y-15526484D01*
X5181015Y-15526484D02*
X5181015Y-15421722D01*
X5181015Y-15421722D02*
X5171491Y-15402674D01*
X5171491Y-15402674D02*
X5152444Y-15393150D01*
X5152444Y-15393150D02*
X5114348Y-15393150D01*
X5114348Y-15393150D02*
X5095301Y-15402674D01*
X5181015Y-15516960D02*
X5161967Y-15526484D01*
X5161967Y-15526484D02*
X5114348Y-15526484D01*
X5114348Y-15526484D02*
X5095301Y-15516960D01*
X5095301Y-15516960D02*
X5085777Y-15497912D01*
X5085777Y-15497912D02*
X5085777Y-15478865D01*
X5085777Y-15478865D02*
X5095301Y-15459817D01*
X5095301Y-15459817D02*
X5114348Y-15450293D01*
X5114348Y-15450293D02*
X5161967Y-15450293D01*
X5161967Y-15450293D02*
X5181015Y-15440769D01*
X5276253Y-15393150D02*
X5276253Y-15593150D01*
X5276253Y-15402674D02*
X5295301Y-15393150D01*
X5295301Y-15393150D02*
X5333396Y-15393150D01*
X5333396Y-15393150D02*
X5352444Y-15402674D01*
X5352444Y-15402674D02*
X5361967Y-15412198D01*
X5361967Y-15412198D02*
X5371491Y-15431246D01*
X5371491Y-15431246D02*
X5371491Y-15488388D01*
X5371491Y-15488388D02*
X5361967Y-15507436D01*
X5361967Y-15507436D02*
X5352444Y-15516960D01*
X5352444Y-15516960D02*
X5333396Y-15526484D01*
X5333396Y-15526484D02*
X5295301Y-15526484D01*
X5295301Y-15526484D02*
X5276253Y-15516960D01*
X5457205Y-15507436D02*
X5466729Y-15516960D01*
X5466729Y-15516960D02*
X5457205Y-15526484D01*
X5457205Y-15526484D02*
X5447682Y-15516960D01*
X5447682Y-15516960D02*
X5457205Y-15507436D01*
X5457205Y-15507436D02*
X5457205Y-15526484D01*
X5457205Y-15402674D02*
X5466729Y-15412198D01*
X5466729Y-15412198D02*
X5457205Y-15421722D01*
X5457205Y-15421722D02*
X5447682Y-15412198D01*
X5447682Y-15412198D02*
X5457205Y-15402674D01*
X5457205Y-15402674D02*
X5457205Y-15421722D01*
D12*
X3785000Y-15835000D02*
X3825000Y-15875000D01*
X3825000Y-15835000D02*
X3785000Y-15875000D01*
D11*
X4123872Y-15746484D02*
X4142920Y-15746484D01*
X4142920Y-15746484D02*
X4161967Y-15756008D01*
X4161967Y-15756008D02*
X4171491Y-15765531D01*
X4171491Y-15765531D02*
X4181015Y-15784579D01*
X4181015Y-15784579D02*
X4190539Y-15822674D01*
X4190539Y-15822674D02*
X4190539Y-15870293D01*
X4190539Y-15870293D02*
X4181015Y-15908388D01*
X4181015Y-15908388D02*
X4171491Y-15927436D01*
X4171491Y-15927436D02*
X4161967Y-15936960D01*
X4161967Y-15936960D02*
X4142920Y-15946484D01*
X4142920Y-15946484D02*
X4123872Y-15946484D01*
X4123872Y-15946484D02*
X4104824Y-15936960D01*
X4104824Y-15936960D02*
X4095301Y-15927436D01*
X4095301Y-15927436D02*
X4085777Y-15908388D01*
X4085777Y-15908388D02*
X4076253Y-15870293D01*
X4076253Y-15870293D02*
X4076253Y-15822674D01*
X4076253Y-15822674D02*
X4085777Y-15784579D01*
X4085777Y-15784579D02*
X4095301Y-15765531D01*
X4095301Y-15765531D02*
X4104824Y-15756008D01*
X4104824Y-15756008D02*
X4123872Y-15746484D01*
X4276253Y-15927436D02*
X4285777Y-15936960D01*
X4285777Y-15936960D02*
X4276253Y-15946484D01*
X4276253Y-15946484D02*
X4266729Y-15936960D01*
X4266729Y-15936960D02*
X4276253Y-15927436D01*
X4276253Y-15927436D02*
X4276253Y-15946484D01*
X4457205Y-15813150D02*
X4457205Y-15946484D01*
X4409586Y-15736960D02*
X4361967Y-15879817D01*
X4361967Y-15879817D02*
X4485777Y-15879817D01*
X4600063Y-15746484D02*
X4619110Y-15746484D01*
X4619110Y-15746484D02*
X4638158Y-15756008D01*
X4638158Y-15756008D02*
X4647682Y-15765531D01*
X4647682Y-15765531D02*
X4657205Y-15784579D01*
X4657205Y-15784579D02*
X4666729Y-15822674D01*
X4666729Y-15822674D02*
X4666729Y-15870293D01*
X4666729Y-15870293D02*
X4657205Y-15908388D01*
X4657205Y-15908388D02*
X4647682Y-15927436D01*
X4647682Y-15927436D02*
X4638158Y-15936960D01*
X4638158Y-15936960D02*
X4619110Y-15946484D01*
X4619110Y-15946484D02*
X4600063Y-15946484D01*
X4600063Y-15946484D02*
X4581015Y-15936960D01*
X4581015Y-15936960D02*
X4571491Y-15927436D01*
X4571491Y-15927436D02*
X4561967Y-15908388D01*
X4561967Y-15908388D02*
X4552444Y-15870293D01*
X4552444Y-15870293D02*
X4552444Y-15822674D01*
X4552444Y-15822674D02*
X4561967Y-15784579D01*
X4561967Y-15784579D02*
X4571491Y-15765531D01*
X4571491Y-15765531D02*
X4581015Y-15756008D01*
X4581015Y-15756008D02*
X4600063Y-15746484D01*
X4790539Y-15746484D02*
X4809586Y-15746484D01*
X4809586Y-15746484D02*
X4828634Y-15756008D01*
X4828634Y-15756008D02*
X4838158Y-15765531D01*
X4838158Y-15765531D02*
X4847682Y-15784579D01*
X4847682Y-15784579D02*
X4857205Y-15822674D01*
X4857205Y-15822674D02*
X4857205Y-15870293D01*
X4857205Y-15870293D02*
X4847682Y-15908388D01*
X4847682Y-15908388D02*
X4838158Y-15927436D01*
X4838158Y-15927436D02*
X4828634Y-15936960D01*
X4828634Y-15936960D02*
X4809586Y-15946484D01*
X4809586Y-15946484D02*
X4790539Y-15946484D01*
X4790539Y-15946484D02*
X4771491Y-15936960D01*
X4771491Y-15936960D02*
X4761967Y-15927436D01*
X4761967Y-15927436D02*
X4752444Y-15908388D01*
X4752444Y-15908388D02*
X4742920Y-15870293D01*
X4742920Y-15870293D02*
X4742920Y-15822674D01*
X4742920Y-15822674D02*
X4752444Y-15784579D01*
X4752444Y-15784579D02*
X4761967Y-15765531D01*
X4761967Y-15765531D02*
X4771491Y-15756008D01*
X4771491Y-15756008D02*
X4790539Y-15746484D01*
X4942920Y-15946484D02*
X4942920Y-15813150D01*
X4942920Y-15832198D02*
X4952444Y-15822674D01*
X4952444Y-15822674D02*
X4971491Y-15813150D01*
X4971491Y-15813150D02*
X5000063Y-15813150D01*
X5000063Y-15813150D02*
X5019110Y-15822674D01*
X5019110Y-15822674D02*
X5028634Y-15841722D01*
X5028634Y-15841722D02*
X5028634Y-15946484D01*
X5028634Y-15841722D02*
X5038158Y-15822674D01*
X5038158Y-15822674D02*
X5057205Y-15813150D01*
X5057205Y-15813150D02*
X5085777Y-15813150D01*
X5085777Y-15813150D02*
X5104825Y-15822674D01*
X5104825Y-15822674D02*
X5114348Y-15841722D01*
X5114348Y-15841722D02*
X5114348Y-15946484D01*
X5209586Y-15946484D02*
X5209586Y-15813150D01*
X5209586Y-15832198D02*
X5219110Y-15822674D01*
X5219110Y-15822674D02*
X5238158Y-15813150D01*
X5238158Y-15813150D02*
X5266729Y-15813150D01*
X5266729Y-15813150D02*
X5285777Y-15822674D01*
X5285777Y-15822674D02*
X5295301Y-15841722D01*
X5295301Y-15841722D02*
X5295301Y-15946484D01*
X5295301Y-15841722D02*
X5304825Y-15822674D01*
X5304825Y-15822674D02*
X5323872Y-15813150D01*
X5323872Y-15813150D02*
X5352444Y-15813150D01*
X5352444Y-15813150D02*
X5371491Y-15822674D01*
X5371491Y-15822674D02*
X5381015Y-15841722D01*
X5381015Y-15841722D02*
X5381015Y-15946484D01*
X5771491Y-15736960D02*
X5600063Y-15994103D01*
X6028634Y-15746484D02*
X6047682Y-15746484D01*
X6047682Y-15746484D02*
X6066729Y-15756008D01*
X6066729Y-15756008D02*
X6076253Y-15765531D01*
X6076253Y-15765531D02*
X6085777Y-15784579D01*
X6085777Y-15784579D02*
X6095301Y-15822674D01*
X6095301Y-15822674D02*
X6095301Y-15870293D01*
X6095301Y-15870293D02*
X6085777Y-15908388D01*
X6085777Y-15908388D02*
X6076253Y-15927436D01*
X6076253Y-15927436D02*
X6066729Y-15936960D01*
X6066729Y-15936960D02*
X6047682Y-15946484D01*
X6047682Y-15946484D02*
X6028634Y-15946484D01*
X6028634Y-15946484D02*
X6009586Y-15936960D01*
X6009586Y-15936960D02*
X6000063Y-15927436D01*
X6000063Y-15927436D02*
X5990539Y-15908388D01*
X5990539Y-15908388D02*
X5981015Y-15870293D01*
X5981015Y-15870293D02*
X5981015Y-15822674D01*
X5981015Y-15822674D02*
X5990539Y-15784579D01*
X5990539Y-15784579D02*
X6000063Y-15765531D01*
X6000063Y-15765531D02*
X6009586Y-15756008D01*
X6009586Y-15756008D02*
X6028634Y-15746484D01*
X6181015Y-15927436D02*
X6190539Y-15936960D01*
X6190539Y-15936960D02*
X6181015Y-15946484D01*
X6181015Y-15946484D02*
X6171491Y-15936960D01*
X6171491Y-15936960D02*
X6181015Y-15927436D01*
X6181015Y-15927436D02*
X6181015Y-15946484D01*
X6314348Y-15746484D02*
X6333396Y-15746484D01*
X6333396Y-15746484D02*
X6352444Y-15756008D01*
X6352444Y-15756008D02*
X6361967Y-15765531D01*
X6361967Y-15765531D02*
X6371491Y-15784579D01*
X6371491Y-15784579D02*
X6381015Y-15822674D01*
X6381015Y-15822674D02*
X6381015Y-15870293D01*
X6381015Y-15870293D02*
X6371491Y-15908388D01*
X6371491Y-15908388D02*
X6361967Y-15927436D01*
X6361967Y-15927436D02*
X6352444Y-15936960D01*
X6352444Y-15936960D02*
X6333396Y-15946484D01*
X6333396Y-15946484D02*
X6314348Y-15946484D01*
X6314348Y-15946484D02*
X6295301Y-15936960D01*
X6295301Y-15936960D02*
X6285777Y-15927436D01*
X6285777Y-15927436D02*
X6276253Y-15908388D01*
X6276253Y-15908388D02*
X6266729Y-15870293D01*
X6266729Y-15870293D02*
X6266729Y-15822674D01*
X6266729Y-15822674D02*
X6276253Y-15784579D01*
X6276253Y-15784579D02*
X6285777Y-15765531D01*
X6285777Y-15765531D02*
X6295301Y-15756008D01*
X6295301Y-15756008D02*
X6314348Y-15746484D01*
X6571491Y-15946484D02*
X6457206Y-15946484D01*
X6514348Y-15946484D02*
X6514348Y-15746484D01*
X6514348Y-15746484D02*
X6495301Y-15775055D01*
X6495301Y-15775055D02*
X6476253Y-15794103D01*
X6476253Y-15794103D02*
X6457206Y-15803627D01*
X6752444Y-15746484D02*
X6657206Y-15746484D01*
X6657206Y-15746484D02*
X6647682Y-15841722D01*
X6647682Y-15841722D02*
X6657206Y-15832198D01*
X6657206Y-15832198D02*
X6676253Y-15822674D01*
X6676253Y-15822674D02*
X6723872Y-15822674D01*
X6723872Y-15822674D02*
X6742920Y-15832198D01*
X6742920Y-15832198D02*
X6752444Y-15841722D01*
X6752444Y-15841722D02*
X6761967Y-15860769D01*
X6761967Y-15860769D02*
X6761967Y-15908388D01*
X6761967Y-15908388D02*
X6752444Y-15927436D01*
X6752444Y-15927436D02*
X6742920Y-15936960D01*
X6742920Y-15936960D02*
X6723872Y-15946484D01*
X6723872Y-15946484D02*
X6676253Y-15946484D01*
X6676253Y-15946484D02*
X6657206Y-15936960D01*
X6657206Y-15936960D02*
X6647682Y-15927436D01*
X6828634Y-15746484D02*
X6961967Y-15746484D01*
X6961967Y-15746484D02*
X6876253Y-15946484D01*
X7028634Y-15746484D02*
X7028634Y-15784579D01*
X7104825Y-15746484D02*
X7104825Y-15784579D01*
X7400063Y-16022674D02*
X7390539Y-16013150D01*
X7390539Y-16013150D02*
X7371491Y-15984579D01*
X7371491Y-15984579D02*
X7361968Y-15965531D01*
X7361968Y-15965531D02*
X7352444Y-15936960D01*
X7352444Y-15936960D02*
X7342920Y-15889341D01*
X7342920Y-15889341D02*
X7342920Y-15851246D01*
X7342920Y-15851246D02*
X7352444Y-15803627D01*
X7352444Y-15803627D02*
X7361968Y-15775055D01*
X7361968Y-15775055D02*
X7371491Y-15756008D01*
X7371491Y-15756008D02*
X7390539Y-15727436D01*
X7390539Y-15727436D02*
X7400063Y-15717912D01*
X7561968Y-15813150D02*
X7561968Y-15946484D01*
X7514348Y-15736960D02*
X7466729Y-15879817D01*
X7466729Y-15879817D02*
X7590539Y-15879817D01*
X7695301Y-15832198D02*
X7676253Y-15822674D01*
X7676253Y-15822674D02*
X7666729Y-15813150D01*
X7666729Y-15813150D02*
X7657206Y-15794103D01*
X7657206Y-15794103D02*
X7657206Y-15784579D01*
X7657206Y-15784579D02*
X7666729Y-15765531D01*
X7666729Y-15765531D02*
X7676253Y-15756008D01*
X7676253Y-15756008D02*
X7695301Y-15746484D01*
X7695301Y-15746484D02*
X7733396Y-15746484D01*
X7733396Y-15746484D02*
X7752444Y-15756008D01*
X7752444Y-15756008D02*
X7761968Y-15765531D01*
X7761968Y-15765531D02*
X7771491Y-15784579D01*
X7771491Y-15784579D02*
X7771491Y-15794103D01*
X7771491Y-15794103D02*
X7761968Y-15813150D01*
X7761968Y-15813150D02*
X7752444Y-15822674D01*
X7752444Y-15822674D02*
X7733396Y-15832198D01*
X7733396Y-15832198D02*
X7695301Y-15832198D01*
X7695301Y-15832198D02*
X7676253Y-15841722D01*
X7676253Y-15841722D02*
X7666729Y-15851246D01*
X7666729Y-15851246D02*
X7657206Y-15870293D01*
X7657206Y-15870293D02*
X7657206Y-15908388D01*
X7657206Y-15908388D02*
X7666729Y-15927436D01*
X7666729Y-15927436D02*
X7676253Y-15936960D01*
X7676253Y-15936960D02*
X7695301Y-15946484D01*
X7695301Y-15946484D02*
X7733396Y-15946484D01*
X7733396Y-15946484D02*
X7752444Y-15936960D01*
X7752444Y-15936960D02*
X7761968Y-15927436D01*
X7761968Y-15927436D02*
X7771491Y-15908388D01*
X7771491Y-15908388D02*
X7771491Y-15870293D01*
X7771491Y-15870293D02*
X7761968Y-15851246D01*
X7761968Y-15851246D02*
X7752444Y-15841722D01*
X7752444Y-15841722D02*
X7733396Y-15832198D01*
X7942920Y-15746484D02*
X7904825Y-15746484D01*
X7904825Y-15746484D02*
X7885777Y-15756008D01*
X7885777Y-15756008D02*
X7876253Y-15765531D01*
X7876253Y-15765531D02*
X7857206Y-15794103D01*
X7857206Y-15794103D02*
X7847682Y-15832198D01*
X7847682Y-15832198D02*
X7847682Y-15908388D01*
X7847682Y-15908388D02*
X7857206Y-15927436D01*
X7857206Y-15927436D02*
X7866729Y-15936960D01*
X7866729Y-15936960D02*
X7885777Y-15946484D01*
X7885777Y-15946484D02*
X7923872Y-15946484D01*
X7923872Y-15946484D02*
X7942920Y-15936960D01*
X7942920Y-15936960D02*
X7952444Y-15927436D01*
X7952444Y-15927436D02*
X7961968Y-15908388D01*
X7961968Y-15908388D02*
X7961968Y-15860769D01*
X7961968Y-15860769D02*
X7952444Y-15841722D01*
X7952444Y-15841722D02*
X7942920Y-15832198D01*
X7942920Y-15832198D02*
X7923872Y-15822674D01*
X7923872Y-15822674D02*
X7885777Y-15822674D01*
X7885777Y-15822674D02*
X7866729Y-15832198D01*
X7866729Y-15832198D02*
X7857206Y-15841722D01*
X7857206Y-15841722D02*
X7847682Y-15860769D01*
X8200063Y-15946484D02*
X8200063Y-15746484D01*
X8285777Y-15946484D02*
X8285777Y-15841722D01*
X8285777Y-15841722D02*
X8276253Y-15822674D01*
X8276253Y-15822674D02*
X8257206Y-15813150D01*
X8257206Y-15813150D02*
X8228634Y-15813150D01*
X8228634Y-15813150D02*
X8209587Y-15822674D01*
X8209587Y-15822674D02*
X8200063Y-15832198D01*
X8409587Y-15946484D02*
X8390539Y-15936960D01*
X8390539Y-15936960D02*
X8381015Y-15927436D01*
X8381015Y-15927436D02*
X8371491Y-15908388D01*
X8371491Y-15908388D02*
X8371491Y-15851246D01*
X8371491Y-15851246D02*
X8381015Y-15832198D01*
X8381015Y-15832198D02*
X8390539Y-15822674D01*
X8390539Y-15822674D02*
X8409587Y-15813150D01*
X8409587Y-15813150D02*
X8438158Y-15813150D01*
X8438158Y-15813150D02*
X8457206Y-15822674D01*
X8457206Y-15822674D02*
X8466730Y-15832198D01*
X8466730Y-15832198D02*
X8476253Y-15851246D01*
X8476253Y-15851246D02*
X8476253Y-15908388D01*
X8476253Y-15908388D02*
X8466730Y-15927436D01*
X8466730Y-15927436D02*
X8457206Y-15936960D01*
X8457206Y-15936960D02*
X8438158Y-15946484D01*
X8438158Y-15946484D02*
X8409587Y-15946484D01*
X8590539Y-15946484D02*
X8571492Y-15936960D01*
X8571492Y-15936960D02*
X8561968Y-15917912D01*
X8561968Y-15917912D02*
X8561968Y-15746484D01*
X8742920Y-15936960D02*
X8723873Y-15946484D01*
X8723873Y-15946484D02*
X8685777Y-15946484D01*
X8685777Y-15946484D02*
X8666730Y-15936960D01*
X8666730Y-15936960D02*
X8657206Y-15917912D01*
X8657206Y-15917912D02*
X8657206Y-15841722D01*
X8657206Y-15841722D02*
X8666730Y-15822674D01*
X8666730Y-15822674D02*
X8685777Y-15813150D01*
X8685777Y-15813150D02*
X8723873Y-15813150D01*
X8723873Y-15813150D02*
X8742920Y-15822674D01*
X8742920Y-15822674D02*
X8752444Y-15841722D01*
X8752444Y-15841722D02*
X8752444Y-15860769D01*
X8752444Y-15860769D02*
X8657206Y-15879817D01*
X8828634Y-15936960D02*
X8847682Y-15946484D01*
X8847682Y-15946484D02*
X8885777Y-15946484D01*
X8885777Y-15946484D02*
X8904825Y-15936960D01*
X8904825Y-15936960D02*
X8914349Y-15917912D01*
X8914349Y-15917912D02*
X8914349Y-15908388D01*
X8914349Y-15908388D02*
X8904825Y-15889341D01*
X8904825Y-15889341D02*
X8885777Y-15879817D01*
X8885777Y-15879817D02*
X8857206Y-15879817D01*
X8857206Y-15879817D02*
X8838158Y-15870293D01*
X8838158Y-15870293D02*
X8828634Y-15851246D01*
X8828634Y-15851246D02*
X8828634Y-15841722D01*
X8828634Y-15841722D02*
X8838158Y-15822674D01*
X8838158Y-15822674D02*
X8857206Y-15813150D01*
X8857206Y-15813150D02*
X8885777Y-15813150D01*
X8885777Y-15813150D02*
X8904825Y-15822674D01*
X8981015Y-16022674D02*
X8990539Y-16013150D01*
X8990539Y-16013150D02*
X9009587Y-15984579D01*
X9009587Y-15984579D02*
X9019111Y-15965531D01*
X9019111Y-15965531D02*
X9028634Y-15936960D01*
X9028634Y-15936960D02*
X9038158Y-15889341D01*
X9038158Y-15889341D02*
X9038158Y-15851246D01*
X9038158Y-15851246D02*
X9028634Y-15803627D01*
X9028634Y-15803627D02*
X9019111Y-15775055D01*
X9019111Y-15775055D02*
X9009587Y-15756008D01*
X9009587Y-15756008D02*
X8990539Y-15727436D01*
X8990539Y-15727436D02*
X8981015Y-15717912D01*
D13*
X3825000Y-16119000D02*
G75*
G03*
X3825000Y-16119000I-30000J0D01*
G01*
D11*
X4123872Y-16010484D02*
X4142920Y-16010484D01*
X4142920Y-16010484D02*
X4161967Y-16020008D01*
X4161967Y-16020008D02*
X4171491Y-16029531D01*
X4171491Y-16029531D02*
X4181015Y-16048579D01*
X4181015Y-16048579D02*
X4190539Y-16086674D01*
X4190539Y-16086674D02*
X4190539Y-16134293D01*
X4190539Y-16134293D02*
X4181015Y-16172388D01*
X4181015Y-16172388D02*
X4171491Y-16191436D01*
X4171491Y-16191436D02*
X4161967Y-16200960D01*
X4161967Y-16200960D02*
X4142920Y-16210484D01*
X4142920Y-16210484D02*
X4123872Y-16210484D01*
X4123872Y-16210484D02*
X4104824Y-16200960D01*
X4104824Y-16200960D02*
X4095301Y-16191436D01*
X4095301Y-16191436D02*
X4085777Y-16172388D01*
X4085777Y-16172388D02*
X4076253Y-16134293D01*
X4076253Y-16134293D02*
X4076253Y-16086674D01*
X4076253Y-16086674D02*
X4085777Y-16048579D01*
X4085777Y-16048579D02*
X4095301Y-16029531D01*
X4095301Y-16029531D02*
X4104824Y-16020008D01*
X4104824Y-16020008D02*
X4123872Y-16010484D01*
X4276253Y-16191436D02*
X4285777Y-16200960D01*
X4285777Y-16200960D02*
X4276253Y-16210484D01*
X4276253Y-16210484D02*
X4266729Y-16200960D01*
X4266729Y-16200960D02*
X4276253Y-16191436D01*
X4276253Y-16191436D02*
X4276253Y-16210484D01*
X4457205Y-16010484D02*
X4419110Y-16010484D01*
X4419110Y-16010484D02*
X4400063Y-16020008D01*
X4400063Y-16020008D02*
X4390539Y-16029531D01*
X4390539Y-16029531D02*
X4371491Y-16058103D01*
X4371491Y-16058103D02*
X4361967Y-16096198D01*
X4361967Y-16096198D02*
X4361967Y-16172388D01*
X4361967Y-16172388D02*
X4371491Y-16191436D01*
X4371491Y-16191436D02*
X4381015Y-16200960D01*
X4381015Y-16200960D02*
X4400063Y-16210484D01*
X4400063Y-16210484D02*
X4438158Y-16210484D01*
X4438158Y-16210484D02*
X4457205Y-16200960D01*
X4457205Y-16200960D02*
X4466729Y-16191436D01*
X4466729Y-16191436D02*
X4476253Y-16172388D01*
X4476253Y-16172388D02*
X4476253Y-16124769D01*
X4476253Y-16124769D02*
X4466729Y-16105722D01*
X4466729Y-16105722D02*
X4457205Y-16096198D01*
X4457205Y-16096198D02*
X4438158Y-16086674D01*
X4438158Y-16086674D02*
X4400063Y-16086674D01*
X4400063Y-16086674D02*
X4381015Y-16096198D01*
X4381015Y-16096198D02*
X4371491Y-16105722D01*
X4371491Y-16105722D02*
X4361967Y-16124769D01*
X4600063Y-16010484D02*
X4619110Y-16010484D01*
X4619110Y-16010484D02*
X4638158Y-16020008D01*
X4638158Y-16020008D02*
X4647682Y-16029531D01*
X4647682Y-16029531D02*
X4657205Y-16048579D01*
X4657205Y-16048579D02*
X4666729Y-16086674D01*
X4666729Y-16086674D02*
X4666729Y-16134293D01*
X4666729Y-16134293D02*
X4657205Y-16172388D01*
X4657205Y-16172388D02*
X4647682Y-16191436D01*
X4647682Y-16191436D02*
X4638158Y-16200960D01*
X4638158Y-16200960D02*
X4619110Y-16210484D01*
X4619110Y-16210484D02*
X4600063Y-16210484D01*
X4600063Y-16210484D02*
X4581015Y-16200960D01*
X4581015Y-16200960D02*
X4571491Y-16191436D01*
X4571491Y-16191436D02*
X4561967Y-16172388D01*
X4561967Y-16172388D02*
X4552444Y-16134293D01*
X4552444Y-16134293D02*
X4552444Y-16086674D01*
X4552444Y-16086674D02*
X4561967Y-16048579D01*
X4561967Y-16048579D02*
X4571491Y-16029531D01*
X4571491Y-16029531D02*
X4581015Y-16020008D01*
X4581015Y-16020008D02*
X4600063Y-16010484D01*
X4790539Y-16010484D02*
X4809586Y-16010484D01*
X4809586Y-16010484D02*
X4828634Y-16020008D01*
X4828634Y-16020008D02*
X4838158Y-16029531D01*
X4838158Y-16029531D02*
X4847682Y-16048579D01*
X4847682Y-16048579D02*
X4857205Y-16086674D01*
X4857205Y-16086674D02*
X4857205Y-16134293D01*
X4857205Y-16134293D02*
X4847682Y-16172388D01*
X4847682Y-16172388D02*
X4838158Y-16191436D01*
X4838158Y-16191436D02*
X4828634Y-16200960D01*
X4828634Y-16200960D02*
X4809586Y-16210484D01*
X4809586Y-16210484D02*
X4790539Y-16210484D01*
X4790539Y-16210484D02*
X4771491Y-16200960D01*
X4771491Y-16200960D02*
X4761967Y-16191436D01*
X4761967Y-16191436D02*
X4752444Y-16172388D01*
X4752444Y-16172388D02*
X4742920Y-16134293D01*
X4742920Y-16134293D02*
X4742920Y-16086674D01*
X4742920Y-16086674D02*
X4752444Y-16048579D01*
X4752444Y-16048579D02*
X4761967Y-16029531D01*
X4761967Y-16029531D02*
X4771491Y-16020008D01*
X4771491Y-16020008D02*
X4790539Y-16010484D01*
X4942920Y-16210484D02*
X4942920Y-16077150D01*
X4942920Y-16096198D02*
X4952444Y-16086674D01*
X4952444Y-16086674D02*
X4971491Y-16077150D01*
X4971491Y-16077150D02*
X5000063Y-16077150D01*
X5000063Y-16077150D02*
X5019110Y-16086674D01*
X5019110Y-16086674D02*
X5028634Y-16105722D01*
X5028634Y-16105722D02*
X5028634Y-16210484D01*
X5028634Y-16105722D02*
X5038158Y-16086674D01*
X5038158Y-16086674D02*
X5057205Y-16077150D01*
X5057205Y-16077150D02*
X5085777Y-16077150D01*
X5085777Y-16077150D02*
X5104825Y-16086674D01*
X5104825Y-16086674D02*
X5114348Y-16105722D01*
X5114348Y-16105722D02*
X5114348Y-16210484D01*
X5209586Y-16210484D02*
X5209586Y-16077150D01*
X5209586Y-16096198D02*
X5219110Y-16086674D01*
X5219110Y-16086674D02*
X5238158Y-16077150D01*
X5238158Y-16077150D02*
X5266729Y-16077150D01*
X5266729Y-16077150D02*
X5285777Y-16086674D01*
X5285777Y-16086674D02*
X5295301Y-16105722D01*
X5295301Y-16105722D02*
X5295301Y-16210484D01*
X5295301Y-16105722D02*
X5304825Y-16086674D01*
X5304825Y-16086674D02*
X5323872Y-16077150D01*
X5323872Y-16077150D02*
X5352444Y-16077150D01*
X5352444Y-16077150D02*
X5371491Y-16086674D01*
X5371491Y-16086674D02*
X5381015Y-16105722D01*
X5381015Y-16105722D02*
X5381015Y-16210484D01*
X5771491Y-16000960D02*
X5600063Y-16258103D01*
X6028634Y-16010484D02*
X6047682Y-16010484D01*
X6047682Y-16010484D02*
X6066729Y-16020008D01*
X6066729Y-16020008D02*
X6076253Y-16029531D01*
X6076253Y-16029531D02*
X6085777Y-16048579D01*
X6085777Y-16048579D02*
X6095301Y-16086674D01*
X6095301Y-16086674D02*
X6095301Y-16134293D01*
X6095301Y-16134293D02*
X6085777Y-16172388D01*
X6085777Y-16172388D02*
X6076253Y-16191436D01*
X6076253Y-16191436D02*
X6066729Y-16200960D01*
X6066729Y-16200960D02*
X6047682Y-16210484D01*
X6047682Y-16210484D02*
X6028634Y-16210484D01*
X6028634Y-16210484D02*
X6009586Y-16200960D01*
X6009586Y-16200960D02*
X6000063Y-16191436D01*
X6000063Y-16191436D02*
X5990539Y-16172388D01*
X5990539Y-16172388D02*
X5981015Y-16134293D01*
X5981015Y-16134293D02*
X5981015Y-16086674D01*
X5981015Y-16086674D02*
X5990539Y-16048579D01*
X5990539Y-16048579D02*
X6000063Y-16029531D01*
X6000063Y-16029531D02*
X6009586Y-16020008D01*
X6009586Y-16020008D02*
X6028634Y-16010484D01*
X6181015Y-16191436D02*
X6190539Y-16200960D01*
X6190539Y-16200960D02*
X6181015Y-16210484D01*
X6181015Y-16210484D02*
X6171491Y-16200960D01*
X6171491Y-16200960D02*
X6181015Y-16191436D01*
X6181015Y-16191436D02*
X6181015Y-16210484D01*
X6314348Y-16010484D02*
X6333396Y-16010484D01*
X6333396Y-16010484D02*
X6352444Y-16020008D01*
X6352444Y-16020008D02*
X6361967Y-16029531D01*
X6361967Y-16029531D02*
X6371491Y-16048579D01*
X6371491Y-16048579D02*
X6381015Y-16086674D01*
X6381015Y-16086674D02*
X6381015Y-16134293D01*
X6381015Y-16134293D02*
X6371491Y-16172388D01*
X6371491Y-16172388D02*
X6361967Y-16191436D01*
X6361967Y-16191436D02*
X6352444Y-16200960D01*
X6352444Y-16200960D02*
X6333396Y-16210484D01*
X6333396Y-16210484D02*
X6314348Y-16210484D01*
X6314348Y-16210484D02*
X6295301Y-16200960D01*
X6295301Y-16200960D02*
X6285777Y-16191436D01*
X6285777Y-16191436D02*
X6276253Y-16172388D01*
X6276253Y-16172388D02*
X6266729Y-16134293D01*
X6266729Y-16134293D02*
X6266729Y-16086674D01*
X6266729Y-16086674D02*
X6276253Y-16048579D01*
X6276253Y-16048579D02*
X6285777Y-16029531D01*
X6285777Y-16029531D02*
X6295301Y-16020008D01*
X6295301Y-16020008D02*
X6314348Y-16010484D01*
X6457206Y-16029531D02*
X6466729Y-16020008D01*
X6466729Y-16020008D02*
X6485777Y-16010484D01*
X6485777Y-16010484D02*
X6533396Y-16010484D01*
X6533396Y-16010484D02*
X6552444Y-16020008D01*
X6552444Y-16020008D02*
X6561967Y-16029531D01*
X6561967Y-16029531D02*
X6571491Y-16048579D01*
X6571491Y-16048579D02*
X6571491Y-16067627D01*
X6571491Y-16067627D02*
X6561967Y-16096198D01*
X6561967Y-16096198D02*
X6447682Y-16210484D01*
X6447682Y-16210484D02*
X6571491Y-16210484D01*
X6638158Y-16010484D02*
X6761967Y-16010484D01*
X6761967Y-16010484D02*
X6695301Y-16086674D01*
X6695301Y-16086674D02*
X6723872Y-16086674D01*
X6723872Y-16086674D02*
X6742920Y-16096198D01*
X6742920Y-16096198D02*
X6752444Y-16105722D01*
X6752444Y-16105722D02*
X6761967Y-16124769D01*
X6761967Y-16124769D02*
X6761967Y-16172388D01*
X6761967Y-16172388D02*
X6752444Y-16191436D01*
X6752444Y-16191436D02*
X6742920Y-16200960D01*
X6742920Y-16200960D02*
X6723872Y-16210484D01*
X6723872Y-16210484D02*
X6666729Y-16210484D01*
X6666729Y-16210484D02*
X6647682Y-16200960D01*
X6647682Y-16200960D02*
X6638158Y-16191436D01*
X6933396Y-16010484D02*
X6895301Y-16010484D01*
X6895301Y-16010484D02*
X6876253Y-16020008D01*
X6876253Y-16020008D02*
X6866729Y-16029531D01*
X6866729Y-16029531D02*
X6847682Y-16058103D01*
X6847682Y-16058103D02*
X6838158Y-16096198D01*
X6838158Y-16096198D02*
X6838158Y-16172388D01*
X6838158Y-16172388D02*
X6847682Y-16191436D01*
X6847682Y-16191436D02*
X6857206Y-16200960D01*
X6857206Y-16200960D02*
X6876253Y-16210484D01*
X6876253Y-16210484D02*
X6914348Y-16210484D01*
X6914348Y-16210484D02*
X6933396Y-16200960D01*
X6933396Y-16200960D02*
X6942920Y-16191436D01*
X6942920Y-16191436D02*
X6952444Y-16172388D01*
X6952444Y-16172388D02*
X6952444Y-16124769D01*
X6952444Y-16124769D02*
X6942920Y-16105722D01*
X6942920Y-16105722D02*
X6933396Y-16096198D01*
X6933396Y-16096198D02*
X6914348Y-16086674D01*
X6914348Y-16086674D02*
X6876253Y-16086674D01*
X6876253Y-16086674D02*
X6857206Y-16096198D01*
X6857206Y-16096198D02*
X6847682Y-16105722D01*
X6847682Y-16105722D02*
X6838158Y-16124769D01*
X7028634Y-16010484D02*
X7028634Y-16048579D01*
X7104825Y-16010484D02*
X7104825Y-16048579D01*
X7400063Y-16286674D02*
X7390539Y-16277150D01*
X7390539Y-16277150D02*
X7371491Y-16248579D01*
X7371491Y-16248579D02*
X7361968Y-16229531D01*
X7361968Y-16229531D02*
X7352444Y-16200960D01*
X7352444Y-16200960D02*
X7342920Y-16153341D01*
X7342920Y-16153341D02*
X7342920Y-16115246D01*
X7342920Y-16115246D02*
X7352444Y-16067627D01*
X7352444Y-16067627D02*
X7361968Y-16039055D01*
X7361968Y-16039055D02*
X7371491Y-16020008D01*
X7371491Y-16020008D02*
X7390539Y-15991436D01*
X7390539Y-15991436D02*
X7400063Y-15981912D01*
X7514348Y-16010484D02*
X7533396Y-16010484D01*
X7533396Y-16010484D02*
X7552444Y-16020008D01*
X7552444Y-16020008D02*
X7561968Y-16029531D01*
X7561968Y-16029531D02*
X7571491Y-16048579D01*
X7571491Y-16048579D02*
X7581015Y-16086674D01*
X7581015Y-16086674D02*
X7581015Y-16134293D01*
X7581015Y-16134293D02*
X7571491Y-16172388D01*
X7571491Y-16172388D02*
X7561968Y-16191436D01*
X7561968Y-16191436D02*
X7552444Y-16200960D01*
X7552444Y-16200960D02*
X7533396Y-16210484D01*
X7533396Y-16210484D02*
X7514348Y-16210484D01*
X7514348Y-16210484D02*
X7495301Y-16200960D01*
X7495301Y-16200960D02*
X7485777Y-16191436D01*
X7485777Y-16191436D02*
X7476253Y-16172388D01*
X7476253Y-16172388D02*
X7466729Y-16134293D01*
X7466729Y-16134293D02*
X7466729Y-16086674D01*
X7466729Y-16086674D02*
X7476253Y-16048579D01*
X7476253Y-16048579D02*
X7485777Y-16029531D01*
X7485777Y-16029531D02*
X7495301Y-16020008D01*
X7495301Y-16020008D02*
X7514348Y-16010484D01*
X7819110Y-16210484D02*
X7819110Y-16010484D01*
X7904825Y-16210484D02*
X7904825Y-16105722D01*
X7904825Y-16105722D02*
X7895301Y-16086674D01*
X7895301Y-16086674D02*
X7876253Y-16077150D01*
X7876253Y-16077150D02*
X7847682Y-16077150D01*
X7847682Y-16077150D02*
X7828634Y-16086674D01*
X7828634Y-16086674D02*
X7819110Y-16096198D01*
X8028634Y-16210484D02*
X8009587Y-16200960D01*
X8009587Y-16200960D02*
X8000063Y-16191436D01*
X8000063Y-16191436D02*
X7990539Y-16172388D01*
X7990539Y-16172388D02*
X7990539Y-16115246D01*
X7990539Y-16115246D02*
X8000063Y-16096198D01*
X8000063Y-16096198D02*
X8009587Y-16086674D01*
X8009587Y-16086674D02*
X8028634Y-16077150D01*
X8028634Y-16077150D02*
X8057206Y-16077150D01*
X8057206Y-16077150D02*
X8076253Y-16086674D01*
X8076253Y-16086674D02*
X8085777Y-16096198D01*
X8085777Y-16096198D02*
X8095301Y-16115246D01*
X8095301Y-16115246D02*
X8095301Y-16172388D01*
X8095301Y-16172388D02*
X8085777Y-16191436D01*
X8085777Y-16191436D02*
X8076253Y-16200960D01*
X8076253Y-16200960D02*
X8057206Y-16210484D01*
X8057206Y-16210484D02*
X8028634Y-16210484D01*
X8209587Y-16210484D02*
X8190539Y-16200960D01*
X8190539Y-16200960D02*
X8181015Y-16181912D01*
X8181015Y-16181912D02*
X8181015Y-16010484D01*
X8361968Y-16200960D02*
X8342920Y-16210484D01*
X8342920Y-16210484D02*
X8304825Y-16210484D01*
X8304825Y-16210484D02*
X8285777Y-16200960D01*
X8285777Y-16200960D02*
X8276253Y-16181912D01*
X8276253Y-16181912D02*
X8276253Y-16105722D01*
X8276253Y-16105722D02*
X8285777Y-16086674D01*
X8285777Y-16086674D02*
X8304825Y-16077150D01*
X8304825Y-16077150D02*
X8342920Y-16077150D01*
X8342920Y-16077150D02*
X8361968Y-16086674D01*
X8361968Y-16086674D02*
X8371491Y-16105722D01*
X8371491Y-16105722D02*
X8371491Y-16124769D01*
X8371491Y-16124769D02*
X8276253Y-16143817D01*
X8447682Y-16200960D02*
X8466730Y-16210484D01*
X8466730Y-16210484D02*
X8504825Y-16210484D01*
X8504825Y-16210484D02*
X8523873Y-16200960D01*
X8523873Y-16200960D02*
X8533396Y-16181912D01*
X8533396Y-16181912D02*
X8533396Y-16172388D01*
X8533396Y-16172388D02*
X8523873Y-16153341D01*
X8523873Y-16153341D02*
X8504825Y-16143817D01*
X8504825Y-16143817D02*
X8476253Y-16143817D01*
X8476253Y-16143817D02*
X8457206Y-16134293D01*
X8457206Y-16134293D02*
X8447682Y-16115246D01*
X8447682Y-16115246D02*
X8447682Y-16105722D01*
X8447682Y-16105722D02*
X8457206Y-16086674D01*
X8457206Y-16086674D02*
X8476253Y-16077150D01*
X8476253Y-16077150D02*
X8504825Y-16077150D01*
X8504825Y-16077150D02*
X8523873Y-16086674D01*
X8771492Y-16134293D02*
X8923873Y-16134293D01*
X8847682Y-16210484D02*
X8847682Y-16058103D01*
X9257206Y-16077150D02*
X9257206Y-16210484D01*
X9209587Y-16000960D02*
X9161968Y-16143817D01*
X9161968Y-16143817D02*
X9285777Y-16143817D01*
X9504825Y-16200960D02*
X9523873Y-16210484D01*
X9523873Y-16210484D02*
X9561968Y-16210484D01*
X9561968Y-16210484D02*
X9581016Y-16200960D01*
X9581016Y-16200960D02*
X9590539Y-16181912D01*
X9590539Y-16181912D02*
X9590539Y-16172388D01*
X9590539Y-16172388D02*
X9581016Y-16153341D01*
X9581016Y-16153341D02*
X9561968Y-16143817D01*
X9561968Y-16143817D02*
X9533396Y-16143817D01*
X9533396Y-16143817D02*
X9514349Y-16134293D01*
X9514349Y-16134293D02*
X9504825Y-16115246D01*
X9504825Y-16115246D02*
X9504825Y-16105722D01*
X9504825Y-16105722D02*
X9514349Y-16086674D01*
X9514349Y-16086674D02*
X9533396Y-16077150D01*
X9533396Y-16077150D02*
X9561968Y-16077150D01*
X9561968Y-16077150D02*
X9581016Y-16086674D01*
X9704825Y-16210484D02*
X9685777Y-16200960D01*
X9685777Y-16200960D02*
X9676254Y-16181912D01*
X9676254Y-16181912D02*
X9676254Y-16010484D01*
X9809587Y-16210484D02*
X9790539Y-16200960D01*
X9790539Y-16200960D02*
X9781016Y-16191436D01*
X9781016Y-16191436D02*
X9771492Y-16172388D01*
X9771492Y-16172388D02*
X9771492Y-16115246D01*
X9771492Y-16115246D02*
X9781016Y-16096198D01*
X9781016Y-16096198D02*
X9790539Y-16086674D01*
X9790539Y-16086674D02*
X9809587Y-16077150D01*
X9809587Y-16077150D02*
X9838158Y-16077150D01*
X9838158Y-16077150D02*
X9857206Y-16086674D01*
X9857206Y-16086674D02*
X9866730Y-16096198D01*
X9866730Y-16096198D02*
X9876254Y-16115246D01*
X9876254Y-16115246D02*
X9876254Y-16172388D01*
X9876254Y-16172388D02*
X9866730Y-16191436D01*
X9866730Y-16191436D02*
X9857206Y-16200960D01*
X9857206Y-16200960D02*
X9838158Y-16210484D01*
X9838158Y-16210484D02*
X9809587Y-16210484D01*
X9933397Y-16077150D02*
X10009587Y-16077150D01*
X9961968Y-16010484D02*
X9961968Y-16181912D01*
X9961968Y-16181912D02*
X9971492Y-16200960D01*
X9971492Y-16200960D02*
X9990539Y-16210484D01*
X9990539Y-16210484D02*
X10009587Y-16210484D01*
X10066730Y-16200960D02*
X10085777Y-16210484D01*
X10085777Y-16210484D02*
X10123873Y-16210484D01*
X10123873Y-16210484D02*
X10142920Y-16200960D01*
X10142920Y-16200960D02*
X10152444Y-16181912D01*
X10152444Y-16181912D02*
X10152444Y-16172388D01*
X10152444Y-16172388D02*
X10142920Y-16153341D01*
X10142920Y-16153341D02*
X10123873Y-16143817D01*
X10123873Y-16143817D02*
X10095301Y-16143817D01*
X10095301Y-16143817D02*
X10076254Y-16134293D01*
X10076254Y-16134293D02*
X10066730Y-16115246D01*
X10066730Y-16115246D02*
X10066730Y-16105722D01*
X10066730Y-16105722D02*
X10076254Y-16086674D01*
X10076254Y-16086674D02*
X10095301Y-16077150D01*
X10095301Y-16077150D02*
X10123873Y-16077150D01*
X10123873Y-16077150D02*
X10142920Y-16086674D01*
X10219111Y-16286674D02*
X10228635Y-16277150D01*
X10228635Y-16277150D02*
X10247682Y-16248579D01*
X10247682Y-16248579D02*
X10257206Y-16229531D01*
X10257206Y-16229531D02*
X10266730Y-16200960D01*
X10266730Y-16200960D02*
X10276254Y-16153341D01*
X10276254Y-16153341D02*
X10276254Y-16115246D01*
X10276254Y-16115246D02*
X10266730Y-16067627D01*
X10266730Y-16067627D02*
X10257206Y-16039055D01*
X10257206Y-16039055D02*
X10247682Y-16020008D01*
X10247682Y-16020008D02*
X10228635Y-15991436D01*
X10228635Y-15991436D02*
X10219111Y-15981912D01*
D10*
X3775000Y-16333000D02*
X3775000Y-16433000D01*
X3725000Y-16383000D02*
X3825000Y-16383000D01*
D11*
X4190539Y-16474484D02*
X4076253Y-16474484D01*
X4133396Y-16474484D02*
X4133396Y-16274484D01*
X4133396Y-16274484D02*
X4114348Y-16303055D01*
X4114348Y-16303055D02*
X4095301Y-16322103D01*
X4095301Y-16322103D02*
X4076253Y-16331627D01*
X4276253Y-16455436D02*
X4285777Y-16464960D01*
X4285777Y-16464960D02*
X4276253Y-16474484D01*
X4276253Y-16474484D02*
X4266729Y-16464960D01*
X4266729Y-16464960D02*
X4276253Y-16455436D01*
X4276253Y-16455436D02*
X4276253Y-16474484D01*
X4409586Y-16274484D02*
X4428634Y-16274484D01*
X4428634Y-16274484D02*
X4447682Y-16284008D01*
X4447682Y-16284008D02*
X4457205Y-16293531D01*
X4457205Y-16293531D02*
X4466729Y-16312579D01*
X4466729Y-16312579D02*
X4476253Y-16350674D01*
X4476253Y-16350674D02*
X4476253Y-16398293D01*
X4476253Y-16398293D02*
X4466729Y-16436388D01*
X4466729Y-16436388D02*
X4457205Y-16455436D01*
X4457205Y-16455436D02*
X4447682Y-16464960D01*
X4447682Y-16464960D02*
X4428634Y-16474484D01*
X4428634Y-16474484D02*
X4409586Y-16474484D01*
X4409586Y-16474484D02*
X4390539Y-16464960D01*
X4390539Y-16464960D02*
X4381015Y-16455436D01*
X4381015Y-16455436D02*
X4371491Y-16436388D01*
X4371491Y-16436388D02*
X4361967Y-16398293D01*
X4361967Y-16398293D02*
X4361967Y-16350674D01*
X4361967Y-16350674D02*
X4371491Y-16312579D01*
X4371491Y-16312579D02*
X4381015Y-16293531D01*
X4381015Y-16293531D02*
X4390539Y-16284008D01*
X4390539Y-16284008D02*
X4409586Y-16274484D01*
X4600063Y-16274484D02*
X4619110Y-16274484D01*
X4619110Y-16274484D02*
X4638158Y-16284008D01*
X4638158Y-16284008D02*
X4647682Y-16293531D01*
X4647682Y-16293531D02*
X4657205Y-16312579D01*
X4657205Y-16312579D02*
X4666729Y-16350674D01*
X4666729Y-16350674D02*
X4666729Y-16398293D01*
X4666729Y-16398293D02*
X4657205Y-16436388D01*
X4657205Y-16436388D02*
X4647682Y-16455436D01*
X4647682Y-16455436D02*
X4638158Y-16464960D01*
X4638158Y-16464960D02*
X4619110Y-16474484D01*
X4619110Y-16474484D02*
X4600063Y-16474484D01*
X4600063Y-16474484D02*
X4581015Y-16464960D01*
X4581015Y-16464960D02*
X4571491Y-16455436D01*
X4571491Y-16455436D02*
X4561967Y-16436388D01*
X4561967Y-16436388D02*
X4552444Y-16398293D01*
X4552444Y-16398293D02*
X4552444Y-16350674D01*
X4552444Y-16350674D02*
X4561967Y-16312579D01*
X4561967Y-16312579D02*
X4571491Y-16293531D01*
X4571491Y-16293531D02*
X4581015Y-16284008D01*
X4581015Y-16284008D02*
X4600063Y-16274484D01*
X4790539Y-16274484D02*
X4809586Y-16274484D01*
X4809586Y-16274484D02*
X4828634Y-16284008D01*
X4828634Y-16284008D02*
X4838158Y-16293531D01*
X4838158Y-16293531D02*
X4847682Y-16312579D01*
X4847682Y-16312579D02*
X4857205Y-16350674D01*
X4857205Y-16350674D02*
X4857205Y-16398293D01*
X4857205Y-16398293D02*
X4847682Y-16436388D01*
X4847682Y-16436388D02*
X4838158Y-16455436D01*
X4838158Y-16455436D02*
X4828634Y-16464960D01*
X4828634Y-16464960D02*
X4809586Y-16474484D01*
X4809586Y-16474484D02*
X4790539Y-16474484D01*
X4790539Y-16474484D02*
X4771491Y-16464960D01*
X4771491Y-16464960D02*
X4761967Y-16455436D01*
X4761967Y-16455436D02*
X4752444Y-16436388D01*
X4752444Y-16436388D02*
X4742920Y-16398293D01*
X4742920Y-16398293D02*
X4742920Y-16350674D01*
X4742920Y-16350674D02*
X4752444Y-16312579D01*
X4752444Y-16312579D02*
X4761967Y-16293531D01*
X4761967Y-16293531D02*
X4771491Y-16284008D01*
X4771491Y-16284008D02*
X4790539Y-16274484D01*
X4942920Y-16474484D02*
X4942920Y-16341150D01*
X4942920Y-16360198D02*
X4952444Y-16350674D01*
X4952444Y-16350674D02*
X4971491Y-16341150D01*
X4971491Y-16341150D02*
X5000063Y-16341150D01*
X5000063Y-16341150D02*
X5019110Y-16350674D01*
X5019110Y-16350674D02*
X5028634Y-16369722D01*
X5028634Y-16369722D02*
X5028634Y-16474484D01*
X5028634Y-16369722D02*
X5038158Y-16350674D01*
X5038158Y-16350674D02*
X5057205Y-16341150D01*
X5057205Y-16341150D02*
X5085777Y-16341150D01*
X5085777Y-16341150D02*
X5104825Y-16350674D01*
X5104825Y-16350674D02*
X5114348Y-16369722D01*
X5114348Y-16369722D02*
X5114348Y-16474484D01*
X5209586Y-16474484D02*
X5209586Y-16341150D01*
X5209586Y-16360198D02*
X5219110Y-16350674D01*
X5219110Y-16350674D02*
X5238158Y-16341150D01*
X5238158Y-16341150D02*
X5266729Y-16341150D01*
X5266729Y-16341150D02*
X5285777Y-16350674D01*
X5285777Y-16350674D02*
X5295301Y-16369722D01*
X5295301Y-16369722D02*
X5295301Y-16474484D01*
X5295301Y-16369722D02*
X5304825Y-16350674D01*
X5304825Y-16350674D02*
X5323872Y-16341150D01*
X5323872Y-16341150D02*
X5352444Y-16341150D01*
X5352444Y-16341150D02*
X5371491Y-16350674D01*
X5371491Y-16350674D02*
X5381015Y-16369722D01*
X5381015Y-16369722D02*
X5381015Y-16474484D01*
X5771491Y-16264960D02*
X5600063Y-16522103D01*
X6028634Y-16274484D02*
X6047682Y-16274484D01*
X6047682Y-16274484D02*
X6066729Y-16284008D01*
X6066729Y-16284008D02*
X6076253Y-16293531D01*
X6076253Y-16293531D02*
X6085777Y-16312579D01*
X6085777Y-16312579D02*
X6095301Y-16350674D01*
X6095301Y-16350674D02*
X6095301Y-16398293D01*
X6095301Y-16398293D02*
X6085777Y-16436388D01*
X6085777Y-16436388D02*
X6076253Y-16455436D01*
X6076253Y-16455436D02*
X6066729Y-16464960D01*
X6066729Y-16464960D02*
X6047682Y-16474484D01*
X6047682Y-16474484D02*
X6028634Y-16474484D01*
X6028634Y-16474484D02*
X6009586Y-16464960D01*
X6009586Y-16464960D02*
X6000063Y-16455436D01*
X6000063Y-16455436D02*
X5990539Y-16436388D01*
X5990539Y-16436388D02*
X5981015Y-16398293D01*
X5981015Y-16398293D02*
X5981015Y-16350674D01*
X5981015Y-16350674D02*
X5990539Y-16312579D01*
X5990539Y-16312579D02*
X6000063Y-16293531D01*
X6000063Y-16293531D02*
X6009586Y-16284008D01*
X6009586Y-16284008D02*
X6028634Y-16274484D01*
X6181015Y-16455436D02*
X6190539Y-16464960D01*
X6190539Y-16464960D02*
X6181015Y-16474484D01*
X6181015Y-16474484D02*
X6171491Y-16464960D01*
X6171491Y-16464960D02*
X6181015Y-16455436D01*
X6181015Y-16455436D02*
X6181015Y-16474484D01*
X6314348Y-16274484D02*
X6333396Y-16274484D01*
X6333396Y-16274484D02*
X6352444Y-16284008D01*
X6352444Y-16284008D02*
X6361967Y-16293531D01*
X6361967Y-16293531D02*
X6371491Y-16312579D01*
X6371491Y-16312579D02*
X6381015Y-16350674D01*
X6381015Y-16350674D02*
X6381015Y-16398293D01*
X6381015Y-16398293D02*
X6371491Y-16436388D01*
X6371491Y-16436388D02*
X6361967Y-16455436D01*
X6361967Y-16455436D02*
X6352444Y-16464960D01*
X6352444Y-16464960D02*
X6333396Y-16474484D01*
X6333396Y-16474484D02*
X6314348Y-16474484D01*
X6314348Y-16474484D02*
X6295301Y-16464960D01*
X6295301Y-16464960D02*
X6285777Y-16455436D01*
X6285777Y-16455436D02*
X6276253Y-16436388D01*
X6276253Y-16436388D02*
X6266729Y-16398293D01*
X6266729Y-16398293D02*
X6266729Y-16350674D01*
X6266729Y-16350674D02*
X6276253Y-16312579D01*
X6276253Y-16312579D02*
X6285777Y-16293531D01*
X6285777Y-16293531D02*
X6295301Y-16284008D01*
X6295301Y-16284008D02*
X6314348Y-16274484D01*
X6447682Y-16274484D02*
X6571491Y-16274484D01*
X6571491Y-16274484D02*
X6504825Y-16350674D01*
X6504825Y-16350674D02*
X6533396Y-16350674D01*
X6533396Y-16350674D02*
X6552444Y-16360198D01*
X6552444Y-16360198D02*
X6561967Y-16369722D01*
X6561967Y-16369722D02*
X6571491Y-16388769D01*
X6571491Y-16388769D02*
X6571491Y-16436388D01*
X6571491Y-16436388D02*
X6561967Y-16455436D01*
X6561967Y-16455436D02*
X6552444Y-16464960D01*
X6552444Y-16464960D02*
X6533396Y-16474484D01*
X6533396Y-16474484D02*
X6476253Y-16474484D01*
X6476253Y-16474484D02*
X6457206Y-16464960D01*
X6457206Y-16464960D02*
X6447682Y-16455436D01*
X6666729Y-16474484D02*
X6704825Y-16474484D01*
X6704825Y-16474484D02*
X6723872Y-16464960D01*
X6723872Y-16464960D02*
X6733396Y-16455436D01*
X6733396Y-16455436D02*
X6752444Y-16426865D01*
X6752444Y-16426865D02*
X6761967Y-16388769D01*
X6761967Y-16388769D02*
X6761967Y-16312579D01*
X6761967Y-16312579D02*
X6752444Y-16293531D01*
X6752444Y-16293531D02*
X6742920Y-16284008D01*
X6742920Y-16284008D02*
X6723872Y-16274484D01*
X6723872Y-16274484D02*
X6685777Y-16274484D01*
X6685777Y-16274484D02*
X6666729Y-16284008D01*
X6666729Y-16284008D02*
X6657206Y-16293531D01*
X6657206Y-16293531D02*
X6647682Y-16312579D01*
X6647682Y-16312579D02*
X6647682Y-16360198D01*
X6647682Y-16360198D02*
X6657206Y-16379246D01*
X6657206Y-16379246D02*
X6666729Y-16388769D01*
X6666729Y-16388769D02*
X6685777Y-16398293D01*
X6685777Y-16398293D02*
X6723872Y-16398293D01*
X6723872Y-16398293D02*
X6742920Y-16388769D01*
X6742920Y-16388769D02*
X6752444Y-16379246D01*
X6752444Y-16379246D02*
X6761967Y-16360198D01*
X6933396Y-16341150D02*
X6933396Y-16474484D01*
X6885777Y-16264960D02*
X6838158Y-16407817D01*
X6838158Y-16407817D02*
X6961967Y-16407817D01*
X7028634Y-16274484D02*
X7028634Y-16312579D01*
X7104825Y-16274484D02*
X7104825Y-16312579D01*
X7400063Y-16550674D02*
X7390539Y-16541150D01*
X7390539Y-16541150D02*
X7371491Y-16512579D01*
X7371491Y-16512579D02*
X7361968Y-16493531D01*
X7361968Y-16493531D02*
X7352444Y-16464960D01*
X7352444Y-16464960D02*
X7342920Y-16417341D01*
X7342920Y-16417341D02*
X7342920Y-16379246D01*
X7342920Y-16379246D02*
X7352444Y-16331627D01*
X7352444Y-16331627D02*
X7361968Y-16303055D01*
X7361968Y-16303055D02*
X7371491Y-16284008D01*
X7371491Y-16284008D02*
X7390539Y-16255436D01*
X7390539Y-16255436D02*
X7400063Y-16245912D01*
X7581015Y-16474484D02*
X7466729Y-16474484D01*
X7523872Y-16474484D02*
X7523872Y-16274484D01*
X7523872Y-16274484D02*
X7504825Y-16303055D01*
X7504825Y-16303055D02*
X7485777Y-16322103D01*
X7485777Y-16322103D02*
X7466729Y-16331627D01*
X7647682Y-16274484D02*
X7781015Y-16274484D01*
X7781015Y-16274484D02*
X7695301Y-16474484D01*
X8009587Y-16474484D02*
X8009587Y-16274484D01*
X8095301Y-16474484D02*
X8095301Y-16369722D01*
X8095301Y-16369722D02*
X8085777Y-16350674D01*
X8085777Y-16350674D02*
X8066730Y-16341150D01*
X8066730Y-16341150D02*
X8038158Y-16341150D01*
X8038158Y-16341150D02*
X8019110Y-16350674D01*
X8019110Y-16350674D02*
X8009587Y-16360198D01*
X8219110Y-16474484D02*
X8200063Y-16464960D01*
X8200063Y-16464960D02*
X8190539Y-16455436D01*
X8190539Y-16455436D02*
X8181015Y-16436388D01*
X8181015Y-16436388D02*
X8181015Y-16379246D01*
X8181015Y-16379246D02*
X8190539Y-16360198D01*
X8190539Y-16360198D02*
X8200063Y-16350674D01*
X8200063Y-16350674D02*
X8219110Y-16341150D01*
X8219110Y-16341150D02*
X8247682Y-16341150D01*
X8247682Y-16341150D02*
X8266730Y-16350674D01*
X8266730Y-16350674D02*
X8276253Y-16360198D01*
X8276253Y-16360198D02*
X8285777Y-16379246D01*
X8285777Y-16379246D02*
X8285777Y-16436388D01*
X8285777Y-16436388D02*
X8276253Y-16455436D01*
X8276253Y-16455436D02*
X8266730Y-16464960D01*
X8266730Y-16464960D02*
X8247682Y-16474484D01*
X8247682Y-16474484D02*
X8219110Y-16474484D01*
X8400063Y-16474484D02*
X8381015Y-16464960D01*
X8381015Y-16464960D02*
X8371491Y-16445912D01*
X8371491Y-16445912D02*
X8371491Y-16274484D01*
X8552444Y-16464960D02*
X8533396Y-16474484D01*
X8533396Y-16474484D02*
X8495301Y-16474484D01*
X8495301Y-16474484D02*
X8476253Y-16464960D01*
X8476253Y-16464960D02*
X8466730Y-16445912D01*
X8466730Y-16445912D02*
X8466730Y-16369722D01*
X8466730Y-16369722D02*
X8476253Y-16350674D01*
X8476253Y-16350674D02*
X8495301Y-16341150D01*
X8495301Y-16341150D02*
X8533396Y-16341150D01*
X8533396Y-16341150D02*
X8552444Y-16350674D01*
X8552444Y-16350674D02*
X8561968Y-16369722D01*
X8561968Y-16369722D02*
X8561968Y-16388769D01*
X8561968Y-16388769D02*
X8466730Y-16407817D01*
X8638158Y-16464960D02*
X8657206Y-16474484D01*
X8657206Y-16474484D02*
X8695301Y-16474484D01*
X8695301Y-16474484D02*
X8714349Y-16464960D01*
X8714349Y-16464960D02*
X8723873Y-16445912D01*
X8723873Y-16445912D02*
X8723873Y-16436388D01*
X8723873Y-16436388D02*
X8714349Y-16417341D01*
X8714349Y-16417341D02*
X8695301Y-16407817D01*
X8695301Y-16407817D02*
X8666730Y-16407817D01*
X8666730Y-16407817D02*
X8647682Y-16398293D01*
X8647682Y-16398293D02*
X8638158Y-16379246D01*
X8638158Y-16379246D02*
X8638158Y-16369722D01*
X8638158Y-16369722D02*
X8647682Y-16350674D01*
X8647682Y-16350674D02*
X8666730Y-16341150D01*
X8666730Y-16341150D02*
X8695301Y-16341150D01*
X8695301Y-16341150D02*
X8714349Y-16350674D01*
X8790539Y-16550674D02*
X8800063Y-16541150D01*
X8800063Y-16541150D02*
X8819111Y-16512579D01*
X8819111Y-16512579D02*
X8828634Y-16493531D01*
X8828634Y-16493531D02*
X8838158Y-16464960D01*
X8838158Y-16464960D02*
X8847682Y-16417341D01*
X8847682Y-16417341D02*
X8847682Y-16379246D01*
X8847682Y-16379246D02*
X8838158Y-16331627D01*
X8838158Y-16331627D02*
X8828634Y-16303055D01*
X8828634Y-16303055D02*
X8819111Y-16284008D01*
X8819111Y-16284008D02*
X8800063Y-16255436D01*
X8800063Y-16255436D02*
X8790539Y-16245912D01*
D14*
X3803054Y-16699984D02*
X3803054Y-16594016D01*
X3697086Y-16594016D01*
X3697086Y-16699984D01*
X3803054Y-16699984D01*
D11*
X4190539Y-16738484D02*
X4076253Y-16738484D01*
X4133396Y-16738484D02*
X4133396Y-16538484D01*
X4133396Y-16538484D02*
X4114348Y-16567055D01*
X4114348Y-16567055D02*
X4095301Y-16586103D01*
X4095301Y-16586103D02*
X4076253Y-16595627D01*
X4276253Y-16719436D02*
X4285777Y-16728960D01*
X4285777Y-16728960D02*
X4276253Y-16738484D01*
X4276253Y-16738484D02*
X4266729Y-16728960D01*
X4266729Y-16728960D02*
X4276253Y-16719436D01*
X4276253Y-16719436D02*
X4276253Y-16738484D01*
X4457205Y-16605150D02*
X4457205Y-16738484D01*
X4409586Y-16528960D02*
X4361967Y-16671817D01*
X4361967Y-16671817D02*
X4485777Y-16671817D01*
X4571491Y-16738484D02*
X4609586Y-16738484D01*
X4609586Y-16738484D02*
X4628634Y-16728960D01*
X4628634Y-16728960D02*
X4638158Y-16719436D01*
X4638158Y-16719436D02*
X4657205Y-16690865D01*
X4657205Y-16690865D02*
X4666729Y-16652769D01*
X4666729Y-16652769D02*
X4666729Y-16576579D01*
X4666729Y-16576579D02*
X4657205Y-16557531D01*
X4657205Y-16557531D02*
X4647682Y-16548008D01*
X4647682Y-16548008D02*
X4628634Y-16538484D01*
X4628634Y-16538484D02*
X4590539Y-16538484D01*
X4590539Y-16538484D02*
X4571491Y-16548008D01*
X4571491Y-16548008D02*
X4561967Y-16557531D01*
X4561967Y-16557531D02*
X4552444Y-16576579D01*
X4552444Y-16576579D02*
X4552444Y-16624198D01*
X4552444Y-16624198D02*
X4561967Y-16643246D01*
X4561967Y-16643246D02*
X4571491Y-16652769D01*
X4571491Y-16652769D02*
X4590539Y-16662293D01*
X4590539Y-16662293D02*
X4628634Y-16662293D01*
X4628634Y-16662293D02*
X4647682Y-16652769D01*
X4647682Y-16652769D02*
X4657205Y-16643246D01*
X4657205Y-16643246D02*
X4666729Y-16624198D01*
X4761967Y-16738484D02*
X4800063Y-16738484D01*
X4800063Y-16738484D02*
X4819110Y-16728960D01*
X4819110Y-16728960D02*
X4828634Y-16719436D01*
X4828634Y-16719436D02*
X4847682Y-16690865D01*
X4847682Y-16690865D02*
X4857205Y-16652769D01*
X4857205Y-16652769D02*
X4857205Y-16576579D01*
X4857205Y-16576579D02*
X4847682Y-16557531D01*
X4847682Y-16557531D02*
X4838158Y-16548008D01*
X4838158Y-16548008D02*
X4819110Y-16538484D01*
X4819110Y-16538484D02*
X4781015Y-16538484D01*
X4781015Y-16538484D02*
X4761967Y-16548008D01*
X4761967Y-16548008D02*
X4752444Y-16557531D01*
X4752444Y-16557531D02*
X4742920Y-16576579D01*
X4742920Y-16576579D02*
X4742920Y-16624198D01*
X4742920Y-16624198D02*
X4752444Y-16643246D01*
X4752444Y-16643246D02*
X4761967Y-16652769D01*
X4761967Y-16652769D02*
X4781015Y-16662293D01*
X4781015Y-16662293D02*
X4819110Y-16662293D01*
X4819110Y-16662293D02*
X4838158Y-16652769D01*
X4838158Y-16652769D02*
X4847682Y-16643246D01*
X4847682Y-16643246D02*
X4857205Y-16624198D01*
X4942920Y-16738484D02*
X4942920Y-16605150D01*
X4942920Y-16624198D02*
X4952444Y-16614674D01*
X4952444Y-16614674D02*
X4971491Y-16605150D01*
X4971491Y-16605150D02*
X5000063Y-16605150D01*
X5000063Y-16605150D02*
X5019110Y-16614674D01*
X5019110Y-16614674D02*
X5028634Y-16633722D01*
X5028634Y-16633722D02*
X5028634Y-16738484D01*
X5028634Y-16633722D02*
X5038158Y-16614674D01*
X5038158Y-16614674D02*
X5057205Y-16605150D01*
X5057205Y-16605150D02*
X5085777Y-16605150D01*
X5085777Y-16605150D02*
X5104825Y-16614674D01*
X5104825Y-16614674D02*
X5114348Y-16633722D01*
X5114348Y-16633722D02*
X5114348Y-16738484D01*
X5209586Y-16738484D02*
X5209586Y-16605150D01*
X5209586Y-16624198D02*
X5219110Y-16614674D01*
X5219110Y-16614674D02*
X5238158Y-16605150D01*
X5238158Y-16605150D02*
X5266729Y-16605150D01*
X5266729Y-16605150D02*
X5285777Y-16614674D01*
X5285777Y-16614674D02*
X5295301Y-16633722D01*
X5295301Y-16633722D02*
X5295301Y-16738484D01*
X5295301Y-16633722D02*
X5304825Y-16614674D01*
X5304825Y-16614674D02*
X5323872Y-16605150D01*
X5323872Y-16605150D02*
X5352444Y-16605150D01*
X5352444Y-16605150D02*
X5371491Y-16614674D01*
X5371491Y-16614674D02*
X5381015Y-16633722D01*
X5381015Y-16633722D02*
X5381015Y-16738484D01*
X5771491Y-16528960D02*
X5600063Y-16786103D01*
X6028634Y-16538484D02*
X6047682Y-16538484D01*
X6047682Y-16538484D02*
X6066729Y-16548008D01*
X6066729Y-16548008D02*
X6076253Y-16557531D01*
X6076253Y-16557531D02*
X6085777Y-16576579D01*
X6085777Y-16576579D02*
X6095301Y-16614674D01*
X6095301Y-16614674D02*
X6095301Y-16662293D01*
X6095301Y-16662293D02*
X6085777Y-16700388D01*
X6085777Y-16700388D02*
X6076253Y-16719436D01*
X6076253Y-16719436D02*
X6066729Y-16728960D01*
X6066729Y-16728960D02*
X6047682Y-16738484D01*
X6047682Y-16738484D02*
X6028634Y-16738484D01*
X6028634Y-16738484D02*
X6009586Y-16728960D01*
X6009586Y-16728960D02*
X6000063Y-16719436D01*
X6000063Y-16719436D02*
X5990539Y-16700388D01*
X5990539Y-16700388D02*
X5981015Y-16662293D01*
X5981015Y-16662293D02*
X5981015Y-16614674D01*
X5981015Y-16614674D02*
X5990539Y-16576579D01*
X5990539Y-16576579D02*
X6000063Y-16557531D01*
X6000063Y-16557531D02*
X6009586Y-16548008D01*
X6009586Y-16548008D02*
X6028634Y-16538484D01*
X6181015Y-16719436D02*
X6190539Y-16728960D01*
X6190539Y-16728960D02*
X6181015Y-16738484D01*
X6181015Y-16738484D02*
X6171491Y-16728960D01*
X6171491Y-16728960D02*
X6181015Y-16719436D01*
X6181015Y-16719436D02*
X6181015Y-16738484D01*
X6314348Y-16538484D02*
X6333396Y-16538484D01*
X6333396Y-16538484D02*
X6352444Y-16548008D01*
X6352444Y-16548008D02*
X6361967Y-16557531D01*
X6361967Y-16557531D02*
X6371491Y-16576579D01*
X6371491Y-16576579D02*
X6381015Y-16614674D01*
X6381015Y-16614674D02*
X6381015Y-16662293D01*
X6381015Y-16662293D02*
X6371491Y-16700388D01*
X6371491Y-16700388D02*
X6361967Y-16719436D01*
X6361967Y-16719436D02*
X6352444Y-16728960D01*
X6352444Y-16728960D02*
X6333396Y-16738484D01*
X6333396Y-16738484D02*
X6314348Y-16738484D01*
X6314348Y-16738484D02*
X6295301Y-16728960D01*
X6295301Y-16728960D02*
X6285777Y-16719436D01*
X6285777Y-16719436D02*
X6276253Y-16700388D01*
X6276253Y-16700388D02*
X6266729Y-16662293D01*
X6266729Y-16662293D02*
X6266729Y-16614674D01*
X6266729Y-16614674D02*
X6276253Y-16576579D01*
X6276253Y-16576579D02*
X6285777Y-16557531D01*
X6285777Y-16557531D02*
X6295301Y-16548008D01*
X6295301Y-16548008D02*
X6314348Y-16538484D01*
X6561967Y-16538484D02*
X6466729Y-16538484D01*
X6466729Y-16538484D02*
X6457206Y-16633722D01*
X6457206Y-16633722D02*
X6466729Y-16624198D01*
X6466729Y-16624198D02*
X6485777Y-16614674D01*
X6485777Y-16614674D02*
X6533396Y-16614674D01*
X6533396Y-16614674D02*
X6552444Y-16624198D01*
X6552444Y-16624198D02*
X6561967Y-16633722D01*
X6561967Y-16633722D02*
X6571491Y-16652769D01*
X6571491Y-16652769D02*
X6571491Y-16700388D01*
X6571491Y-16700388D02*
X6561967Y-16719436D01*
X6561967Y-16719436D02*
X6552444Y-16728960D01*
X6552444Y-16728960D02*
X6533396Y-16738484D01*
X6533396Y-16738484D02*
X6485777Y-16738484D01*
X6485777Y-16738484D02*
X6466729Y-16728960D01*
X6466729Y-16728960D02*
X6457206Y-16719436D01*
X6666729Y-16738484D02*
X6704825Y-16738484D01*
X6704825Y-16738484D02*
X6723872Y-16728960D01*
X6723872Y-16728960D02*
X6733396Y-16719436D01*
X6733396Y-16719436D02*
X6752444Y-16690865D01*
X6752444Y-16690865D02*
X6761967Y-16652769D01*
X6761967Y-16652769D02*
X6761967Y-16576579D01*
X6761967Y-16576579D02*
X6752444Y-16557531D01*
X6752444Y-16557531D02*
X6742920Y-16548008D01*
X6742920Y-16548008D02*
X6723872Y-16538484D01*
X6723872Y-16538484D02*
X6685777Y-16538484D01*
X6685777Y-16538484D02*
X6666729Y-16548008D01*
X6666729Y-16548008D02*
X6657206Y-16557531D01*
X6657206Y-16557531D02*
X6647682Y-16576579D01*
X6647682Y-16576579D02*
X6647682Y-16624198D01*
X6647682Y-16624198D02*
X6657206Y-16643246D01*
X6657206Y-16643246D02*
X6666729Y-16652769D01*
X6666729Y-16652769D02*
X6685777Y-16662293D01*
X6685777Y-16662293D02*
X6723872Y-16662293D01*
X6723872Y-16662293D02*
X6742920Y-16652769D01*
X6742920Y-16652769D02*
X6752444Y-16643246D01*
X6752444Y-16643246D02*
X6761967Y-16624198D01*
X6885777Y-16538484D02*
X6904825Y-16538484D01*
X6904825Y-16538484D02*
X6923872Y-16548008D01*
X6923872Y-16548008D02*
X6933396Y-16557531D01*
X6933396Y-16557531D02*
X6942920Y-16576579D01*
X6942920Y-16576579D02*
X6952444Y-16614674D01*
X6952444Y-16614674D02*
X6952444Y-16662293D01*
X6952444Y-16662293D02*
X6942920Y-16700388D01*
X6942920Y-16700388D02*
X6933396Y-16719436D01*
X6933396Y-16719436D02*
X6923872Y-16728960D01*
X6923872Y-16728960D02*
X6904825Y-16738484D01*
X6904825Y-16738484D02*
X6885777Y-16738484D01*
X6885777Y-16738484D02*
X6866729Y-16728960D01*
X6866729Y-16728960D02*
X6857206Y-16719436D01*
X6857206Y-16719436D02*
X6847682Y-16700388D01*
X6847682Y-16700388D02*
X6838158Y-16662293D01*
X6838158Y-16662293D02*
X6838158Y-16614674D01*
X6838158Y-16614674D02*
X6847682Y-16576579D01*
X6847682Y-16576579D02*
X6857206Y-16557531D01*
X6857206Y-16557531D02*
X6866729Y-16548008D01*
X6866729Y-16548008D02*
X6885777Y-16538484D01*
X7028634Y-16538484D02*
X7028634Y-16576579D01*
X7104825Y-16538484D02*
X7104825Y-16576579D01*
X7400063Y-16814674D02*
X7390539Y-16805150D01*
X7390539Y-16805150D02*
X7371491Y-16776579D01*
X7371491Y-16776579D02*
X7361968Y-16757531D01*
X7361968Y-16757531D02*
X7352444Y-16728960D01*
X7352444Y-16728960D02*
X7342920Y-16681341D01*
X7342920Y-16681341D02*
X7342920Y-16643246D01*
X7342920Y-16643246D02*
X7352444Y-16595627D01*
X7352444Y-16595627D02*
X7361968Y-16567055D01*
X7361968Y-16567055D02*
X7371491Y-16548008D01*
X7371491Y-16548008D02*
X7390539Y-16519436D01*
X7390539Y-16519436D02*
X7400063Y-16509912D01*
X7485777Y-16738484D02*
X7523872Y-16738484D01*
X7523872Y-16738484D02*
X7542920Y-16728960D01*
X7542920Y-16728960D02*
X7552444Y-16719436D01*
X7552444Y-16719436D02*
X7571491Y-16690865D01*
X7571491Y-16690865D02*
X7581015Y-16652769D01*
X7581015Y-16652769D02*
X7581015Y-16576579D01*
X7581015Y-16576579D02*
X7571491Y-16557531D01*
X7571491Y-16557531D02*
X7561968Y-16548008D01*
X7561968Y-16548008D02*
X7542920Y-16538484D01*
X7542920Y-16538484D02*
X7504825Y-16538484D01*
X7504825Y-16538484D02*
X7485777Y-16548008D01*
X7485777Y-16548008D02*
X7476253Y-16557531D01*
X7476253Y-16557531D02*
X7466729Y-16576579D01*
X7466729Y-16576579D02*
X7466729Y-16624198D01*
X7466729Y-16624198D02*
X7476253Y-16643246D01*
X7476253Y-16643246D02*
X7485777Y-16652769D01*
X7485777Y-16652769D02*
X7504825Y-16662293D01*
X7504825Y-16662293D02*
X7542920Y-16662293D01*
X7542920Y-16662293D02*
X7561968Y-16652769D01*
X7561968Y-16652769D02*
X7571491Y-16643246D01*
X7571491Y-16643246D02*
X7581015Y-16624198D01*
X7752444Y-16538484D02*
X7714348Y-16538484D01*
X7714348Y-16538484D02*
X7695301Y-16548008D01*
X7695301Y-16548008D02*
X7685777Y-16557531D01*
X7685777Y-16557531D02*
X7666729Y-16586103D01*
X7666729Y-16586103D02*
X7657206Y-16624198D01*
X7657206Y-16624198D02*
X7657206Y-16700388D01*
X7657206Y-16700388D02*
X7666729Y-16719436D01*
X7666729Y-16719436D02*
X7676253Y-16728960D01*
X7676253Y-16728960D02*
X7695301Y-16738484D01*
X7695301Y-16738484D02*
X7733396Y-16738484D01*
X7733396Y-16738484D02*
X7752444Y-16728960D01*
X7752444Y-16728960D02*
X7761968Y-16719436D01*
X7761968Y-16719436D02*
X7771491Y-16700388D01*
X7771491Y-16700388D02*
X7771491Y-16652769D01*
X7771491Y-16652769D02*
X7761968Y-16633722D01*
X7761968Y-16633722D02*
X7752444Y-16624198D01*
X7752444Y-16624198D02*
X7733396Y-16614674D01*
X7733396Y-16614674D02*
X7695301Y-16614674D01*
X7695301Y-16614674D02*
X7676253Y-16624198D01*
X7676253Y-16624198D02*
X7666729Y-16633722D01*
X7666729Y-16633722D02*
X7657206Y-16652769D01*
X8009587Y-16738484D02*
X8009587Y-16538484D01*
X8095301Y-16738484D02*
X8095301Y-16633722D01*
X8095301Y-16633722D02*
X8085777Y-16614674D01*
X8085777Y-16614674D02*
X8066730Y-16605150D01*
X8066730Y-16605150D02*
X8038158Y-16605150D01*
X8038158Y-16605150D02*
X8019110Y-16614674D01*
X8019110Y-16614674D02*
X8009587Y-16624198D01*
X8219110Y-16738484D02*
X8200063Y-16728960D01*
X8200063Y-16728960D02*
X8190539Y-16719436D01*
X8190539Y-16719436D02*
X8181015Y-16700388D01*
X8181015Y-16700388D02*
X8181015Y-16643246D01*
X8181015Y-16643246D02*
X8190539Y-16624198D01*
X8190539Y-16624198D02*
X8200063Y-16614674D01*
X8200063Y-16614674D02*
X8219110Y-16605150D01*
X8219110Y-16605150D02*
X8247682Y-16605150D01*
X8247682Y-16605150D02*
X8266730Y-16614674D01*
X8266730Y-16614674D02*
X8276253Y-16624198D01*
X8276253Y-16624198D02*
X8285777Y-16643246D01*
X8285777Y-16643246D02*
X8285777Y-16700388D01*
X8285777Y-16700388D02*
X8276253Y-16719436D01*
X8276253Y-16719436D02*
X8266730Y-16728960D01*
X8266730Y-16728960D02*
X8247682Y-16738484D01*
X8247682Y-16738484D02*
X8219110Y-16738484D01*
X8400063Y-16738484D02*
X8381015Y-16728960D01*
X8381015Y-16728960D02*
X8371491Y-16709912D01*
X8371491Y-16709912D02*
X8371491Y-16538484D01*
X8552444Y-16728960D02*
X8533396Y-16738484D01*
X8533396Y-16738484D02*
X8495301Y-16738484D01*
X8495301Y-16738484D02*
X8476253Y-16728960D01*
X8476253Y-16728960D02*
X8466730Y-16709912D01*
X8466730Y-16709912D02*
X8466730Y-16633722D01*
X8466730Y-16633722D02*
X8476253Y-16614674D01*
X8476253Y-16614674D02*
X8495301Y-16605150D01*
X8495301Y-16605150D02*
X8533396Y-16605150D01*
X8533396Y-16605150D02*
X8552444Y-16614674D01*
X8552444Y-16614674D02*
X8561968Y-16633722D01*
X8561968Y-16633722D02*
X8561968Y-16652769D01*
X8561968Y-16652769D02*
X8466730Y-16671817D01*
X8638158Y-16728960D02*
X8657206Y-16738484D01*
X8657206Y-16738484D02*
X8695301Y-16738484D01*
X8695301Y-16738484D02*
X8714349Y-16728960D01*
X8714349Y-16728960D02*
X8723873Y-16709912D01*
X8723873Y-16709912D02*
X8723873Y-16700388D01*
X8723873Y-16700388D02*
X8714349Y-16681341D01*
X8714349Y-16681341D02*
X8695301Y-16671817D01*
X8695301Y-16671817D02*
X8666730Y-16671817D01*
X8666730Y-16671817D02*
X8647682Y-16662293D01*
X8647682Y-16662293D02*
X8638158Y-16643246D01*
X8638158Y-16643246D02*
X8638158Y-16633722D01*
X8638158Y-16633722D02*
X8647682Y-16614674D01*
X8647682Y-16614674D02*
X8666730Y-16605150D01*
X8666730Y-16605150D02*
X8695301Y-16605150D01*
X8695301Y-16605150D02*
X8714349Y-16614674D01*
X8790539Y-16814674D02*
X8800063Y-16805150D01*
X8800063Y-16805150D02*
X8819111Y-16776579D01*
X8819111Y-16776579D02*
X8828634Y-16757531D01*
X8828634Y-16757531D02*
X8838158Y-16728960D01*
X8838158Y-16728960D02*
X8847682Y-16681341D01*
X8847682Y-16681341D02*
X8847682Y-16643246D01*
X8847682Y-16643246D02*
X8838158Y-16595627D01*
X8838158Y-16595627D02*
X8828634Y-16567055D01*
X8828634Y-16567055D02*
X8819111Y-16548008D01*
X8819111Y-16548008D02*
X8800063Y-16519436D01*
X8800063Y-16519436D02*
X8790539Y-16509912D01*
M02*
