%TF.GenerationSoftware,KiCad,Pcbnew,7.0.7*%
%TF.CreationDate,2024-03-23T11:57:12+09:00*%
%TF.ProjectId,RP2040_KBD,52503230-3430-45f4-9b42-442e6b696361,rev?*%
%TF.SameCoordinates,Original*%
%TF.FileFunction,Drillmap*%
%TF.FilePolarity,Positive*%
%FSLAX45Y45*%
G04 Gerber Fmt 4.5, Leading zero omitted, Abs format (unit mm)*
G04 Created by KiCad (PCBNEW 7.0.7) date 2024-03-23 11:57:12*
%MOMM*%
%LPD*%
G01*
G04 APERTURE LIST*
%ADD10C,0.100000*%
%ADD11C,0.200000*%
%ADD12C,0.060000*%
%ADD13C,0.170180*%
%ADD14C,0.300000*%
%ADD15C,0.398780*%
G04 APERTURE END LIST*
D10*
X4542956Y-3500000D02*
G75*
G03*
X4542956Y-3500000I-102956J0D01*
G01*
X13500000Y-14420000D02*
G75*
G03*
X13500000Y-14420000I-102956J0D01*
G01*
X6802956Y-10257044D02*
G75*
G03*
X6802956Y-10257044I-102956J0D01*
G01*
X6802956Y-6450000D02*
G75*
G03*
X6802956Y-6450000I-102956J0D01*
G01*
X10900000Y-6640000D02*
G75*
G03*
X10900000Y-6640000I-102956J0D01*
G01*
X14262956Y-5290000D02*
G75*
G03*
X14262956Y-5290000I-102956J0D01*
G01*
X10900000Y-14257044D02*
G75*
G03*
X10900000Y-14257044I-102956J0D01*
G01*
X6802956Y-14067044D02*
G75*
G03*
X6802956Y-14067044I-102956J0D01*
G01*
X13500000Y-7880000D02*
G75*
G03*
X13500000Y-7880000I-102956J0D01*
G01*
X10900000Y-10447044D02*
G75*
G03*
X10900000Y-10447044I-102956J0D01*
G01*
X3830000Y-2670000D02*
X14480000Y-2670000D01*
X14480000Y-15210000D01*
X3830000Y-15210000D01*
X3830000Y-2670000D01*
X12862956Y-5290000D02*
G75*
G03*
X12862956Y-5290000I-102956J0D01*
G01*
X13500000Y-11687044D02*
G75*
G03*
X13500000Y-11687044I-102956J0D01*
G01*
D11*
D12*
X7681000Y-3215000D02*
X7741000Y-3275000D01*
X7741000Y-3215000D02*
X7681000Y-3275000D01*
X8259000Y-3215000D02*
X8319000Y-3275000D01*
X8319000Y-3215000D02*
X8259000Y-3275000D01*
D13*
X4786090Y-6447000D02*
G75*
G03*
X4786090Y-6447000I-85090J0D01*
G01*
X4786090Y-8352000D02*
G75*
G03*
X4786090Y-8352000I-85090J0D01*
G01*
X4786090Y-10257000D02*
G75*
G03*
X4786090Y-10257000I-85090J0D01*
G01*
X4786090Y-12162000D02*
G75*
G03*
X4786090Y-12162000I-85090J0D01*
G01*
X4786090Y-14067000D02*
G75*
G03*
X4786090Y-14067000I-85090J0D01*
G01*
X5802090Y-6447000D02*
G75*
G03*
X5802090Y-6447000I-85090J0D01*
G01*
X5802090Y-8352000D02*
G75*
G03*
X5802090Y-8352000I-85090J0D01*
G01*
X5802090Y-10257000D02*
G75*
G03*
X5802090Y-10257000I-85090J0D01*
G01*
X5802090Y-12162000D02*
G75*
G03*
X5802090Y-12162000I-85090J0D01*
G01*
X5802090Y-14067000D02*
G75*
G03*
X5802090Y-14067000I-85090J0D01*
G01*
X7233090Y-6447000D02*
G75*
G03*
X7233090Y-6447000I-85090J0D01*
G01*
X7233090Y-8352000D02*
G75*
G03*
X7233090Y-8352000I-85090J0D01*
G01*
X7233090Y-10257000D02*
G75*
G03*
X7233090Y-10257000I-85090J0D01*
G01*
X7233090Y-12162000D02*
G75*
G03*
X7233090Y-12162000I-85090J0D01*
G01*
X8185590Y-14067000D02*
G75*
G03*
X8185590Y-14067000I-85090J0D01*
G01*
X8249090Y-6447000D02*
G75*
G03*
X8249090Y-6447000I-85090J0D01*
G01*
X8249090Y-8352000D02*
G75*
G03*
X8249090Y-8352000I-85090J0D01*
G01*
X8249090Y-10257000D02*
G75*
G03*
X8249090Y-10257000I-85090J0D01*
G01*
X8249090Y-12162000D02*
G75*
G03*
X8249090Y-12162000I-85090J0D01*
G01*
X9138090Y-6447000D02*
G75*
G03*
X9138090Y-6447000I-85090J0D01*
G01*
X9138090Y-8352000D02*
G75*
G03*
X9138090Y-8352000I-85090J0D01*
G01*
X9138090Y-10257000D02*
G75*
G03*
X9138090Y-10257000I-85090J0D01*
G01*
X9138090Y-12162000D02*
G75*
G03*
X9138090Y-12162000I-85090J0D01*
G01*
X9201590Y-14067000D02*
G75*
G03*
X9201590Y-14067000I-85090J0D01*
G01*
X10154090Y-6447000D02*
G75*
G03*
X10154090Y-6447000I-85090J0D01*
G01*
X10154090Y-8352000D02*
G75*
G03*
X10154090Y-8352000I-85090J0D01*
G01*
X10154090Y-10257000D02*
G75*
G03*
X10154090Y-10257000I-85090J0D01*
G01*
X10154090Y-12162000D02*
G75*
G03*
X10154090Y-12162000I-85090J0D01*
G01*
X11043090Y-4070000D02*
G75*
G03*
X11043090Y-4070000I-85090J0D01*
G01*
X11043090Y-6447000D02*
G75*
G03*
X11043090Y-6447000I-85090J0D01*
G01*
X11043090Y-8352000D02*
G75*
G03*
X11043090Y-8352000I-85090J0D01*
G01*
X11043090Y-10257000D02*
G75*
G03*
X11043090Y-10257000I-85090J0D01*
G01*
X11043090Y-12162000D02*
G75*
G03*
X11043090Y-12162000I-85090J0D01*
G01*
X11043090Y-14067000D02*
G75*
G03*
X11043090Y-14067000I-85090J0D01*
G01*
X12059090Y-4070000D02*
G75*
G03*
X12059090Y-4070000I-85090J0D01*
G01*
X12059090Y-6447000D02*
G75*
G03*
X12059090Y-6447000I-85090J0D01*
G01*
X12059090Y-8352000D02*
G75*
G03*
X12059090Y-8352000I-85090J0D01*
G01*
X12059090Y-10257000D02*
G75*
G03*
X12059090Y-10257000I-85090J0D01*
G01*
X12059090Y-12162000D02*
G75*
G03*
X12059090Y-12162000I-85090J0D01*
G01*
X12059090Y-14067000D02*
G75*
G03*
X12059090Y-14067000I-85090J0D01*
G01*
X12948090Y-4070000D02*
G75*
G03*
X12948090Y-4070000I-85090J0D01*
G01*
X12948090Y-6447000D02*
G75*
G03*
X12948090Y-6447000I-85090J0D01*
G01*
X12948090Y-9304500D02*
G75*
G03*
X12948090Y-9304500I-85090J0D01*
G01*
X12948090Y-13114500D02*
G75*
G03*
X12948090Y-13114500I-85090J0D01*
G01*
X13964090Y-4070000D02*
G75*
G03*
X13964090Y-4070000I-85090J0D01*
G01*
X13964090Y-6447000D02*
G75*
G03*
X13964090Y-6447000I-85090J0D01*
G01*
X13964090Y-9304500D02*
G75*
G03*
X13964090Y-9304500I-85090J0D01*
G01*
X13964090Y-13114500D02*
G75*
G03*
X13964090Y-13114500I-85090J0D01*
G01*
D14*
X4955000Y-5789000D02*
X4955000Y-6089000D01*
X4805000Y-5939000D02*
X5105000Y-5939000D01*
X4955000Y-6805000D02*
X4955000Y-7105000D01*
X4805000Y-6955000D02*
X5105000Y-6955000D01*
X4955000Y-7694000D02*
X4955000Y-7994000D01*
X4805000Y-7844000D02*
X5105000Y-7844000D01*
X4955000Y-8710000D02*
X4955000Y-9010000D01*
X4805000Y-8860000D02*
X5105000Y-8860000D01*
X4955000Y-9599000D02*
X4955000Y-9899000D01*
X4805000Y-9749000D02*
X5105000Y-9749000D01*
X4955000Y-10615000D02*
X4955000Y-10915000D01*
X4805000Y-10765000D02*
X5105000Y-10765000D01*
X4955000Y-11504000D02*
X4955000Y-11804000D01*
X4805000Y-11654000D02*
X5105000Y-11654000D01*
X4955000Y-12520000D02*
X4955000Y-12820000D01*
X4805000Y-12670000D02*
X5105000Y-12670000D01*
X4955000Y-13409000D02*
X4955000Y-13709000D01*
X4805000Y-13559000D02*
X5105000Y-13559000D01*
X4955000Y-14425000D02*
X4955000Y-14725000D01*
X4805000Y-14575000D02*
X5105000Y-14575000D01*
X5590000Y-6043000D02*
X5590000Y-6343000D01*
X5440000Y-6193000D02*
X5740000Y-6193000D01*
X5590000Y-6551000D02*
X5590000Y-6851000D01*
X5440000Y-6701000D02*
X5740000Y-6701000D01*
X5590000Y-7948000D02*
X5590000Y-8248000D01*
X5440000Y-8098000D02*
X5740000Y-8098000D01*
X5590000Y-8456000D02*
X5590000Y-8756000D01*
X5440000Y-8606000D02*
X5740000Y-8606000D01*
X5590000Y-9853000D02*
X5590000Y-10153000D01*
X5440000Y-10003000D02*
X5740000Y-10003000D01*
X5590000Y-10361000D02*
X5590000Y-10661000D01*
X5440000Y-10511000D02*
X5740000Y-10511000D01*
X5590000Y-11758000D02*
X5590000Y-12058000D01*
X5440000Y-11908000D02*
X5740000Y-11908000D01*
X5590000Y-12266000D02*
X5590000Y-12566000D01*
X5440000Y-12416000D02*
X5740000Y-12416000D01*
X5590000Y-13663000D02*
X5590000Y-13963000D01*
X5440000Y-13813000D02*
X5740000Y-13813000D01*
X5590000Y-14171000D02*
X5590000Y-14471000D01*
X5440000Y-14321000D02*
X5740000Y-14321000D01*
X7402000Y-5789000D02*
X7402000Y-6089000D01*
X7252000Y-5939000D02*
X7552000Y-5939000D01*
X7402000Y-6805000D02*
X7402000Y-7105000D01*
X7252000Y-6955000D02*
X7552000Y-6955000D01*
X7402000Y-7694000D02*
X7402000Y-7994000D01*
X7252000Y-7844000D02*
X7552000Y-7844000D01*
X7402000Y-8710000D02*
X7402000Y-9010000D01*
X7252000Y-8860000D02*
X7552000Y-8860000D01*
X7402000Y-9599000D02*
X7402000Y-9899000D01*
X7252000Y-9749000D02*
X7552000Y-9749000D01*
X7402000Y-10615000D02*
X7402000Y-10915000D01*
X7252000Y-10765000D02*
X7552000Y-10765000D01*
X7402000Y-11504000D02*
X7402000Y-11804000D01*
X7252000Y-11654000D02*
X7552000Y-11654000D01*
X7402000Y-12520000D02*
X7402000Y-12820000D01*
X7252000Y-12670000D02*
X7552000Y-12670000D01*
X8037000Y-6043000D02*
X8037000Y-6343000D01*
X7887000Y-6193000D02*
X8187000Y-6193000D01*
X8037000Y-6551000D02*
X8037000Y-6851000D01*
X7887000Y-6701000D02*
X8187000Y-6701000D01*
X8037000Y-7948000D02*
X8037000Y-8248000D01*
X7887000Y-8098000D02*
X8187000Y-8098000D01*
X8037000Y-8456000D02*
X8037000Y-8756000D01*
X7887000Y-8606000D02*
X8187000Y-8606000D01*
X8037000Y-9853000D02*
X8037000Y-10153000D01*
X7887000Y-10003000D02*
X8187000Y-10003000D01*
X8037000Y-10361000D02*
X8037000Y-10661000D01*
X7887000Y-10511000D02*
X8187000Y-10511000D01*
X8037000Y-11758000D02*
X8037000Y-12058000D01*
X7887000Y-11908000D02*
X8187000Y-11908000D01*
X8037000Y-12266000D02*
X8037000Y-12566000D01*
X7887000Y-12416000D02*
X8187000Y-12416000D01*
X8354500Y-13409000D02*
X8354500Y-13709000D01*
X8204500Y-13559000D02*
X8504500Y-13559000D01*
X8354500Y-14425000D02*
X8354500Y-14725000D01*
X8204500Y-14575000D02*
X8504500Y-14575000D01*
X8989500Y-13663000D02*
X8989500Y-13963000D01*
X8839500Y-13813000D02*
X9139500Y-13813000D01*
X8989500Y-14171000D02*
X8989500Y-14471000D01*
X8839500Y-14321000D02*
X9139500Y-14321000D01*
X9307000Y-5789000D02*
X9307000Y-6089000D01*
X9157000Y-5939000D02*
X9457000Y-5939000D01*
X9307000Y-6805000D02*
X9307000Y-7105000D01*
X9157000Y-6955000D02*
X9457000Y-6955000D01*
X9307000Y-7694000D02*
X9307000Y-7994000D01*
X9157000Y-7844000D02*
X9457000Y-7844000D01*
X9307000Y-8710000D02*
X9307000Y-9010000D01*
X9157000Y-8860000D02*
X9457000Y-8860000D01*
X9307000Y-9599000D02*
X9307000Y-9899000D01*
X9157000Y-9749000D02*
X9457000Y-9749000D01*
X9307000Y-10615000D02*
X9307000Y-10915000D01*
X9157000Y-10765000D02*
X9457000Y-10765000D01*
X9307000Y-11504000D02*
X9307000Y-11804000D01*
X9157000Y-11654000D02*
X9457000Y-11654000D01*
X9307000Y-12520000D02*
X9307000Y-12820000D01*
X9157000Y-12670000D02*
X9457000Y-12670000D01*
X9942000Y-6043000D02*
X9942000Y-6343000D01*
X9792000Y-6193000D02*
X10092000Y-6193000D01*
X9942000Y-6551000D02*
X9942000Y-6851000D01*
X9792000Y-6701000D02*
X10092000Y-6701000D01*
X9942000Y-7948000D02*
X9942000Y-8248000D01*
X9792000Y-8098000D02*
X10092000Y-8098000D01*
X9942000Y-8456000D02*
X9942000Y-8756000D01*
X9792000Y-8606000D02*
X10092000Y-8606000D01*
X9942000Y-9853000D02*
X9942000Y-10153000D01*
X9792000Y-10003000D02*
X10092000Y-10003000D01*
X9942000Y-10361000D02*
X9942000Y-10661000D01*
X9792000Y-10511000D02*
X10092000Y-10511000D01*
X9942000Y-11758000D02*
X9942000Y-12058000D01*
X9792000Y-11908000D02*
X10092000Y-11908000D01*
X9942000Y-12266000D02*
X9942000Y-12566000D01*
X9792000Y-12416000D02*
X10092000Y-12416000D01*
X11212000Y-3412000D02*
X11212000Y-3712000D01*
X11062000Y-3562000D02*
X11362000Y-3562000D01*
X11212000Y-4428000D02*
X11212000Y-4728000D01*
X11062000Y-4578000D02*
X11362000Y-4578000D01*
X11212000Y-5789000D02*
X11212000Y-6089000D01*
X11062000Y-5939000D02*
X11362000Y-5939000D01*
X11212000Y-6805000D02*
X11212000Y-7105000D01*
X11062000Y-6955000D02*
X11362000Y-6955000D01*
X11212000Y-7694000D02*
X11212000Y-7994000D01*
X11062000Y-7844000D02*
X11362000Y-7844000D01*
X11212000Y-8710000D02*
X11212000Y-9010000D01*
X11062000Y-8860000D02*
X11362000Y-8860000D01*
X11212000Y-9599000D02*
X11212000Y-9899000D01*
X11062000Y-9749000D02*
X11362000Y-9749000D01*
X11212000Y-10615000D02*
X11212000Y-10915000D01*
X11062000Y-10765000D02*
X11362000Y-10765000D01*
X11212000Y-11504000D02*
X11212000Y-11804000D01*
X11062000Y-11654000D02*
X11362000Y-11654000D01*
X11212000Y-12520000D02*
X11212000Y-12820000D01*
X11062000Y-12670000D02*
X11362000Y-12670000D01*
X11212000Y-13409000D02*
X11212000Y-13709000D01*
X11062000Y-13559000D02*
X11362000Y-13559000D01*
X11212000Y-14425000D02*
X11212000Y-14725000D01*
X11062000Y-14575000D02*
X11362000Y-14575000D01*
X11847000Y-3666000D02*
X11847000Y-3966000D01*
X11697000Y-3816000D02*
X11997000Y-3816000D01*
X11847000Y-4174000D02*
X11847000Y-4474000D01*
X11697000Y-4324000D02*
X11997000Y-4324000D01*
X11847000Y-6043000D02*
X11847000Y-6343000D01*
X11697000Y-6193000D02*
X11997000Y-6193000D01*
X11847000Y-6551000D02*
X11847000Y-6851000D01*
X11697000Y-6701000D02*
X11997000Y-6701000D01*
X11847000Y-7948000D02*
X11847000Y-8248000D01*
X11697000Y-8098000D02*
X11997000Y-8098000D01*
X11847000Y-8456000D02*
X11847000Y-8756000D01*
X11697000Y-8606000D02*
X11997000Y-8606000D01*
X11847000Y-9853000D02*
X11847000Y-10153000D01*
X11697000Y-10003000D02*
X11997000Y-10003000D01*
X11847000Y-10361000D02*
X11847000Y-10661000D01*
X11697000Y-10511000D02*
X11997000Y-10511000D01*
X11847000Y-11758000D02*
X11847000Y-12058000D01*
X11697000Y-11908000D02*
X11997000Y-11908000D01*
X11847000Y-12266000D02*
X11847000Y-12566000D01*
X11697000Y-12416000D02*
X11997000Y-12416000D01*
X11847000Y-13663000D02*
X11847000Y-13963000D01*
X11697000Y-13813000D02*
X11997000Y-13813000D01*
X11847000Y-14171000D02*
X11847000Y-14471000D01*
X11697000Y-14321000D02*
X11997000Y-14321000D01*
X13117000Y-3412000D02*
X13117000Y-3712000D01*
X12967000Y-3562000D02*
X13267000Y-3562000D01*
X13117000Y-4428000D02*
X13117000Y-4728000D01*
X12967000Y-4578000D02*
X13267000Y-4578000D01*
X13117000Y-5789000D02*
X13117000Y-6089000D01*
X12967000Y-5939000D02*
X13267000Y-5939000D01*
X13117000Y-6805000D02*
X13117000Y-7105000D01*
X12967000Y-6955000D02*
X13267000Y-6955000D01*
X13117000Y-8646500D02*
X13117000Y-8946500D01*
X12967000Y-8796500D02*
X13267000Y-8796500D01*
X13117000Y-9662500D02*
X13117000Y-9962500D01*
X12967000Y-9812500D02*
X13267000Y-9812500D01*
X13117000Y-12456500D02*
X13117000Y-12756500D01*
X12967000Y-12606500D02*
X13267000Y-12606500D01*
X13117000Y-13472500D02*
X13117000Y-13772500D01*
X12967000Y-13622500D02*
X13267000Y-13622500D01*
X13752000Y-3666000D02*
X13752000Y-3966000D01*
X13602000Y-3816000D02*
X13902000Y-3816000D01*
X13752000Y-4174000D02*
X13752000Y-4474000D01*
X13602000Y-4324000D02*
X13902000Y-4324000D01*
X13752000Y-6043000D02*
X13752000Y-6343000D01*
X13602000Y-6193000D02*
X13902000Y-6193000D01*
X13752000Y-6551000D02*
X13752000Y-6851000D01*
X13602000Y-6701000D02*
X13902000Y-6701000D01*
X13752000Y-8900500D02*
X13752000Y-9200500D01*
X13602000Y-9050500D02*
X13902000Y-9050500D01*
X13752000Y-9408500D02*
X13752000Y-9708500D01*
X13602000Y-9558500D02*
X13902000Y-9558500D01*
X13752000Y-12710500D02*
X13752000Y-13010500D01*
X13602000Y-12860500D02*
X13902000Y-12860500D01*
X13752000Y-13218500D02*
X13752000Y-13518500D01*
X13602000Y-13368500D02*
X13902000Y-13368500D01*
D15*
X5349991Y-6587991D02*
X5349991Y-6306009D01*
X5068009Y-6306009D01*
X5068009Y-6587991D01*
X5349991Y-6587991D01*
X5349991Y-8492991D02*
X5349991Y-8211009D01*
X5068009Y-8211009D01*
X5068009Y-8492991D01*
X5349991Y-8492991D01*
X5349991Y-10397991D02*
X5349991Y-10116009D01*
X5068009Y-10116009D01*
X5068009Y-10397991D01*
X5349991Y-10397991D01*
X5349991Y-12302991D02*
X5349991Y-12021009D01*
X5068009Y-12021009D01*
X5068009Y-12302991D01*
X5349991Y-12302991D01*
X5349991Y-14207991D02*
X5349991Y-13926009D01*
X5068009Y-13926009D01*
X5068009Y-14207991D01*
X5349991Y-14207991D01*
X7796991Y-6587991D02*
X7796991Y-6306009D01*
X7515009Y-6306009D01*
X7515009Y-6587991D01*
X7796991Y-6587991D01*
X7796991Y-8492991D02*
X7796991Y-8211009D01*
X7515009Y-8211009D01*
X7515009Y-8492991D01*
X7796991Y-8492991D01*
X7796991Y-10397991D02*
X7796991Y-10116009D01*
X7515009Y-10116009D01*
X7515009Y-10397991D01*
X7796991Y-10397991D01*
X7796991Y-12302991D02*
X7796991Y-12021009D01*
X7515009Y-12021009D01*
X7515009Y-12302991D01*
X7796991Y-12302991D01*
X8749491Y-14207991D02*
X8749491Y-13926009D01*
X8467509Y-13926009D01*
X8467509Y-14207991D01*
X8749491Y-14207991D01*
X9701991Y-6587991D02*
X9701991Y-6306009D01*
X9420009Y-6306009D01*
X9420009Y-6587991D01*
X9701991Y-6587991D01*
X9701991Y-8492991D02*
X9701991Y-8211009D01*
X9420009Y-8211009D01*
X9420009Y-8492991D01*
X9701991Y-8492991D01*
X9701991Y-10397991D02*
X9701991Y-10116009D01*
X9420009Y-10116009D01*
X9420009Y-10397991D01*
X9701991Y-10397991D01*
X9701991Y-12302991D02*
X9701991Y-12021009D01*
X9420009Y-12021009D01*
X9420009Y-12302991D01*
X9701991Y-12302991D01*
X11606991Y-4210991D02*
X11606991Y-3929009D01*
X11325009Y-3929009D01*
X11325009Y-4210991D01*
X11606991Y-4210991D01*
X11606991Y-6587991D02*
X11606991Y-6306009D01*
X11325009Y-6306009D01*
X11325009Y-6587991D01*
X11606991Y-6587991D01*
X11606991Y-8492991D02*
X11606991Y-8211009D01*
X11325009Y-8211009D01*
X11325009Y-8492991D01*
X11606991Y-8492991D01*
X11606991Y-10397991D02*
X11606991Y-10116009D01*
X11325009Y-10116009D01*
X11325009Y-10397991D01*
X11606991Y-10397991D01*
X11606991Y-12302991D02*
X11606991Y-12021009D01*
X11325009Y-12021009D01*
X11325009Y-12302991D01*
X11606991Y-12302991D01*
X11606991Y-14207991D02*
X11606991Y-13926009D01*
X11325009Y-13926009D01*
X11325009Y-14207991D01*
X11606991Y-14207991D01*
X13511991Y-4210991D02*
X13511991Y-3929009D01*
X13230009Y-3929009D01*
X13230009Y-4210991D01*
X13511991Y-4210991D01*
X13511991Y-6587991D02*
X13511991Y-6306009D01*
X13230009Y-6306009D01*
X13230009Y-6587991D01*
X13511991Y-6587991D01*
X13511991Y-9445491D02*
X13511991Y-9163509D01*
X13230009Y-9163509D01*
X13230009Y-9445491D01*
X13511991Y-9445491D01*
X13511991Y-13255491D02*
X13511991Y-12973509D01*
X13230009Y-12973509D01*
X13230009Y-13255491D01*
X13511991Y-13255491D01*
D11*
X4085777Y-15526484D02*
X4085777Y-15326484D01*
X4085777Y-15326484D02*
X4133396Y-15326484D01*
X4133396Y-15326484D02*
X4161967Y-15336008D01*
X4161967Y-15336008D02*
X4181015Y-15355055D01*
X4181015Y-15355055D02*
X4190539Y-15374103D01*
X4190539Y-15374103D02*
X4200063Y-15412198D01*
X4200063Y-15412198D02*
X4200063Y-15440769D01*
X4200063Y-15440769D02*
X4190539Y-15478865D01*
X4190539Y-15478865D02*
X4181015Y-15497912D01*
X4181015Y-15497912D02*
X4161967Y-15516960D01*
X4161967Y-15516960D02*
X4133396Y-15526484D01*
X4133396Y-15526484D02*
X4085777Y-15526484D01*
X4285777Y-15526484D02*
X4285777Y-15393150D01*
X4285777Y-15431246D02*
X4295301Y-15412198D01*
X4295301Y-15412198D02*
X4304824Y-15402674D01*
X4304824Y-15402674D02*
X4323872Y-15393150D01*
X4323872Y-15393150D02*
X4342920Y-15393150D01*
X4409586Y-15526484D02*
X4409586Y-15393150D01*
X4409586Y-15326484D02*
X4400063Y-15336008D01*
X4400063Y-15336008D02*
X4409586Y-15345531D01*
X4409586Y-15345531D02*
X4419110Y-15336008D01*
X4419110Y-15336008D02*
X4409586Y-15326484D01*
X4409586Y-15326484D02*
X4409586Y-15345531D01*
X4533396Y-15526484D02*
X4514348Y-15516960D01*
X4514348Y-15516960D02*
X4504824Y-15497912D01*
X4504824Y-15497912D02*
X4504824Y-15326484D01*
X4638158Y-15526484D02*
X4619110Y-15516960D01*
X4619110Y-15516960D02*
X4609586Y-15497912D01*
X4609586Y-15497912D02*
X4609586Y-15326484D01*
X4866729Y-15526484D02*
X4866729Y-15326484D01*
X4866729Y-15326484D02*
X4933396Y-15469341D01*
X4933396Y-15469341D02*
X5000063Y-15326484D01*
X5000063Y-15326484D02*
X5000063Y-15526484D01*
X5181015Y-15526484D02*
X5181015Y-15421722D01*
X5181015Y-15421722D02*
X5171491Y-15402674D01*
X5171491Y-15402674D02*
X5152444Y-15393150D01*
X5152444Y-15393150D02*
X5114348Y-15393150D01*
X5114348Y-15393150D02*
X5095301Y-15402674D01*
X5181015Y-15516960D02*
X5161967Y-15526484D01*
X5161967Y-15526484D02*
X5114348Y-15526484D01*
X5114348Y-15526484D02*
X5095301Y-15516960D01*
X5095301Y-15516960D02*
X5085777Y-15497912D01*
X5085777Y-15497912D02*
X5085777Y-15478865D01*
X5085777Y-15478865D02*
X5095301Y-15459817D01*
X5095301Y-15459817D02*
X5114348Y-15450293D01*
X5114348Y-15450293D02*
X5161967Y-15450293D01*
X5161967Y-15450293D02*
X5181015Y-15440769D01*
X5276253Y-15393150D02*
X5276253Y-15593150D01*
X5276253Y-15402674D02*
X5295301Y-15393150D01*
X5295301Y-15393150D02*
X5333396Y-15393150D01*
X5333396Y-15393150D02*
X5352444Y-15402674D01*
X5352444Y-15402674D02*
X5361967Y-15412198D01*
X5361967Y-15412198D02*
X5371491Y-15431246D01*
X5371491Y-15431246D02*
X5371491Y-15488388D01*
X5371491Y-15488388D02*
X5361967Y-15507436D01*
X5361967Y-15507436D02*
X5352444Y-15516960D01*
X5352444Y-15516960D02*
X5333396Y-15526484D01*
X5333396Y-15526484D02*
X5295301Y-15526484D01*
X5295301Y-15526484D02*
X5276253Y-15516960D01*
X5457205Y-15507436D02*
X5466729Y-15516960D01*
X5466729Y-15516960D02*
X5457205Y-15526484D01*
X5457205Y-15526484D02*
X5447682Y-15516960D01*
X5447682Y-15516960D02*
X5457205Y-15507436D01*
X5457205Y-15507436D02*
X5457205Y-15526484D01*
X5457205Y-15402674D02*
X5466729Y-15412198D01*
X5466729Y-15412198D02*
X5457205Y-15421722D01*
X5457205Y-15421722D02*
X5447682Y-15412198D01*
X5447682Y-15412198D02*
X5457205Y-15402674D01*
X5457205Y-15402674D02*
X5457205Y-15421722D01*
D12*
X3765000Y-15825000D02*
X3825000Y-15885000D01*
X3825000Y-15825000D02*
X3765000Y-15885000D01*
D11*
X4123872Y-15746484D02*
X4142920Y-15746484D01*
X4142920Y-15746484D02*
X4161967Y-15756008D01*
X4161967Y-15756008D02*
X4171491Y-15765531D01*
X4171491Y-15765531D02*
X4181015Y-15784579D01*
X4181015Y-15784579D02*
X4190539Y-15822674D01*
X4190539Y-15822674D02*
X4190539Y-15870293D01*
X4190539Y-15870293D02*
X4181015Y-15908388D01*
X4181015Y-15908388D02*
X4171491Y-15927436D01*
X4171491Y-15927436D02*
X4161967Y-15936960D01*
X4161967Y-15936960D02*
X4142920Y-15946484D01*
X4142920Y-15946484D02*
X4123872Y-15946484D01*
X4123872Y-15946484D02*
X4104824Y-15936960D01*
X4104824Y-15936960D02*
X4095301Y-15927436D01*
X4095301Y-15927436D02*
X4085777Y-15908388D01*
X4085777Y-15908388D02*
X4076253Y-15870293D01*
X4076253Y-15870293D02*
X4076253Y-15822674D01*
X4076253Y-15822674D02*
X4085777Y-15784579D01*
X4085777Y-15784579D02*
X4095301Y-15765531D01*
X4095301Y-15765531D02*
X4104824Y-15756008D01*
X4104824Y-15756008D02*
X4123872Y-15746484D01*
X4276253Y-15927436D02*
X4285777Y-15936960D01*
X4285777Y-15936960D02*
X4276253Y-15946484D01*
X4276253Y-15946484D02*
X4266729Y-15936960D01*
X4266729Y-15936960D02*
X4276253Y-15927436D01*
X4276253Y-15927436D02*
X4276253Y-15946484D01*
X4457205Y-15746484D02*
X4419110Y-15746484D01*
X4419110Y-15746484D02*
X4400063Y-15756008D01*
X4400063Y-15756008D02*
X4390539Y-15765531D01*
X4390539Y-15765531D02*
X4371491Y-15794103D01*
X4371491Y-15794103D02*
X4361967Y-15832198D01*
X4361967Y-15832198D02*
X4361967Y-15908388D01*
X4361967Y-15908388D02*
X4371491Y-15927436D01*
X4371491Y-15927436D02*
X4381015Y-15936960D01*
X4381015Y-15936960D02*
X4400063Y-15946484D01*
X4400063Y-15946484D02*
X4438158Y-15946484D01*
X4438158Y-15946484D02*
X4457205Y-15936960D01*
X4457205Y-15936960D02*
X4466729Y-15927436D01*
X4466729Y-15927436D02*
X4476253Y-15908388D01*
X4476253Y-15908388D02*
X4476253Y-15860769D01*
X4476253Y-15860769D02*
X4466729Y-15841722D01*
X4466729Y-15841722D02*
X4457205Y-15832198D01*
X4457205Y-15832198D02*
X4438158Y-15822674D01*
X4438158Y-15822674D02*
X4400063Y-15822674D01*
X4400063Y-15822674D02*
X4381015Y-15832198D01*
X4381015Y-15832198D02*
X4371491Y-15841722D01*
X4371491Y-15841722D02*
X4361967Y-15860769D01*
X4600063Y-15746484D02*
X4619110Y-15746484D01*
X4619110Y-15746484D02*
X4638158Y-15756008D01*
X4638158Y-15756008D02*
X4647682Y-15765531D01*
X4647682Y-15765531D02*
X4657205Y-15784579D01*
X4657205Y-15784579D02*
X4666729Y-15822674D01*
X4666729Y-15822674D02*
X4666729Y-15870293D01*
X4666729Y-15870293D02*
X4657205Y-15908388D01*
X4657205Y-15908388D02*
X4647682Y-15927436D01*
X4647682Y-15927436D02*
X4638158Y-15936960D01*
X4638158Y-15936960D02*
X4619110Y-15946484D01*
X4619110Y-15946484D02*
X4600063Y-15946484D01*
X4600063Y-15946484D02*
X4581015Y-15936960D01*
X4581015Y-15936960D02*
X4571491Y-15927436D01*
X4571491Y-15927436D02*
X4561967Y-15908388D01*
X4561967Y-15908388D02*
X4552444Y-15870293D01*
X4552444Y-15870293D02*
X4552444Y-15822674D01*
X4552444Y-15822674D02*
X4561967Y-15784579D01*
X4561967Y-15784579D02*
X4571491Y-15765531D01*
X4571491Y-15765531D02*
X4581015Y-15756008D01*
X4581015Y-15756008D02*
X4600063Y-15746484D01*
X4790539Y-15746484D02*
X4809586Y-15746484D01*
X4809586Y-15746484D02*
X4828634Y-15756008D01*
X4828634Y-15756008D02*
X4838158Y-15765531D01*
X4838158Y-15765531D02*
X4847682Y-15784579D01*
X4847682Y-15784579D02*
X4857205Y-15822674D01*
X4857205Y-15822674D02*
X4857205Y-15870293D01*
X4857205Y-15870293D02*
X4847682Y-15908388D01*
X4847682Y-15908388D02*
X4838158Y-15927436D01*
X4838158Y-15927436D02*
X4828634Y-15936960D01*
X4828634Y-15936960D02*
X4809586Y-15946484D01*
X4809586Y-15946484D02*
X4790539Y-15946484D01*
X4790539Y-15946484D02*
X4771491Y-15936960D01*
X4771491Y-15936960D02*
X4761967Y-15927436D01*
X4761967Y-15927436D02*
X4752444Y-15908388D01*
X4752444Y-15908388D02*
X4742920Y-15870293D01*
X4742920Y-15870293D02*
X4742920Y-15822674D01*
X4742920Y-15822674D02*
X4752444Y-15784579D01*
X4752444Y-15784579D02*
X4761967Y-15765531D01*
X4761967Y-15765531D02*
X4771491Y-15756008D01*
X4771491Y-15756008D02*
X4790539Y-15746484D01*
X4942920Y-15946484D02*
X4942920Y-15813150D01*
X4942920Y-15832198D02*
X4952444Y-15822674D01*
X4952444Y-15822674D02*
X4971491Y-15813150D01*
X4971491Y-15813150D02*
X5000063Y-15813150D01*
X5000063Y-15813150D02*
X5019110Y-15822674D01*
X5019110Y-15822674D02*
X5028634Y-15841722D01*
X5028634Y-15841722D02*
X5028634Y-15946484D01*
X5028634Y-15841722D02*
X5038158Y-15822674D01*
X5038158Y-15822674D02*
X5057205Y-15813150D01*
X5057205Y-15813150D02*
X5085777Y-15813150D01*
X5085777Y-15813150D02*
X5104825Y-15822674D01*
X5104825Y-15822674D02*
X5114348Y-15841722D01*
X5114348Y-15841722D02*
X5114348Y-15946484D01*
X5209586Y-15946484D02*
X5209586Y-15813150D01*
X5209586Y-15832198D02*
X5219110Y-15822674D01*
X5219110Y-15822674D02*
X5238158Y-15813150D01*
X5238158Y-15813150D02*
X5266729Y-15813150D01*
X5266729Y-15813150D02*
X5285777Y-15822674D01*
X5285777Y-15822674D02*
X5295301Y-15841722D01*
X5295301Y-15841722D02*
X5295301Y-15946484D01*
X5295301Y-15841722D02*
X5304825Y-15822674D01*
X5304825Y-15822674D02*
X5323872Y-15813150D01*
X5323872Y-15813150D02*
X5352444Y-15813150D01*
X5352444Y-15813150D02*
X5371491Y-15822674D01*
X5371491Y-15822674D02*
X5381015Y-15841722D01*
X5381015Y-15841722D02*
X5381015Y-15946484D01*
X5771491Y-15736960D02*
X5600063Y-15994103D01*
X6028634Y-15746484D02*
X6047682Y-15746484D01*
X6047682Y-15746484D02*
X6066729Y-15756008D01*
X6066729Y-15756008D02*
X6076253Y-15765531D01*
X6076253Y-15765531D02*
X6085777Y-15784579D01*
X6085777Y-15784579D02*
X6095301Y-15822674D01*
X6095301Y-15822674D02*
X6095301Y-15870293D01*
X6095301Y-15870293D02*
X6085777Y-15908388D01*
X6085777Y-15908388D02*
X6076253Y-15927436D01*
X6076253Y-15927436D02*
X6066729Y-15936960D01*
X6066729Y-15936960D02*
X6047682Y-15946484D01*
X6047682Y-15946484D02*
X6028634Y-15946484D01*
X6028634Y-15946484D02*
X6009586Y-15936960D01*
X6009586Y-15936960D02*
X6000063Y-15927436D01*
X6000063Y-15927436D02*
X5990539Y-15908388D01*
X5990539Y-15908388D02*
X5981015Y-15870293D01*
X5981015Y-15870293D02*
X5981015Y-15822674D01*
X5981015Y-15822674D02*
X5990539Y-15784579D01*
X5990539Y-15784579D02*
X6000063Y-15765531D01*
X6000063Y-15765531D02*
X6009586Y-15756008D01*
X6009586Y-15756008D02*
X6028634Y-15746484D01*
X6181015Y-15927436D02*
X6190539Y-15936960D01*
X6190539Y-15936960D02*
X6181015Y-15946484D01*
X6181015Y-15946484D02*
X6171491Y-15936960D01*
X6171491Y-15936960D02*
X6181015Y-15927436D01*
X6181015Y-15927436D02*
X6181015Y-15946484D01*
X6314348Y-15746484D02*
X6333396Y-15746484D01*
X6333396Y-15746484D02*
X6352444Y-15756008D01*
X6352444Y-15756008D02*
X6361967Y-15765531D01*
X6361967Y-15765531D02*
X6371491Y-15784579D01*
X6371491Y-15784579D02*
X6381015Y-15822674D01*
X6381015Y-15822674D02*
X6381015Y-15870293D01*
X6381015Y-15870293D02*
X6371491Y-15908388D01*
X6371491Y-15908388D02*
X6361967Y-15927436D01*
X6361967Y-15927436D02*
X6352444Y-15936960D01*
X6352444Y-15936960D02*
X6333396Y-15946484D01*
X6333396Y-15946484D02*
X6314348Y-15946484D01*
X6314348Y-15946484D02*
X6295301Y-15936960D01*
X6295301Y-15936960D02*
X6285777Y-15927436D01*
X6285777Y-15927436D02*
X6276253Y-15908388D01*
X6276253Y-15908388D02*
X6266729Y-15870293D01*
X6266729Y-15870293D02*
X6266729Y-15822674D01*
X6266729Y-15822674D02*
X6276253Y-15784579D01*
X6276253Y-15784579D02*
X6285777Y-15765531D01*
X6285777Y-15765531D02*
X6295301Y-15756008D01*
X6295301Y-15756008D02*
X6314348Y-15746484D01*
X6457206Y-15765531D02*
X6466729Y-15756008D01*
X6466729Y-15756008D02*
X6485777Y-15746484D01*
X6485777Y-15746484D02*
X6533396Y-15746484D01*
X6533396Y-15746484D02*
X6552444Y-15756008D01*
X6552444Y-15756008D02*
X6561967Y-15765531D01*
X6561967Y-15765531D02*
X6571491Y-15784579D01*
X6571491Y-15784579D02*
X6571491Y-15803627D01*
X6571491Y-15803627D02*
X6561967Y-15832198D01*
X6561967Y-15832198D02*
X6447682Y-15946484D01*
X6447682Y-15946484D02*
X6571491Y-15946484D01*
X6638158Y-15746484D02*
X6761967Y-15746484D01*
X6761967Y-15746484D02*
X6695301Y-15822674D01*
X6695301Y-15822674D02*
X6723872Y-15822674D01*
X6723872Y-15822674D02*
X6742920Y-15832198D01*
X6742920Y-15832198D02*
X6752444Y-15841722D01*
X6752444Y-15841722D02*
X6761967Y-15860769D01*
X6761967Y-15860769D02*
X6761967Y-15908388D01*
X6761967Y-15908388D02*
X6752444Y-15927436D01*
X6752444Y-15927436D02*
X6742920Y-15936960D01*
X6742920Y-15936960D02*
X6723872Y-15946484D01*
X6723872Y-15946484D02*
X6666729Y-15946484D01*
X6666729Y-15946484D02*
X6647682Y-15936960D01*
X6647682Y-15936960D02*
X6638158Y-15927436D01*
X6933396Y-15746484D02*
X6895301Y-15746484D01*
X6895301Y-15746484D02*
X6876253Y-15756008D01*
X6876253Y-15756008D02*
X6866729Y-15765531D01*
X6866729Y-15765531D02*
X6847682Y-15794103D01*
X6847682Y-15794103D02*
X6838158Y-15832198D01*
X6838158Y-15832198D02*
X6838158Y-15908388D01*
X6838158Y-15908388D02*
X6847682Y-15927436D01*
X6847682Y-15927436D02*
X6857206Y-15936960D01*
X6857206Y-15936960D02*
X6876253Y-15946484D01*
X6876253Y-15946484D02*
X6914348Y-15946484D01*
X6914348Y-15946484D02*
X6933396Y-15936960D01*
X6933396Y-15936960D02*
X6942920Y-15927436D01*
X6942920Y-15927436D02*
X6952444Y-15908388D01*
X6952444Y-15908388D02*
X6952444Y-15860769D01*
X6952444Y-15860769D02*
X6942920Y-15841722D01*
X6942920Y-15841722D02*
X6933396Y-15832198D01*
X6933396Y-15832198D02*
X6914348Y-15822674D01*
X6914348Y-15822674D02*
X6876253Y-15822674D01*
X6876253Y-15822674D02*
X6857206Y-15832198D01*
X6857206Y-15832198D02*
X6847682Y-15841722D01*
X6847682Y-15841722D02*
X6838158Y-15860769D01*
X7028634Y-15746484D02*
X7028634Y-15784579D01*
X7104825Y-15746484D02*
X7104825Y-15784579D01*
X7400063Y-16022674D02*
X7390539Y-16013150D01*
X7390539Y-16013150D02*
X7371491Y-15984579D01*
X7371491Y-15984579D02*
X7361968Y-15965531D01*
X7361968Y-15965531D02*
X7352444Y-15936960D01*
X7352444Y-15936960D02*
X7342920Y-15889341D01*
X7342920Y-15889341D02*
X7342920Y-15851246D01*
X7342920Y-15851246D02*
X7352444Y-15803627D01*
X7352444Y-15803627D02*
X7361968Y-15775055D01*
X7361968Y-15775055D02*
X7371491Y-15756008D01*
X7371491Y-15756008D02*
X7390539Y-15727436D01*
X7390539Y-15727436D02*
X7400063Y-15717912D01*
X7466729Y-15765531D02*
X7476253Y-15756008D01*
X7476253Y-15756008D02*
X7495301Y-15746484D01*
X7495301Y-15746484D02*
X7542920Y-15746484D01*
X7542920Y-15746484D02*
X7561968Y-15756008D01*
X7561968Y-15756008D02*
X7571491Y-15765531D01*
X7571491Y-15765531D02*
X7581015Y-15784579D01*
X7581015Y-15784579D02*
X7581015Y-15803627D01*
X7581015Y-15803627D02*
X7571491Y-15832198D01*
X7571491Y-15832198D02*
X7457206Y-15946484D01*
X7457206Y-15946484D02*
X7581015Y-15946484D01*
X7819110Y-15946484D02*
X7819110Y-15746484D01*
X7904825Y-15946484D02*
X7904825Y-15841722D01*
X7904825Y-15841722D02*
X7895301Y-15822674D01*
X7895301Y-15822674D02*
X7876253Y-15813150D01*
X7876253Y-15813150D02*
X7847682Y-15813150D01*
X7847682Y-15813150D02*
X7828634Y-15822674D01*
X7828634Y-15822674D02*
X7819110Y-15832198D01*
X8028634Y-15946484D02*
X8009587Y-15936960D01*
X8009587Y-15936960D02*
X8000063Y-15927436D01*
X8000063Y-15927436D02*
X7990539Y-15908388D01*
X7990539Y-15908388D02*
X7990539Y-15851246D01*
X7990539Y-15851246D02*
X8000063Y-15832198D01*
X8000063Y-15832198D02*
X8009587Y-15822674D01*
X8009587Y-15822674D02*
X8028634Y-15813150D01*
X8028634Y-15813150D02*
X8057206Y-15813150D01*
X8057206Y-15813150D02*
X8076253Y-15822674D01*
X8076253Y-15822674D02*
X8085777Y-15832198D01*
X8085777Y-15832198D02*
X8095301Y-15851246D01*
X8095301Y-15851246D02*
X8095301Y-15908388D01*
X8095301Y-15908388D02*
X8085777Y-15927436D01*
X8085777Y-15927436D02*
X8076253Y-15936960D01*
X8076253Y-15936960D02*
X8057206Y-15946484D01*
X8057206Y-15946484D02*
X8028634Y-15946484D01*
X8209587Y-15946484D02*
X8190539Y-15936960D01*
X8190539Y-15936960D02*
X8181015Y-15917912D01*
X8181015Y-15917912D02*
X8181015Y-15746484D01*
X8361968Y-15936960D02*
X8342920Y-15946484D01*
X8342920Y-15946484D02*
X8304825Y-15946484D01*
X8304825Y-15946484D02*
X8285777Y-15936960D01*
X8285777Y-15936960D02*
X8276253Y-15917912D01*
X8276253Y-15917912D02*
X8276253Y-15841722D01*
X8276253Y-15841722D02*
X8285777Y-15822674D01*
X8285777Y-15822674D02*
X8304825Y-15813150D01*
X8304825Y-15813150D02*
X8342920Y-15813150D01*
X8342920Y-15813150D02*
X8361968Y-15822674D01*
X8361968Y-15822674D02*
X8371491Y-15841722D01*
X8371491Y-15841722D02*
X8371491Y-15860769D01*
X8371491Y-15860769D02*
X8276253Y-15879817D01*
X8447682Y-15936960D02*
X8466730Y-15946484D01*
X8466730Y-15946484D02*
X8504825Y-15946484D01*
X8504825Y-15946484D02*
X8523873Y-15936960D01*
X8523873Y-15936960D02*
X8533396Y-15917912D01*
X8533396Y-15917912D02*
X8533396Y-15908388D01*
X8533396Y-15908388D02*
X8523873Y-15889341D01*
X8523873Y-15889341D02*
X8504825Y-15879817D01*
X8504825Y-15879817D02*
X8476253Y-15879817D01*
X8476253Y-15879817D02*
X8457206Y-15870293D01*
X8457206Y-15870293D02*
X8447682Y-15851246D01*
X8447682Y-15851246D02*
X8447682Y-15841722D01*
X8447682Y-15841722D02*
X8457206Y-15822674D01*
X8457206Y-15822674D02*
X8476253Y-15813150D01*
X8476253Y-15813150D02*
X8504825Y-15813150D01*
X8504825Y-15813150D02*
X8523873Y-15822674D01*
X8600063Y-16022674D02*
X8609587Y-16013150D01*
X8609587Y-16013150D02*
X8628634Y-15984579D01*
X8628634Y-15984579D02*
X8638158Y-15965531D01*
X8638158Y-15965531D02*
X8647682Y-15936960D01*
X8647682Y-15936960D02*
X8657206Y-15889341D01*
X8657206Y-15889341D02*
X8657206Y-15851246D01*
X8657206Y-15851246D02*
X8647682Y-15803627D01*
X8647682Y-15803627D02*
X8638158Y-15775055D01*
X8638158Y-15775055D02*
X8628634Y-15756008D01*
X8628634Y-15756008D02*
X8609587Y-15727436D01*
X8609587Y-15727436D02*
X8600063Y-15717912D01*
X8961968Y-16022674D02*
X8952444Y-16013150D01*
X8952444Y-16013150D02*
X8933396Y-15984579D01*
X8933396Y-15984579D02*
X8923873Y-15965531D01*
X8923873Y-15965531D02*
X8914349Y-15936960D01*
X8914349Y-15936960D02*
X8904825Y-15889341D01*
X8904825Y-15889341D02*
X8904825Y-15851246D01*
X8904825Y-15851246D02*
X8914349Y-15803627D01*
X8914349Y-15803627D02*
X8923873Y-15775055D01*
X8923873Y-15775055D02*
X8933396Y-15756008D01*
X8933396Y-15756008D02*
X8952444Y-15727436D01*
X8952444Y-15727436D02*
X8961968Y-15717912D01*
X9038158Y-15813150D02*
X9038158Y-15946484D01*
X9038158Y-15832198D02*
X9047682Y-15822674D01*
X9047682Y-15822674D02*
X9066730Y-15813150D01*
X9066730Y-15813150D02*
X9095301Y-15813150D01*
X9095301Y-15813150D02*
X9114349Y-15822674D01*
X9114349Y-15822674D02*
X9123873Y-15841722D01*
X9123873Y-15841722D02*
X9123873Y-15946484D01*
X9247682Y-15946484D02*
X9228634Y-15936960D01*
X9228634Y-15936960D02*
X9219111Y-15927436D01*
X9219111Y-15927436D02*
X9209587Y-15908388D01*
X9209587Y-15908388D02*
X9209587Y-15851246D01*
X9209587Y-15851246D02*
X9219111Y-15832198D01*
X9219111Y-15832198D02*
X9228634Y-15822674D01*
X9228634Y-15822674D02*
X9247682Y-15813150D01*
X9247682Y-15813150D02*
X9276254Y-15813150D01*
X9276254Y-15813150D02*
X9295301Y-15822674D01*
X9295301Y-15822674D02*
X9304825Y-15832198D01*
X9304825Y-15832198D02*
X9314349Y-15851246D01*
X9314349Y-15851246D02*
X9314349Y-15908388D01*
X9314349Y-15908388D02*
X9304825Y-15927436D01*
X9304825Y-15927436D02*
X9295301Y-15936960D01*
X9295301Y-15936960D02*
X9276254Y-15946484D01*
X9276254Y-15946484D02*
X9247682Y-15946484D01*
X9371492Y-15813150D02*
X9447682Y-15813150D01*
X9400063Y-15746484D02*
X9400063Y-15917912D01*
X9400063Y-15917912D02*
X9409587Y-15936960D01*
X9409587Y-15936960D02*
X9428634Y-15946484D01*
X9428634Y-15946484D02*
X9447682Y-15946484D01*
X9666730Y-15813150D02*
X9666730Y-16013150D01*
X9666730Y-15822674D02*
X9685777Y-15813150D01*
X9685777Y-15813150D02*
X9723873Y-15813150D01*
X9723873Y-15813150D02*
X9742920Y-15822674D01*
X9742920Y-15822674D02*
X9752444Y-15832198D01*
X9752444Y-15832198D02*
X9761968Y-15851246D01*
X9761968Y-15851246D02*
X9761968Y-15908388D01*
X9761968Y-15908388D02*
X9752444Y-15927436D01*
X9752444Y-15927436D02*
X9742920Y-15936960D01*
X9742920Y-15936960D02*
X9723873Y-15946484D01*
X9723873Y-15946484D02*
X9685777Y-15946484D01*
X9685777Y-15946484D02*
X9666730Y-15936960D01*
X9876254Y-15946484D02*
X9857206Y-15936960D01*
X9857206Y-15936960D02*
X9847682Y-15917912D01*
X9847682Y-15917912D02*
X9847682Y-15746484D01*
X10038158Y-15946484D02*
X10038158Y-15841722D01*
X10038158Y-15841722D02*
X10028635Y-15822674D01*
X10028635Y-15822674D02*
X10009587Y-15813150D01*
X10009587Y-15813150D02*
X9971492Y-15813150D01*
X9971492Y-15813150D02*
X9952444Y-15822674D01*
X10038158Y-15936960D02*
X10019111Y-15946484D01*
X10019111Y-15946484D02*
X9971492Y-15946484D01*
X9971492Y-15946484D02*
X9952444Y-15936960D01*
X9952444Y-15936960D02*
X9942920Y-15917912D01*
X9942920Y-15917912D02*
X9942920Y-15898865D01*
X9942920Y-15898865D02*
X9952444Y-15879817D01*
X9952444Y-15879817D02*
X9971492Y-15870293D01*
X9971492Y-15870293D02*
X10019111Y-15870293D01*
X10019111Y-15870293D02*
X10038158Y-15860769D01*
X10104825Y-15813150D02*
X10181015Y-15813150D01*
X10133396Y-15746484D02*
X10133396Y-15917912D01*
X10133396Y-15917912D02*
X10142920Y-15936960D01*
X10142920Y-15936960D02*
X10161968Y-15946484D01*
X10161968Y-15946484D02*
X10181015Y-15946484D01*
X10323873Y-15936960D02*
X10304825Y-15946484D01*
X10304825Y-15946484D02*
X10266730Y-15946484D01*
X10266730Y-15946484D02*
X10247682Y-15936960D01*
X10247682Y-15936960D02*
X10238158Y-15917912D01*
X10238158Y-15917912D02*
X10238158Y-15841722D01*
X10238158Y-15841722D02*
X10247682Y-15822674D01*
X10247682Y-15822674D02*
X10266730Y-15813150D01*
X10266730Y-15813150D02*
X10304825Y-15813150D01*
X10304825Y-15813150D02*
X10323873Y-15822674D01*
X10323873Y-15822674D02*
X10333396Y-15841722D01*
X10333396Y-15841722D02*
X10333396Y-15860769D01*
X10333396Y-15860769D02*
X10238158Y-15879817D01*
X10504825Y-15946484D02*
X10504825Y-15746484D01*
X10504825Y-15936960D02*
X10485777Y-15946484D01*
X10485777Y-15946484D02*
X10447682Y-15946484D01*
X10447682Y-15946484D02*
X10428635Y-15936960D01*
X10428635Y-15936960D02*
X10419111Y-15927436D01*
X10419111Y-15927436D02*
X10409587Y-15908388D01*
X10409587Y-15908388D02*
X10409587Y-15851246D01*
X10409587Y-15851246D02*
X10419111Y-15832198D01*
X10419111Y-15832198D02*
X10428635Y-15822674D01*
X10428635Y-15822674D02*
X10447682Y-15813150D01*
X10447682Y-15813150D02*
X10485777Y-15813150D01*
X10485777Y-15813150D02*
X10504825Y-15822674D01*
X10581016Y-16022674D02*
X10590539Y-16013150D01*
X10590539Y-16013150D02*
X10609587Y-15984579D01*
X10609587Y-15984579D02*
X10619111Y-15965531D01*
X10619111Y-15965531D02*
X10628635Y-15936960D01*
X10628635Y-15936960D02*
X10638158Y-15889341D01*
X10638158Y-15889341D02*
X10638158Y-15851246D01*
X10638158Y-15851246D02*
X10628635Y-15803627D01*
X10628635Y-15803627D02*
X10619111Y-15775055D01*
X10619111Y-15775055D02*
X10609587Y-15756008D01*
X10609587Y-15756008D02*
X10590539Y-15727436D01*
X10590539Y-15727436D02*
X10581016Y-15717912D01*
D13*
X3825000Y-16119000D02*
G75*
G03*
X3825000Y-16119000I-85090J0D01*
G01*
D11*
X4190539Y-16210484D02*
X4076253Y-16210484D01*
X4133396Y-16210484D02*
X4133396Y-16010484D01*
X4133396Y-16010484D02*
X4114348Y-16039055D01*
X4114348Y-16039055D02*
X4095301Y-16058103D01*
X4095301Y-16058103D02*
X4076253Y-16067627D01*
X4276253Y-16191436D02*
X4285777Y-16200960D01*
X4285777Y-16200960D02*
X4276253Y-16210484D01*
X4276253Y-16210484D02*
X4266729Y-16200960D01*
X4266729Y-16200960D02*
X4276253Y-16191436D01*
X4276253Y-16191436D02*
X4276253Y-16210484D01*
X4352444Y-16010484D02*
X4485777Y-16010484D01*
X4485777Y-16010484D02*
X4400063Y-16210484D01*
X4600063Y-16010484D02*
X4619110Y-16010484D01*
X4619110Y-16010484D02*
X4638158Y-16020008D01*
X4638158Y-16020008D02*
X4647682Y-16029531D01*
X4647682Y-16029531D02*
X4657205Y-16048579D01*
X4657205Y-16048579D02*
X4666729Y-16086674D01*
X4666729Y-16086674D02*
X4666729Y-16134293D01*
X4666729Y-16134293D02*
X4657205Y-16172388D01*
X4657205Y-16172388D02*
X4647682Y-16191436D01*
X4647682Y-16191436D02*
X4638158Y-16200960D01*
X4638158Y-16200960D02*
X4619110Y-16210484D01*
X4619110Y-16210484D02*
X4600063Y-16210484D01*
X4600063Y-16210484D02*
X4581015Y-16200960D01*
X4581015Y-16200960D02*
X4571491Y-16191436D01*
X4571491Y-16191436D02*
X4561967Y-16172388D01*
X4561967Y-16172388D02*
X4552444Y-16134293D01*
X4552444Y-16134293D02*
X4552444Y-16086674D01*
X4552444Y-16086674D02*
X4561967Y-16048579D01*
X4561967Y-16048579D02*
X4571491Y-16029531D01*
X4571491Y-16029531D02*
X4581015Y-16020008D01*
X4581015Y-16020008D02*
X4600063Y-16010484D01*
X4742920Y-16029531D02*
X4752444Y-16020008D01*
X4752444Y-16020008D02*
X4771491Y-16010484D01*
X4771491Y-16010484D02*
X4819110Y-16010484D01*
X4819110Y-16010484D02*
X4838158Y-16020008D01*
X4838158Y-16020008D02*
X4847682Y-16029531D01*
X4847682Y-16029531D02*
X4857205Y-16048579D01*
X4857205Y-16048579D02*
X4857205Y-16067627D01*
X4857205Y-16067627D02*
X4847682Y-16096198D01*
X4847682Y-16096198D02*
X4733396Y-16210484D01*
X4733396Y-16210484D02*
X4857205Y-16210484D01*
X4942920Y-16210484D02*
X4942920Y-16077150D01*
X4942920Y-16096198D02*
X4952444Y-16086674D01*
X4952444Y-16086674D02*
X4971491Y-16077150D01*
X4971491Y-16077150D02*
X5000063Y-16077150D01*
X5000063Y-16077150D02*
X5019110Y-16086674D01*
X5019110Y-16086674D02*
X5028634Y-16105722D01*
X5028634Y-16105722D02*
X5028634Y-16210484D01*
X5028634Y-16105722D02*
X5038158Y-16086674D01*
X5038158Y-16086674D02*
X5057205Y-16077150D01*
X5057205Y-16077150D02*
X5085777Y-16077150D01*
X5085777Y-16077150D02*
X5104825Y-16086674D01*
X5104825Y-16086674D02*
X5114348Y-16105722D01*
X5114348Y-16105722D02*
X5114348Y-16210484D01*
X5209586Y-16210484D02*
X5209586Y-16077150D01*
X5209586Y-16096198D02*
X5219110Y-16086674D01*
X5219110Y-16086674D02*
X5238158Y-16077150D01*
X5238158Y-16077150D02*
X5266729Y-16077150D01*
X5266729Y-16077150D02*
X5285777Y-16086674D01*
X5285777Y-16086674D02*
X5295301Y-16105722D01*
X5295301Y-16105722D02*
X5295301Y-16210484D01*
X5295301Y-16105722D02*
X5304825Y-16086674D01*
X5304825Y-16086674D02*
X5323872Y-16077150D01*
X5323872Y-16077150D02*
X5352444Y-16077150D01*
X5352444Y-16077150D02*
X5371491Y-16086674D01*
X5371491Y-16086674D02*
X5381015Y-16105722D01*
X5381015Y-16105722D02*
X5381015Y-16210484D01*
X5771491Y-16000960D02*
X5600063Y-16258103D01*
X6028634Y-16010484D02*
X6047682Y-16010484D01*
X6047682Y-16010484D02*
X6066729Y-16020008D01*
X6066729Y-16020008D02*
X6076253Y-16029531D01*
X6076253Y-16029531D02*
X6085777Y-16048579D01*
X6085777Y-16048579D02*
X6095301Y-16086674D01*
X6095301Y-16086674D02*
X6095301Y-16134293D01*
X6095301Y-16134293D02*
X6085777Y-16172388D01*
X6085777Y-16172388D02*
X6076253Y-16191436D01*
X6076253Y-16191436D02*
X6066729Y-16200960D01*
X6066729Y-16200960D02*
X6047682Y-16210484D01*
X6047682Y-16210484D02*
X6028634Y-16210484D01*
X6028634Y-16210484D02*
X6009586Y-16200960D01*
X6009586Y-16200960D02*
X6000063Y-16191436D01*
X6000063Y-16191436D02*
X5990539Y-16172388D01*
X5990539Y-16172388D02*
X5981015Y-16134293D01*
X5981015Y-16134293D02*
X5981015Y-16086674D01*
X5981015Y-16086674D02*
X5990539Y-16048579D01*
X5990539Y-16048579D02*
X6000063Y-16029531D01*
X6000063Y-16029531D02*
X6009586Y-16020008D01*
X6009586Y-16020008D02*
X6028634Y-16010484D01*
X6181015Y-16191436D02*
X6190539Y-16200960D01*
X6190539Y-16200960D02*
X6181015Y-16210484D01*
X6181015Y-16210484D02*
X6171491Y-16200960D01*
X6171491Y-16200960D02*
X6181015Y-16191436D01*
X6181015Y-16191436D02*
X6181015Y-16210484D01*
X6314348Y-16010484D02*
X6333396Y-16010484D01*
X6333396Y-16010484D02*
X6352444Y-16020008D01*
X6352444Y-16020008D02*
X6361967Y-16029531D01*
X6361967Y-16029531D02*
X6371491Y-16048579D01*
X6371491Y-16048579D02*
X6381015Y-16086674D01*
X6381015Y-16086674D02*
X6381015Y-16134293D01*
X6381015Y-16134293D02*
X6371491Y-16172388D01*
X6371491Y-16172388D02*
X6361967Y-16191436D01*
X6361967Y-16191436D02*
X6352444Y-16200960D01*
X6352444Y-16200960D02*
X6333396Y-16210484D01*
X6333396Y-16210484D02*
X6314348Y-16210484D01*
X6314348Y-16210484D02*
X6295301Y-16200960D01*
X6295301Y-16200960D02*
X6285777Y-16191436D01*
X6285777Y-16191436D02*
X6276253Y-16172388D01*
X6276253Y-16172388D02*
X6266729Y-16134293D01*
X6266729Y-16134293D02*
X6266729Y-16086674D01*
X6266729Y-16086674D02*
X6276253Y-16048579D01*
X6276253Y-16048579D02*
X6285777Y-16029531D01*
X6285777Y-16029531D02*
X6295301Y-16020008D01*
X6295301Y-16020008D02*
X6314348Y-16010484D01*
X6552444Y-16010484D02*
X6514348Y-16010484D01*
X6514348Y-16010484D02*
X6495301Y-16020008D01*
X6495301Y-16020008D02*
X6485777Y-16029531D01*
X6485777Y-16029531D02*
X6466729Y-16058103D01*
X6466729Y-16058103D02*
X6457206Y-16096198D01*
X6457206Y-16096198D02*
X6457206Y-16172388D01*
X6457206Y-16172388D02*
X6466729Y-16191436D01*
X6466729Y-16191436D02*
X6476253Y-16200960D01*
X6476253Y-16200960D02*
X6495301Y-16210484D01*
X6495301Y-16210484D02*
X6533396Y-16210484D01*
X6533396Y-16210484D02*
X6552444Y-16200960D01*
X6552444Y-16200960D02*
X6561967Y-16191436D01*
X6561967Y-16191436D02*
X6571491Y-16172388D01*
X6571491Y-16172388D02*
X6571491Y-16124769D01*
X6571491Y-16124769D02*
X6561967Y-16105722D01*
X6561967Y-16105722D02*
X6552444Y-16096198D01*
X6552444Y-16096198D02*
X6533396Y-16086674D01*
X6533396Y-16086674D02*
X6495301Y-16086674D01*
X6495301Y-16086674D02*
X6476253Y-16096198D01*
X6476253Y-16096198D02*
X6466729Y-16105722D01*
X6466729Y-16105722D02*
X6457206Y-16124769D01*
X6638158Y-16010484D02*
X6771491Y-16010484D01*
X6771491Y-16010484D02*
X6685777Y-16210484D01*
X6885777Y-16010484D02*
X6904825Y-16010484D01*
X6904825Y-16010484D02*
X6923872Y-16020008D01*
X6923872Y-16020008D02*
X6933396Y-16029531D01*
X6933396Y-16029531D02*
X6942920Y-16048579D01*
X6942920Y-16048579D02*
X6952444Y-16086674D01*
X6952444Y-16086674D02*
X6952444Y-16134293D01*
X6952444Y-16134293D02*
X6942920Y-16172388D01*
X6942920Y-16172388D02*
X6933396Y-16191436D01*
X6933396Y-16191436D02*
X6923872Y-16200960D01*
X6923872Y-16200960D02*
X6904825Y-16210484D01*
X6904825Y-16210484D02*
X6885777Y-16210484D01*
X6885777Y-16210484D02*
X6866729Y-16200960D01*
X6866729Y-16200960D02*
X6857206Y-16191436D01*
X6857206Y-16191436D02*
X6847682Y-16172388D01*
X6847682Y-16172388D02*
X6838158Y-16134293D01*
X6838158Y-16134293D02*
X6838158Y-16086674D01*
X6838158Y-16086674D02*
X6847682Y-16048579D01*
X6847682Y-16048579D02*
X6857206Y-16029531D01*
X6857206Y-16029531D02*
X6866729Y-16020008D01*
X6866729Y-16020008D02*
X6885777Y-16010484D01*
X7028634Y-16010484D02*
X7028634Y-16048579D01*
X7104825Y-16010484D02*
X7104825Y-16048579D01*
X7400063Y-16286674D02*
X7390539Y-16277150D01*
X7390539Y-16277150D02*
X7371491Y-16248579D01*
X7371491Y-16248579D02*
X7361968Y-16229531D01*
X7361968Y-16229531D02*
X7352444Y-16200960D01*
X7352444Y-16200960D02*
X7342920Y-16153341D01*
X7342920Y-16153341D02*
X7342920Y-16115246D01*
X7342920Y-16115246D02*
X7352444Y-16067627D01*
X7352444Y-16067627D02*
X7361968Y-16039055D01*
X7361968Y-16039055D02*
X7371491Y-16020008D01*
X7371491Y-16020008D02*
X7390539Y-15991436D01*
X7390539Y-15991436D02*
X7400063Y-15981912D01*
X7561968Y-16077150D02*
X7561968Y-16210484D01*
X7514348Y-16000960D02*
X7466729Y-16143817D01*
X7466729Y-16143817D02*
X7590539Y-16143817D01*
X7695301Y-16096198D02*
X7676253Y-16086674D01*
X7676253Y-16086674D02*
X7666729Y-16077150D01*
X7666729Y-16077150D02*
X7657206Y-16058103D01*
X7657206Y-16058103D02*
X7657206Y-16048579D01*
X7657206Y-16048579D02*
X7666729Y-16029531D01*
X7666729Y-16029531D02*
X7676253Y-16020008D01*
X7676253Y-16020008D02*
X7695301Y-16010484D01*
X7695301Y-16010484D02*
X7733396Y-16010484D01*
X7733396Y-16010484D02*
X7752444Y-16020008D01*
X7752444Y-16020008D02*
X7761968Y-16029531D01*
X7761968Y-16029531D02*
X7771491Y-16048579D01*
X7771491Y-16048579D02*
X7771491Y-16058103D01*
X7771491Y-16058103D02*
X7761968Y-16077150D01*
X7761968Y-16077150D02*
X7752444Y-16086674D01*
X7752444Y-16086674D02*
X7733396Y-16096198D01*
X7733396Y-16096198D02*
X7695301Y-16096198D01*
X7695301Y-16096198D02*
X7676253Y-16105722D01*
X7676253Y-16105722D02*
X7666729Y-16115246D01*
X7666729Y-16115246D02*
X7657206Y-16134293D01*
X7657206Y-16134293D02*
X7657206Y-16172388D01*
X7657206Y-16172388D02*
X7666729Y-16191436D01*
X7666729Y-16191436D02*
X7676253Y-16200960D01*
X7676253Y-16200960D02*
X7695301Y-16210484D01*
X7695301Y-16210484D02*
X7733396Y-16210484D01*
X7733396Y-16210484D02*
X7752444Y-16200960D01*
X7752444Y-16200960D02*
X7761968Y-16191436D01*
X7761968Y-16191436D02*
X7771491Y-16172388D01*
X7771491Y-16172388D02*
X7771491Y-16134293D01*
X7771491Y-16134293D02*
X7761968Y-16115246D01*
X7761968Y-16115246D02*
X7752444Y-16105722D01*
X7752444Y-16105722D02*
X7733396Y-16096198D01*
X8009587Y-16210484D02*
X8009587Y-16010484D01*
X8095301Y-16210484D02*
X8095301Y-16105722D01*
X8095301Y-16105722D02*
X8085777Y-16086674D01*
X8085777Y-16086674D02*
X8066730Y-16077150D01*
X8066730Y-16077150D02*
X8038158Y-16077150D01*
X8038158Y-16077150D02*
X8019110Y-16086674D01*
X8019110Y-16086674D02*
X8009587Y-16096198D01*
X8219110Y-16210484D02*
X8200063Y-16200960D01*
X8200063Y-16200960D02*
X8190539Y-16191436D01*
X8190539Y-16191436D02*
X8181015Y-16172388D01*
X8181015Y-16172388D02*
X8181015Y-16115246D01*
X8181015Y-16115246D02*
X8190539Y-16096198D01*
X8190539Y-16096198D02*
X8200063Y-16086674D01*
X8200063Y-16086674D02*
X8219110Y-16077150D01*
X8219110Y-16077150D02*
X8247682Y-16077150D01*
X8247682Y-16077150D02*
X8266730Y-16086674D01*
X8266730Y-16086674D02*
X8276253Y-16096198D01*
X8276253Y-16096198D02*
X8285777Y-16115246D01*
X8285777Y-16115246D02*
X8285777Y-16172388D01*
X8285777Y-16172388D02*
X8276253Y-16191436D01*
X8276253Y-16191436D02*
X8266730Y-16200960D01*
X8266730Y-16200960D02*
X8247682Y-16210484D01*
X8247682Y-16210484D02*
X8219110Y-16210484D01*
X8400063Y-16210484D02*
X8381015Y-16200960D01*
X8381015Y-16200960D02*
X8371491Y-16181912D01*
X8371491Y-16181912D02*
X8371491Y-16010484D01*
X8552444Y-16200960D02*
X8533396Y-16210484D01*
X8533396Y-16210484D02*
X8495301Y-16210484D01*
X8495301Y-16210484D02*
X8476253Y-16200960D01*
X8476253Y-16200960D02*
X8466730Y-16181912D01*
X8466730Y-16181912D02*
X8466730Y-16105722D01*
X8466730Y-16105722D02*
X8476253Y-16086674D01*
X8476253Y-16086674D02*
X8495301Y-16077150D01*
X8495301Y-16077150D02*
X8533396Y-16077150D01*
X8533396Y-16077150D02*
X8552444Y-16086674D01*
X8552444Y-16086674D02*
X8561968Y-16105722D01*
X8561968Y-16105722D02*
X8561968Y-16124769D01*
X8561968Y-16124769D02*
X8466730Y-16143817D01*
X8638158Y-16200960D02*
X8657206Y-16210484D01*
X8657206Y-16210484D02*
X8695301Y-16210484D01*
X8695301Y-16210484D02*
X8714349Y-16200960D01*
X8714349Y-16200960D02*
X8723873Y-16181912D01*
X8723873Y-16181912D02*
X8723873Y-16172388D01*
X8723873Y-16172388D02*
X8714349Y-16153341D01*
X8714349Y-16153341D02*
X8695301Y-16143817D01*
X8695301Y-16143817D02*
X8666730Y-16143817D01*
X8666730Y-16143817D02*
X8647682Y-16134293D01*
X8647682Y-16134293D02*
X8638158Y-16115246D01*
X8638158Y-16115246D02*
X8638158Y-16105722D01*
X8638158Y-16105722D02*
X8647682Y-16086674D01*
X8647682Y-16086674D02*
X8666730Y-16077150D01*
X8666730Y-16077150D02*
X8695301Y-16077150D01*
X8695301Y-16077150D02*
X8714349Y-16086674D01*
X8790539Y-16286674D02*
X8800063Y-16277150D01*
X8800063Y-16277150D02*
X8819111Y-16248579D01*
X8819111Y-16248579D02*
X8828634Y-16229531D01*
X8828634Y-16229531D02*
X8838158Y-16200960D01*
X8838158Y-16200960D02*
X8847682Y-16153341D01*
X8847682Y-16153341D02*
X8847682Y-16115246D01*
X8847682Y-16115246D02*
X8838158Y-16067627D01*
X8838158Y-16067627D02*
X8828634Y-16039055D01*
X8828634Y-16039055D02*
X8819111Y-16020008D01*
X8819111Y-16020008D02*
X8800063Y-15991436D01*
X8800063Y-15991436D02*
X8790539Y-15981912D01*
X9152444Y-16286674D02*
X9142920Y-16277150D01*
X9142920Y-16277150D02*
X9123873Y-16248579D01*
X9123873Y-16248579D02*
X9114349Y-16229531D01*
X9114349Y-16229531D02*
X9104825Y-16200960D01*
X9104825Y-16200960D02*
X9095301Y-16153341D01*
X9095301Y-16153341D02*
X9095301Y-16115246D01*
X9095301Y-16115246D02*
X9104825Y-16067627D01*
X9104825Y-16067627D02*
X9114349Y-16039055D01*
X9114349Y-16039055D02*
X9123873Y-16020008D01*
X9123873Y-16020008D02*
X9142920Y-15991436D01*
X9142920Y-15991436D02*
X9152444Y-15981912D01*
X9228634Y-16077150D02*
X9228634Y-16210484D01*
X9228634Y-16096198D02*
X9238158Y-16086674D01*
X9238158Y-16086674D02*
X9257206Y-16077150D01*
X9257206Y-16077150D02*
X9285777Y-16077150D01*
X9285777Y-16077150D02*
X9304825Y-16086674D01*
X9304825Y-16086674D02*
X9314349Y-16105722D01*
X9314349Y-16105722D02*
X9314349Y-16210484D01*
X9438158Y-16210484D02*
X9419111Y-16200960D01*
X9419111Y-16200960D02*
X9409587Y-16191436D01*
X9409587Y-16191436D02*
X9400063Y-16172388D01*
X9400063Y-16172388D02*
X9400063Y-16115246D01*
X9400063Y-16115246D02*
X9409587Y-16096198D01*
X9409587Y-16096198D02*
X9419111Y-16086674D01*
X9419111Y-16086674D02*
X9438158Y-16077150D01*
X9438158Y-16077150D02*
X9466730Y-16077150D01*
X9466730Y-16077150D02*
X9485777Y-16086674D01*
X9485777Y-16086674D02*
X9495301Y-16096198D01*
X9495301Y-16096198D02*
X9504825Y-16115246D01*
X9504825Y-16115246D02*
X9504825Y-16172388D01*
X9504825Y-16172388D02*
X9495301Y-16191436D01*
X9495301Y-16191436D02*
X9485777Y-16200960D01*
X9485777Y-16200960D02*
X9466730Y-16210484D01*
X9466730Y-16210484D02*
X9438158Y-16210484D01*
X9561968Y-16077150D02*
X9638158Y-16077150D01*
X9590539Y-16010484D02*
X9590539Y-16181912D01*
X9590539Y-16181912D02*
X9600063Y-16200960D01*
X9600063Y-16200960D02*
X9619111Y-16210484D01*
X9619111Y-16210484D02*
X9638158Y-16210484D01*
X9857206Y-16077150D02*
X9857206Y-16277150D01*
X9857206Y-16086674D02*
X9876254Y-16077150D01*
X9876254Y-16077150D02*
X9914349Y-16077150D01*
X9914349Y-16077150D02*
X9933396Y-16086674D01*
X9933396Y-16086674D02*
X9942920Y-16096198D01*
X9942920Y-16096198D02*
X9952444Y-16115246D01*
X9952444Y-16115246D02*
X9952444Y-16172388D01*
X9952444Y-16172388D02*
X9942920Y-16191436D01*
X9942920Y-16191436D02*
X9933396Y-16200960D01*
X9933396Y-16200960D02*
X9914349Y-16210484D01*
X9914349Y-16210484D02*
X9876254Y-16210484D01*
X9876254Y-16210484D02*
X9857206Y-16200960D01*
X10066730Y-16210484D02*
X10047682Y-16200960D01*
X10047682Y-16200960D02*
X10038158Y-16181912D01*
X10038158Y-16181912D02*
X10038158Y-16010484D01*
X10228635Y-16210484D02*
X10228635Y-16105722D01*
X10228635Y-16105722D02*
X10219111Y-16086674D01*
X10219111Y-16086674D02*
X10200063Y-16077150D01*
X10200063Y-16077150D02*
X10161968Y-16077150D01*
X10161968Y-16077150D02*
X10142920Y-16086674D01*
X10228635Y-16200960D02*
X10209587Y-16210484D01*
X10209587Y-16210484D02*
X10161968Y-16210484D01*
X10161968Y-16210484D02*
X10142920Y-16200960D01*
X10142920Y-16200960D02*
X10133396Y-16181912D01*
X10133396Y-16181912D02*
X10133396Y-16162865D01*
X10133396Y-16162865D02*
X10142920Y-16143817D01*
X10142920Y-16143817D02*
X10161968Y-16134293D01*
X10161968Y-16134293D02*
X10209587Y-16134293D01*
X10209587Y-16134293D02*
X10228635Y-16124769D01*
X10295301Y-16077150D02*
X10371492Y-16077150D01*
X10323873Y-16010484D02*
X10323873Y-16181912D01*
X10323873Y-16181912D02*
X10333396Y-16200960D01*
X10333396Y-16200960D02*
X10352444Y-16210484D01*
X10352444Y-16210484D02*
X10371492Y-16210484D01*
X10514349Y-16200960D02*
X10495301Y-16210484D01*
X10495301Y-16210484D02*
X10457206Y-16210484D01*
X10457206Y-16210484D02*
X10438158Y-16200960D01*
X10438158Y-16200960D02*
X10428635Y-16181912D01*
X10428635Y-16181912D02*
X10428635Y-16105722D01*
X10428635Y-16105722D02*
X10438158Y-16086674D01*
X10438158Y-16086674D02*
X10457206Y-16077150D01*
X10457206Y-16077150D02*
X10495301Y-16077150D01*
X10495301Y-16077150D02*
X10514349Y-16086674D01*
X10514349Y-16086674D02*
X10523873Y-16105722D01*
X10523873Y-16105722D02*
X10523873Y-16124769D01*
X10523873Y-16124769D02*
X10428635Y-16143817D01*
X10695301Y-16210484D02*
X10695301Y-16010484D01*
X10695301Y-16200960D02*
X10676254Y-16210484D01*
X10676254Y-16210484D02*
X10638158Y-16210484D01*
X10638158Y-16210484D02*
X10619111Y-16200960D01*
X10619111Y-16200960D02*
X10609587Y-16191436D01*
X10609587Y-16191436D02*
X10600063Y-16172388D01*
X10600063Y-16172388D02*
X10600063Y-16115246D01*
X10600063Y-16115246D02*
X10609587Y-16096198D01*
X10609587Y-16096198D02*
X10619111Y-16086674D01*
X10619111Y-16086674D02*
X10638158Y-16077150D01*
X10638158Y-16077150D02*
X10676254Y-16077150D01*
X10676254Y-16077150D02*
X10695301Y-16086674D01*
X10771492Y-16286674D02*
X10781016Y-16277150D01*
X10781016Y-16277150D02*
X10800063Y-16248579D01*
X10800063Y-16248579D02*
X10809587Y-16229531D01*
X10809587Y-16229531D02*
X10819111Y-16200960D01*
X10819111Y-16200960D02*
X10828635Y-16153341D01*
X10828635Y-16153341D02*
X10828635Y-16115246D01*
X10828635Y-16115246D02*
X10819111Y-16067627D01*
X10819111Y-16067627D02*
X10809587Y-16039055D01*
X10809587Y-16039055D02*
X10800063Y-16020008D01*
X10800063Y-16020008D02*
X10781016Y-15991436D01*
X10781016Y-15991436D02*
X10771492Y-15981912D01*
X3725000Y-16309180D02*
X3725000Y-16509180D01*
X3625000Y-16409180D02*
X3825000Y-16409180D01*
X4066729Y-16300664D02*
X4190539Y-16300664D01*
X4190539Y-16300664D02*
X4123872Y-16376854D01*
X4123872Y-16376854D02*
X4152443Y-16376854D01*
X4152443Y-16376854D02*
X4171491Y-16386378D01*
X4171491Y-16386378D02*
X4181015Y-16395902D01*
X4181015Y-16395902D02*
X4190539Y-16414949D01*
X4190539Y-16414949D02*
X4190539Y-16462568D01*
X4190539Y-16462568D02*
X4181015Y-16481616D01*
X4181015Y-16481616D02*
X4171491Y-16491140D01*
X4171491Y-16491140D02*
X4152443Y-16500664D01*
X4152443Y-16500664D02*
X4095301Y-16500664D01*
X4095301Y-16500664D02*
X4076253Y-16491140D01*
X4076253Y-16491140D02*
X4066729Y-16481616D01*
X4276253Y-16481616D02*
X4285777Y-16491140D01*
X4285777Y-16491140D02*
X4276253Y-16500664D01*
X4276253Y-16500664D02*
X4266729Y-16491140D01*
X4266729Y-16491140D02*
X4276253Y-16481616D01*
X4276253Y-16481616D02*
X4276253Y-16500664D01*
X4409586Y-16300664D02*
X4428634Y-16300664D01*
X4428634Y-16300664D02*
X4447682Y-16310188D01*
X4447682Y-16310188D02*
X4457205Y-16319711D01*
X4457205Y-16319711D02*
X4466729Y-16338759D01*
X4466729Y-16338759D02*
X4476253Y-16376854D01*
X4476253Y-16376854D02*
X4476253Y-16424473D01*
X4476253Y-16424473D02*
X4466729Y-16462568D01*
X4466729Y-16462568D02*
X4457205Y-16481616D01*
X4457205Y-16481616D02*
X4447682Y-16491140D01*
X4447682Y-16491140D02*
X4428634Y-16500664D01*
X4428634Y-16500664D02*
X4409586Y-16500664D01*
X4409586Y-16500664D02*
X4390539Y-16491140D01*
X4390539Y-16491140D02*
X4381015Y-16481616D01*
X4381015Y-16481616D02*
X4371491Y-16462568D01*
X4371491Y-16462568D02*
X4361967Y-16424473D01*
X4361967Y-16424473D02*
X4361967Y-16376854D01*
X4361967Y-16376854D02*
X4371491Y-16338759D01*
X4371491Y-16338759D02*
X4381015Y-16319711D01*
X4381015Y-16319711D02*
X4390539Y-16310188D01*
X4390539Y-16310188D02*
X4409586Y-16300664D01*
X4600063Y-16300664D02*
X4619110Y-16300664D01*
X4619110Y-16300664D02*
X4638158Y-16310188D01*
X4638158Y-16310188D02*
X4647682Y-16319711D01*
X4647682Y-16319711D02*
X4657205Y-16338759D01*
X4657205Y-16338759D02*
X4666729Y-16376854D01*
X4666729Y-16376854D02*
X4666729Y-16424473D01*
X4666729Y-16424473D02*
X4657205Y-16462568D01*
X4657205Y-16462568D02*
X4647682Y-16481616D01*
X4647682Y-16481616D02*
X4638158Y-16491140D01*
X4638158Y-16491140D02*
X4619110Y-16500664D01*
X4619110Y-16500664D02*
X4600063Y-16500664D01*
X4600063Y-16500664D02*
X4581015Y-16491140D01*
X4581015Y-16491140D02*
X4571491Y-16481616D01*
X4571491Y-16481616D02*
X4561967Y-16462568D01*
X4561967Y-16462568D02*
X4552444Y-16424473D01*
X4552444Y-16424473D02*
X4552444Y-16376854D01*
X4552444Y-16376854D02*
X4561967Y-16338759D01*
X4561967Y-16338759D02*
X4571491Y-16319711D01*
X4571491Y-16319711D02*
X4581015Y-16310188D01*
X4581015Y-16310188D02*
X4600063Y-16300664D01*
X4790539Y-16300664D02*
X4809586Y-16300664D01*
X4809586Y-16300664D02*
X4828634Y-16310188D01*
X4828634Y-16310188D02*
X4838158Y-16319711D01*
X4838158Y-16319711D02*
X4847682Y-16338759D01*
X4847682Y-16338759D02*
X4857205Y-16376854D01*
X4857205Y-16376854D02*
X4857205Y-16424473D01*
X4857205Y-16424473D02*
X4847682Y-16462568D01*
X4847682Y-16462568D02*
X4838158Y-16481616D01*
X4838158Y-16481616D02*
X4828634Y-16491140D01*
X4828634Y-16491140D02*
X4809586Y-16500664D01*
X4809586Y-16500664D02*
X4790539Y-16500664D01*
X4790539Y-16500664D02*
X4771491Y-16491140D01*
X4771491Y-16491140D02*
X4761967Y-16481616D01*
X4761967Y-16481616D02*
X4752444Y-16462568D01*
X4752444Y-16462568D02*
X4742920Y-16424473D01*
X4742920Y-16424473D02*
X4742920Y-16376854D01*
X4742920Y-16376854D02*
X4752444Y-16338759D01*
X4752444Y-16338759D02*
X4761967Y-16319711D01*
X4761967Y-16319711D02*
X4771491Y-16310188D01*
X4771491Y-16310188D02*
X4790539Y-16300664D01*
X4942920Y-16500664D02*
X4942920Y-16367330D01*
X4942920Y-16386378D02*
X4952444Y-16376854D01*
X4952444Y-16376854D02*
X4971491Y-16367330D01*
X4971491Y-16367330D02*
X5000063Y-16367330D01*
X5000063Y-16367330D02*
X5019110Y-16376854D01*
X5019110Y-16376854D02*
X5028634Y-16395902D01*
X5028634Y-16395902D02*
X5028634Y-16500664D01*
X5028634Y-16395902D02*
X5038158Y-16376854D01*
X5038158Y-16376854D02*
X5057205Y-16367330D01*
X5057205Y-16367330D02*
X5085777Y-16367330D01*
X5085777Y-16367330D02*
X5104825Y-16376854D01*
X5104825Y-16376854D02*
X5114348Y-16395902D01*
X5114348Y-16395902D02*
X5114348Y-16500664D01*
X5209586Y-16500664D02*
X5209586Y-16367330D01*
X5209586Y-16386378D02*
X5219110Y-16376854D01*
X5219110Y-16376854D02*
X5238158Y-16367330D01*
X5238158Y-16367330D02*
X5266729Y-16367330D01*
X5266729Y-16367330D02*
X5285777Y-16376854D01*
X5285777Y-16376854D02*
X5295301Y-16395902D01*
X5295301Y-16395902D02*
X5295301Y-16500664D01*
X5295301Y-16395902D02*
X5304825Y-16376854D01*
X5304825Y-16376854D02*
X5323872Y-16367330D01*
X5323872Y-16367330D02*
X5352444Y-16367330D01*
X5352444Y-16367330D02*
X5371491Y-16376854D01*
X5371491Y-16376854D02*
X5381015Y-16395902D01*
X5381015Y-16395902D02*
X5381015Y-16500664D01*
X5771491Y-16291140D02*
X5600063Y-16548283D01*
X6028634Y-16300664D02*
X6047682Y-16300664D01*
X6047682Y-16300664D02*
X6066729Y-16310188D01*
X6066729Y-16310188D02*
X6076253Y-16319711D01*
X6076253Y-16319711D02*
X6085777Y-16338759D01*
X6085777Y-16338759D02*
X6095301Y-16376854D01*
X6095301Y-16376854D02*
X6095301Y-16424473D01*
X6095301Y-16424473D02*
X6085777Y-16462568D01*
X6085777Y-16462568D02*
X6076253Y-16481616D01*
X6076253Y-16481616D02*
X6066729Y-16491140D01*
X6066729Y-16491140D02*
X6047682Y-16500664D01*
X6047682Y-16500664D02*
X6028634Y-16500664D01*
X6028634Y-16500664D02*
X6009586Y-16491140D01*
X6009586Y-16491140D02*
X6000063Y-16481616D01*
X6000063Y-16481616D02*
X5990539Y-16462568D01*
X5990539Y-16462568D02*
X5981015Y-16424473D01*
X5981015Y-16424473D02*
X5981015Y-16376854D01*
X5981015Y-16376854D02*
X5990539Y-16338759D01*
X5990539Y-16338759D02*
X6000063Y-16319711D01*
X6000063Y-16319711D02*
X6009586Y-16310188D01*
X6009586Y-16310188D02*
X6028634Y-16300664D01*
X6181015Y-16481616D02*
X6190539Y-16491140D01*
X6190539Y-16491140D02*
X6181015Y-16500664D01*
X6181015Y-16500664D02*
X6171491Y-16491140D01*
X6171491Y-16491140D02*
X6181015Y-16481616D01*
X6181015Y-16481616D02*
X6181015Y-16500664D01*
X6381015Y-16500664D02*
X6266729Y-16500664D01*
X6323872Y-16500664D02*
X6323872Y-16300664D01*
X6323872Y-16300664D02*
X6304825Y-16329235D01*
X6304825Y-16329235D02*
X6285777Y-16348283D01*
X6285777Y-16348283D02*
X6266729Y-16357807D01*
X6571491Y-16500664D02*
X6457206Y-16500664D01*
X6514348Y-16500664D02*
X6514348Y-16300664D01*
X6514348Y-16300664D02*
X6495301Y-16329235D01*
X6495301Y-16329235D02*
X6476253Y-16348283D01*
X6476253Y-16348283D02*
X6457206Y-16357807D01*
X6685777Y-16386378D02*
X6666729Y-16376854D01*
X6666729Y-16376854D02*
X6657206Y-16367330D01*
X6657206Y-16367330D02*
X6647682Y-16348283D01*
X6647682Y-16348283D02*
X6647682Y-16338759D01*
X6647682Y-16338759D02*
X6657206Y-16319711D01*
X6657206Y-16319711D02*
X6666729Y-16310188D01*
X6666729Y-16310188D02*
X6685777Y-16300664D01*
X6685777Y-16300664D02*
X6723872Y-16300664D01*
X6723872Y-16300664D02*
X6742920Y-16310188D01*
X6742920Y-16310188D02*
X6752444Y-16319711D01*
X6752444Y-16319711D02*
X6761967Y-16338759D01*
X6761967Y-16338759D02*
X6761967Y-16348283D01*
X6761967Y-16348283D02*
X6752444Y-16367330D01*
X6752444Y-16367330D02*
X6742920Y-16376854D01*
X6742920Y-16376854D02*
X6723872Y-16386378D01*
X6723872Y-16386378D02*
X6685777Y-16386378D01*
X6685777Y-16386378D02*
X6666729Y-16395902D01*
X6666729Y-16395902D02*
X6657206Y-16405426D01*
X6657206Y-16405426D02*
X6647682Y-16424473D01*
X6647682Y-16424473D02*
X6647682Y-16462568D01*
X6647682Y-16462568D02*
X6657206Y-16481616D01*
X6657206Y-16481616D02*
X6666729Y-16491140D01*
X6666729Y-16491140D02*
X6685777Y-16500664D01*
X6685777Y-16500664D02*
X6723872Y-16500664D01*
X6723872Y-16500664D02*
X6742920Y-16491140D01*
X6742920Y-16491140D02*
X6752444Y-16481616D01*
X6752444Y-16481616D02*
X6761967Y-16462568D01*
X6761967Y-16462568D02*
X6761967Y-16424473D01*
X6761967Y-16424473D02*
X6752444Y-16405426D01*
X6752444Y-16405426D02*
X6742920Y-16395902D01*
X6742920Y-16395902D02*
X6723872Y-16386378D01*
X6952444Y-16500664D02*
X6838158Y-16500664D01*
X6895301Y-16500664D02*
X6895301Y-16300664D01*
X6895301Y-16300664D02*
X6876253Y-16329235D01*
X6876253Y-16329235D02*
X6857206Y-16348283D01*
X6857206Y-16348283D02*
X6838158Y-16357807D01*
X7028634Y-16300664D02*
X7028634Y-16338759D01*
X7104825Y-16300664D02*
X7104825Y-16338759D01*
X7400063Y-16576854D02*
X7390539Y-16567330D01*
X7390539Y-16567330D02*
X7371491Y-16538759D01*
X7371491Y-16538759D02*
X7361968Y-16519711D01*
X7361968Y-16519711D02*
X7352444Y-16491140D01*
X7352444Y-16491140D02*
X7342920Y-16443521D01*
X7342920Y-16443521D02*
X7342920Y-16405426D01*
X7342920Y-16405426D02*
X7352444Y-16357807D01*
X7352444Y-16357807D02*
X7361968Y-16329235D01*
X7361968Y-16329235D02*
X7371491Y-16310188D01*
X7371491Y-16310188D02*
X7390539Y-16281616D01*
X7390539Y-16281616D02*
X7400063Y-16272092D01*
X7485777Y-16500664D02*
X7523872Y-16500664D01*
X7523872Y-16500664D02*
X7542920Y-16491140D01*
X7542920Y-16491140D02*
X7552444Y-16481616D01*
X7552444Y-16481616D02*
X7571491Y-16453045D01*
X7571491Y-16453045D02*
X7581015Y-16414949D01*
X7581015Y-16414949D02*
X7581015Y-16338759D01*
X7581015Y-16338759D02*
X7571491Y-16319711D01*
X7571491Y-16319711D02*
X7561968Y-16310188D01*
X7561968Y-16310188D02*
X7542920Y-16300664D01*
X7542920Y-16300664D02*
X7504825Y-16300664D01*
X7504825Y-16300664D02*
X7485777Y-16310188D01*
X7485777Y-16310188D02*
X7476253Y-16319711D01*
X7476253Y-16319711D02*
X7466729Y-16338759D01*
X7466729Y-16338759D02*
X7466729Y-16386378D01*
X7466729Y-16386378D02*
X7476253Y-16405426D01*
X7476253Y-16405426D02*
X7485777Y-16414949D01*
X7485777Y-16414949D02*
X7504825Y-16424473D01*
X7504825Y-16424473D02*
X7542920Y-16424473D01*
X7542920Y-16424473D02*
X7561968Y-16414949D01*
X7561968Y-16414949D02*
X7571491Y-16405426D01*
X7571491Y-16405426D02*
X7581015Y-16386378D01*
X7752444Y-16300664D02*
X7714348Y-16300664D01*
X7714348Y-16300664D02*
X7695301Y-16310188D01*
X7695301Y-16310188D02*
X7685777Y-16319711D01*
X7685777Y-16319711D02*
X7666729Y-16348283D01*
X7666729Y-16348283D02*
X7657206Y-16386378D01*
X7657206Y-16386378D02*
X7657206Y-16462568D01*
X7657206Y-16462568D02*
X7666729Y-16481616D01*
X7666729Y-16481616D02*
X7676253Y-16491140D01*
X7676253Y-16491140D02*
X7695301Y-16500664D01*
X7695301Y-16500664D02*
X7733396Y-16500664D01*
X7733396Y-16500664D02*
X7752444Y-16491140D01*
X7752444Y-16491140D02*
X7761968Y-16481616D01*
X7761968Y-16481616D02*
X7771491Y-16462568D01*
X7771491Y-16462568D02*
X7771491Y-16414949D01*
X7771491Y-16414949D02*
X7761968Y-16395902D01*
X7761968Y-16395902D02*
X7752444Y-16386378D01*
X7752444Y-16386378D02*
X7733396Y-16376854D01*
X7733396Y-16376854D02*
X7695301Y-16376854D01*
X7695301Y-16376854D02*
X7676253Y-16386378D01*
X7676253Y-16386378D02*
X7666729Y-16395902D01*
X7666729Y-16395902D02*
X7657206Y-16414949D01*
X8009587Y-16500664D02*
X8009587Y-16300664D01*
X8095301Y-16500664D02*
X8095301Y-16395902D01*
X8095301Y-16395902D02*
X8085777Y-16376854D01*
X8085777Y-16376854D02*
X8066730Y-16367330D01*
X8066730Y-16367330D02*
X8038158Y-16367330D01*
X8038158Y-16367330D02*
X8019110Y-16376854D01*
X8019110Y-16376854D02*
X8009587Y-16386378D01*
X8219110Y-16500664D02*
X8200063Y-16491140D01*
X8200063Y-16491140D02*
X8190539Y-16481616D01*
X8190539Y-16481616D02*
X8181015Y-16462568D01*
X8181015Y-16462568D02*
X8181015Y-16405426D01*
X8181015Y-16405426D02*
X8190539Y-16386378D01*
X8190539Y-16386378D02*
X8200063Y-16376854D01*
X8200063Y-16376854D02*
X8219110Y-16367330D01*
X8219110Y-16367330D02*
X8247682Y-16367330D01*
X8247682Y-16367330D02*
X8266730Y-16376854D01*
X8266730Y-16376854D02*
X8276253Y-16386378D01*
X8276253Y-16386378D02*
X8285777Y-16405426D01*
X8285777Y-16405426D02*
X8285777Y-16462568D01*
X8285777Y-16462568D02*
X8276253Y-16481616D01*
X8276253Y-16481616D02*
X8266730Y-16491140D01*
X8266730Y-16491140D02*
X8247682Y-16500664D01*
X8247682Y-16500664D02*
X8219110Y-16500664D01*
X8400063Y-16500664D02*
X8381015Y-16491140D01*
X8381015Y-16491140D02*
X8371491Y-16472092D01*
X8371491Y-16472092D02*
X8371491Y-16300664D01*
X8552444Y-16491140D02*
X8533396Y-16500664D01*
X8533396Y-16500664D02*
X8495301Y-16500664D01*
X8495301Y-16500664D02*
X8476253Y-16491140D01*
X8476253Y-16491140D02*
X8466730Y-16472092D01*
X8466730Y-16472092D02*
X8466730Y-16395902D01*
X8466730Y-16395902D02*
X8476253Y-16376854D01*
X8476253Y-16376854D02*
X8495301Y-16367330D01*
X8495301Y-16367330D02*
X8533396Y-16367330D01*
X8533396Y-16367330D02*
X8552444Y-16376854D01*
X8552444Y-16376854D02*
X8561968Y-16395902D01*
X8561968Y-16395902D02*
X8561968Y-16414949D01*
X8561968Y-16414949D02*
X8466730Y-16433997D01*
X8638158Y-16491140D02*
X8657206Y-16500664D01*
X8657206Y-16500664D02*
X8695301Y-16500664D01*
X8695301Y-16500664D02*
X8714349Y-16491140D01*
X8714349Y-16491140D02*
X8723873Y-16472092D01*
X8723873Y-16472092D02*
X8723873Y-16462568D01*
X8723873Y-16462568D02*
X8714349Y-16443521D01*
X8714349Y-16443521D02*
X8695301Y-16433997D01*
X8695301Y-16433997D02*
X8666730Y-16433997D01*
X8666730Y-16433997D02*
X8647682Y-16424473D01*
X8647682Y-16424473D02*
X8638158Y-16405426D01*
X8638158Y-16405426D02*
X8638158Y-16395902D01*
X8638158Y-16395902D02*
X8647682Y-16376854D01*
X8647682Y-16376854D02*
X8666730Y-16367330D01*
X8666730Y-16367330D02*
X8695301Y-16367330D01*
X8695301Y-16367330D02*
X8714349Y-16376854D01*
X8790539Y-16576854D02*
X8800063Y-16567330D01*
X8800063Y-16567330D02*
X8819111Y-16538759D01*
X8819111Y-16538759D02*
X8828634Y-16519711D01*
X8828634Y-16519711D02*
X8838158Y-16491140D01*
X8838158Y-16491140D02*
X8847682Y-16443521D01*
X8847682Y-16443521D02*
X8847682Y-16405426D01*
X8847682Y-16405426D02*
X8838158Y-16357807D01*
X8838158Y-16357807D02*
X8828634Y-16329235D01*
X8828634Y-16329235D02*
X8819111Y-16310188D01*
X8819111Y-16310188D02*
X8800063Y-16281616D01*
X8800063Y-16281616D02*
X8790539Y-16272092D01*
X9152444Y-16576854D02*
X9142920Y-16567330D01*
X9142920Y-16567330D02*
X9123873Y-16538759D01*
X9123873Y-16538759D02*
X9114349Y-16519711D01*
X9114349Y-16519711D02*
X9104825Y-16491140D01*
X9104825Y-16491140D02*
X9095301Y-16443521D01*
X9095301Y-16443521D02*
X9095301Y-16405426D01*
X9095301Y-16405426D02*
X9104825Y-16357807D01*
X9104825Y-16357807D02*
X9114349Y-16329235D01*
X9114349Y-16329235D02*
X9123873Y-16310188D01*
X9123873Y-16310188D02*
X9142920Y-16281616D01*
X9142920Y-16281616D02*
X9152444Y-16272092D01*
X9228634Y-16367330D02*
X9228634Y-16500664D01*
X9228634Y-16386378D02*
X9238158Y-16376854D01*
X9238158Y-16376854D02*
X9257206Y-16367330D01*
X9257206Y-16367330D02*
X9285777Y-16367330D01*
X9285777Y-16367330D02*
X9304825Y-16376854D01*
X9304825Y-16376854D02*
X9314349Y-16395902D01*
X9314349Y-16395902D02*
X9314349Y-16500664D01*
X9438158Y-16500664D02*
X9419111Y-16491140D01*
X9419111Y-16491140D02*
X9409587Y-16481616D01*
X9409587Y-16481616D02*
X9400063Y-16462568D01*
X9400063Y-16462568D02*
X9400063Y-16405426D01*
X9400063Y-16405426D02*
X9409587Y-16386378D01*
X9409587Y-16386378D02*
X9419111Y-16376854D01*
X9419111Y-16376854D02*
X9438158Y-16367330D01*
X9438158Y-16367330D02*
X9466730Y-16367330D01*
X9466730Y-16367330D02*
X9485777Y-16376854D01*
X9485777Y-16376854D02*
X9495301Y-16386378D01*
X9495301Y-16386378D02*
X9504825Y-16405426D01*
X9504825Y-16405426D02*
X9504825Y-16462568D01*
X9504825Y-16462568D02*
X9495301Y-16481616D01*
X9495301Y-16481616D02*
X9485777Y-16491140D01*
X9485777Y-16491140D02*
X9466730Y-16500664D01*
X9466730Y-16500664D02*
X9438158Y-16500664D01*
X9561968Y-16367330D02*
X9638158Y-16367330D01*
X9590539Y-16300664D02*
X9590539Y-16472092D01*
X9590539Y-16472092D02*
X9600063Y-16491140D01*
X9600063Y-16491140D02*
X9619111Y-16500664D01*
X9619111Y-16500664D02*
X9638158Y-16500664D01*
X9857206Y-16367330D02*
X9857206Y-16567330D01*
X9857206Y-16376854D02*
X9876254Y-16367330D01*
X9876254Y-16367330D02*
X9914349Y-16367330D01*
X9914349Y-16367330D02*
X9933396Y-16376854D01*
X9933396Y-16376854D02*
X9942920Y-16386378D01*
X9942920Y-16386378D02*
X9952444Y-16405426D01*
X9952444Y-16405426D02*
X9952444Y-16462568D01*
X9952444Y-16462568D02*
X9942920Y-16481616D01*
X9942920Y-16481616D02*
X9933396Y-16491140D01*
X9933396Y-16491140D02*
X9914349Y-16500664D01*
X9914349Y-16500664D02*
X9876254Y-16500664D01*
X9876254Y-16500664D02*
X9857206Y-16491140D01*
X10066730Y-16500664D02*
X10047682Y-16491140D01*
X10047682Y-16491140D02*
X10038158Y-16472092D01*
X10038158Y-16472092D02*
X10038158Y-16300664D01*
X10228635Y-16500664D02*
X10228635Y-16395902D01*
X10228635Y-16395902D02*
X10219111Y-16376854D01*
X10219111Y-16376854D02*
X10200063Y-16367330D01*
X10200063Y-16367330D02*
X10161968Y-16367330D01*
X10161968Y-16367330D02*
X10142920Y-16376854D01*
X10228635Y-16491140D02*
X10209587Y-16500664D01*
X10209587Y-16500664D02*
X10161968Y-16500664D01*
X10161968Y-16500664D02*
X10142920Y-16491140D01*
X10142920Y-16491140D02*
X10133396Y-16472092D01*
X10133396Y-16472092D02*
X10133396Y-16453045D01*
X10133396Y-16453045D02*
X10142920Y-16433997D01*
X10142920Y-16433997D02*
X10161968Y-16424473D01*
X10161968Y-16424473D02*
X10209587Y-16424473D01*
X10209587Y-16424473D02*
X10228635Y-16414949D01*
X10295301Y-16367330D02*
X10371492Y-16367330D01*
X10323873Y-16300664D02*
X10323873Y-16472092D01*
X10323873Y-16472092D02*
X10333396Y-16491140D01*
X10333396Y-16491140D02*
X10352444Y-16500664D01*
X10352444Y-16500664D02*
X10371492Y-16500664D01*
X10514349Y-16491140D02*
X10495301Y-16500664D01*
X10495301Y-16500664D02*
X10457206Y-16500664D01*
X10457206Y-16500664D02*
X10438158Y-16491140D01*
X10438158Y-16491140D02*
X10428635Y-16472092D01*
X10428635Y-16472092D02*
X10428635Y-16395902D01*
X10428635Y-16395902D02*
X10438158Y-16376854D01*
X10438158Y-16376854D02*
X10457206Y-16367330D01*
X10457206Y-16367330D02*
X10495301Y-16367330D01*
X10495301Y-16367330D02*
X10514349Y-16376854D01*
X10514349Y-16376854D02*
X10523873Y-16395902D01*
X10523873Y-16395902D02*
X10523873Y-16414949D01*
X10523873Y-16414949D02*
X10428635Y-16433997D01*
X10695301Y-16500664D02*
X10695301Y-16300664D01*
X10695301Y-16491140D02*
X10676254Y-16500664D01*
X10676254Y-16500664D02*
X10638158Y-16500664D01*
X10638158Y-16500664D02*
X10619111Y-16491140D01*
X10619111Y-16491140D02*
X10609587Y-16481616D01*
X10609587Y-16481616D02*
X10600063Y-16462568D01*
X10600063Y-16462568D02*
X10600063Y-16405426D01*
X10600063Y-16405426D02*
X10609587Y-16386378D01*
X10609587Y-16386378D02*
X10619111Y-16376854D01*
X10619111Y-16376854D02*
X10638158Y-16367330D01*
X10638158Y-16367330D02*
X10676254Y-16367330D01*
X10676254Y-16367330D02*
X10695301Y-16376854D01*
X10771492Y-16576854D02*
X10781016Y-16567330D01*
X10781016Y-16567330D02*
X10800063Y-16538759D01*
X10800063Y-16538759D02*
X10809587Y-16519711D01*
X10809587Y-16519711D02*
X10819111Y-16491140D01*
X10819111Y-16491140D02*
X10828635Y-16443521D01*
X10828635Y-16443521D02*
X10828635Y-16405426D01*
X10828635Y-16405426D02*
X10819111Y-16357807D01*
X10819111Y-16357807D02*
X10809587Y-16329235D01*
X10809587Y-16329235D02*
X10800063Y-16310188D01*
X10800063Y-16310188D02*
X10781016Y-16281616D01*
X10781016Y-16281616D02*
X10771492Y-16272092D01*
X3795711Y-16799891D02*
X3795711Y-16658469D01*
X3654289Y-16658469D01*
X3654289Y-16799891D01*
X3795711Y-16799891D01*
X4066729Y-16620664D02*
X4190539Y-16620664D01*
X4190539Y-16620664D02*
X4123872Y-16696854D01*
X4123872Y-16696854D02*
X4152443Y-16696854D01*
X4152443Y-16696854D02*
X4171491Y-16706378D01*
X4171491Y-16706378D02*
X4181015Y-16715902D01*
X4181015Y-16715902D02*
X4190539Y-16734949D01*
X4190539Y-16734949D02*
X4190539Y-16782569D01*
X4190539Y-16782569D02*
X4181015Y-16801616D01*
X4181015Y-16801616D02*
X4171491Y-16811140D01*
X4171491Y-16811140D02*
X4152443Y-16820664D01*
X4152443Y-16820664D02*
X4095301Y-16820664D01*
X4095301Y-16820664D02*
X4076253Y-16811140D01*
X4076253Y-16811140D02*
X4066729Y-16801616D01*
X4276253Y-16801616D02*
X4285777Y-16811140D01*
X4285777Y-16811140D02*
X4276253Y-16820664D01*
X4276253Y-16820664D02*
X4266729Y-16811140D01*
X4266729Y-16811140D02*
X4276253Y-16801616D01*
X4276253Y-16801616D02*
X4276253Y-16820664D01*
X4381015Y-16820664D02*
X4419110Y-16820664D01*
X4419110Y-16820664D02*
X4438158Y-16811140D01*
X4438158Y-16811140D02*
X4447682Y-16801616D01*
X4447682Y-16801616D02*
X4466729Y-16773045D01*
X4466729Y-16773045D02*
X4476253Y-16734949D01*
X4476253Y-16734949D02*
X4476253Y-16658759D01*
X4476253Y-16658759D02*
X4466729Y-16639711D01*
X4466729Y-16639711D02*
X4457205Y-16630188D01*
X4457205Y-16630188D02*
X4438158Y-16620664D01*
X4438158Y-16620664D02*
X4400063Y-16620664D01*
X4400063Y-16620664D02*
X4381015Y-16630188D01*
X4381015Y-16630188D02*
X4371491Y-16639711D01*
X4371491Y-16639711D02*
X4361967Y-16658759D01*
X4361967Y-16658759D02*
X4361967Y-16706378D01*
X4361967Y-16706378D02*
X4371491Y-16725426D01*
X4371491Y-16725426D02*
X4381015Y-16734949D01*
X4381015Y-16734949D02*
X4400063Y-16744473D01*
X4400063Y-16744473D02*
X4438158Y-16744473D01*
X4438158Y-16744473D02*
X4457205Y-16734949D01*
X4457205Y-16734949D02*
X4466729Y-16725426D01*
X4466729Y-16725426D02*
X4476253Y-16706378D01*
X4590539Y-16706378D02*
X4571491Y-16696854D01*
X4571491Y-16696854D02*
X4561967Y-16687330D01*
X4561967Y-16687330D02*
X4552444Y-16668283D01*
X4552444Y-16668283D02*
X4552444Y-16658759D01*
X4552444Y-16658759D02*
X4561967Y-16639711D01*
X4561967Y-16639711D02*
X4571491Y-16630188D01*
X4571491Y-16630188D02*
X4590539Y-16620664D01*
X4590539Y-16620664D02*
X4628634Y-16620664D01*
X4628634Y-16620664D02*
X4647682Y-16630188D01*
X4647682Y-16630188D02*
X4657205Y-16639711D01*
X4657205Y-16639711D02*
X4666729Y-16658759D01*
X4666729Y-16658759D02*
X4666729Y-16668283D01*
X4666729Y-16668283D02*
X4657205Y-16687330D01*
X4657205Y-16687330D02*
X4647682Y-16696854D01*
X4647682Y-16696854D02*
X4628634Y-16706378D01*
X4628634Y-16706378D02*
X4590539Y-16706378D01*
X4590539Y-16706378D02*
X4571491Y-16715902D01*
X4571491Y-16715902D02*
X4561967Y-16725426D01*
X4561967Y-16725426D02*
X4552444Y-16744473D01*
X4552444Y-16744473D02*
X4552444Y-16782569D01*
X4552444Y-16782569D02*
X4561967Y-16801616D01*
X4561967Y-16801616D02*
X4571491Y-16811140D01*
X4571491Y-16811140D02*
X4590539Y-16820664D01*
X4590539Y-16820664D02*
X4628634Y-16820664D01*
X4628634Y-16820664D02*
X4647682Y-16811140D01*
X4647682Y-16811140D02*
X4657205Y-16801616D01*
X4657205Y-16801616D02*
X4666729Y-16782569D01*
X4666729Y-16782569D02*
X4666729Y-16744473D01*
X4666729Y-16744473D02*
X4657205Y-16725426D01*
X4657205Y-16725426D02*
X4647682Y-16715902D01*
X4647682Y-16715902D02*
X4628634Y-16706378D01*
X4781015Y-16706378D02*
X4761967Y-16696854D01*
X4761967Y-16696854D02*
X4752444Y-16687330D01*
X4752444Y-16687330D02*
X4742920Y-16668283D01*
X4742920Y-16668283D02*
X4742920Y-16658759D01*
X4742920Y-16658759D02*
X4752444Y-16639711D01*
X4752444Y-16639711D02*
X4761967Y-16630188D01*
X4761967Y-16630188D02*
X4781015Y-16620664D01*
X4781015Y-16620664D02*
X4819110Y-16620664D01*
X4819110Y-16620664D02*
X4838158Y-16630188D01*
X4838158Y-16630188D02*
X4847682Y-16639711D01*
X4847682Y-16639711D02*
X4857205Y-16658759D01*
X4857205Y-16658759D02*
X4857205Y-16668283D01*
X4857205Y-16668283D02*
X4847682Y-16687330D01*
X4847682Y-16687330D02*
X4838158Y-16696854D01*
X4838158Y-16696854D02*
X4819110Y-16706378D01*
X4819110Y-16706378D02*
X4781015Y-16706378D01*
X4781015Y-16706378D02*
X4761967Y-16715902D01*
X4761967Y-16715902D02*
X4752444Y-16725426D01*
X4752444Y-16725426D02*
X4742920Y-16744473D01*
X4742920Y-16744473D02*
X4742920Y-16782569D01*
X4742920Y-16782569D02*
X4752444Y-16801616D01*
X4752444Y-16801616D02*
X4761967Y-16811140D01*
X4761967Y-16811140D02*
X4781015Y-16820664D01*
X4781015Y-16820664D02*
X4819110Y-16820664D01*
X4819110Y-16820664D02*
X4838158Y-16811140D01*
X4838158Y-16811140D02*
X4847682Y-16801616D01*
X4847682Y-16801616D02*
X4857205Y-16782569D01*
X4857205Y-16782569D02*
X4857205Y-16744473D01*
X4857205Y-16744473D02*
X4847682Y-16725426D01*
X4847682Y-16725426D02*
X4838158Y-16715902D01*
X4838158Y-16715902D02*
X4819110Y-16706378D01*
X4942920Y-16820664D02*
X4942920Y-16687330D01*
X4942920Y-16706378D02*
X4952444Y-16696854D01*
X4952444Y-16696854D02*
X4971491Y-16687330D01*
X4971491Y-16687330D02*
X5000063Y-16687330D01*
X5000063Y-16687330D02*
X5019110Y-16696854D01*
X5019110Y-16696854D02*
X5028634Y-16715902D01*
X5028634Y-16715902D02*
X5028634Y-16820664D01*
X5028634Y-16715902D02*
X5038158Y-16696854D01*
X5038158Y-16696854D02*
X5057205Y-16687330D01*
X5057205Y-16687330D02*
X5085777Y-16687330D01*
X5085777Y-16687330D02*
X5104825Y-16696854D01*
X5104825Y-16696854D02*
X5114348Y-16715902D01*
X5114348Y-16715902D02*
X5114348Y-16820664D01*
X5209586Y-16820664D02*
X5209586Y-16687330D01*
X5209586Y-16706378D02*
X5219110Y-16696854D01*
X5219110Y-16696854D02*
X5238158Y-16687330D01*
X5238158Y-16687330D02*
X5266729Y-16687330D01*
X5266729Y-16687330D02*
X5285777Y-16696854D01*
X5285777Y-16696854D02*
X5295301Y-16715902D01*
X5295301Y-16715902D02*
X5295301Y-16820664D01*
X5295301Y-16715902D02*
X5304825Y-16696854D01*
X5304825Y-16696854D02*
X5323872Y-16687330D01*
X5323872Y-16687330D02*
X5352444Y-16687330D01*
X5352444Y-16687330D02*
X5371491Y-16696854D01*
X5371491Y-16696854D02*
X5381015Y-16715902D01*
X5381015Y-16715902D02*
X5381015Y-16820664D01*
X5771491Y-16611140D02*
X5600063Y-16868283D01*
X6028634Y-16620664D02*
X6047682Y-16620664D01*
X6047682Y-16620664D02*
X6066729Y-16630188D01*
X6066729Y-16630188D02*
X6076253Y-16639711D01*
X6076253Y-16639711D02*
X6085777Y-16658759D01*
X6085777Y-16658759D02*
X6095301Y-16696854D01*
X6095301Y-16696854D02*
X6095301Y-16744473D01*
X6095301Y-16744473D02*
X6085777Y-16782569D01*
X6085777Y-16782569D02*
X6076253Y-16801616D01*
X6076253Y-16801616D02*
X6066729Y-16811140D01*
X6066729Y-16811140D02*
X6047682Y-16820664D01*
X6047682Y-16820664D02*
X6028634Y-16820664D01*
X6028634Y-16820664D02*
X6009586Y-16811140D01*
X6009586Y-16811140D02*
X6000063Y-16801616D01*
X6000063Y-16801616D02*
X5990539Y-16782569D01*
X5990539Y-16782569D02*
X5981015Y-16744473D01*
X5981015Y-16744473D02*
X5981015Y-16696854D01*
X5981015Y-16696854D02*
X5990539Y-16658759D01*
X5990539Y-16658759D02*
X6000063Y-16639711D01*
X6000063Y-16639711D02*
X6009586Y-16630188D01*
X6009586Y-16630188D02*
X6028634Y-16620664D01*
X6181015Y-16801616D02*
X6190539Y-16811140D01*
X6190539Y-16811140D02*
X6181015Y-16820664D01*
X6181015Y-16820664D02*
X6171491Y-16811140D01*
X6171491Y-16811140D02*
X6181015Y-16801616D01*
X6181015Y-16801616D02*
X6181015Y-16820664D01*
X6381015Y-16820664D02*
X6266729Y-16820664D01*
X6323872Y-16820664D02*
X6323872Y-16620664D01*
X6323872Y-16620664D02*
X6304825Y-16649235D01*
X6304825Y-16649235D02*
X6285777Y-16668283D01*
X6285777Y-16668283D02*
X6266729Y-16677807D01*
X6561967Y-16620664D02*
X6466729Y-16620664D01*
X6466729Y-16620664D02*
X6457206Y-16715902D01*
X6457206Y-16715902D02*
X6466729Y-16706378D01*
X6466729Y-16706378D02*
X6485777Y-16696854D01*
X6485777Y-16696854D02*
X6533396Y-16696854D01*
X6533396Y-16696854D02*
X6552444Y-16706378D01*
X6552444Y-16706378D02*
X6561967Y-16715902D01*
X6561967Y-16715902D02*
X6571491Y-16734949D01*
X6571491Y-16734949D02*
X6571491Y-16782569D01*
X6571491Y-16782569D02*
X6561967Y-16801616D01*
X6561967Y-16801616D02*
X6552444Y-16811140D01*
X6552444Y-16811140D02*
X6533396Y-16820664D01*
X6533396Y-16820664D02*
X6485777Y-16820664D01*
X6485777Y-16820664D02*
X6466729Y-16811140D01*
X6466729Y-16811140D02*
X6457206Y-16801616D01*
X6638158Y-16620664D02*
X6771491Y-16620664D01*
X6771491Y-16620664D02*
X6685777Y-16820664D01*
X6885777Y-16620664D02*
X6904825Y-16620664D01*
X6904825Y-16620664D02*
X6923872Y-16630188D01*
X6923872Y-16630188D02*
X6933396Y-16639711D01*
X6933396Y-16639711D02*
X6942920Y-16658759D01*
X6942920Y-16658759D02*
X6952444Y-16696854D01*
X6952444Y-16696854D02*
X6952444Y-16744473D01*
X6952444Y-16744473D02*
X6942920Y-16782569D01*
X6942920Y-16782569D02*
X6933396Y-16801616D01*
X6933396Y-16801616D02*
X6923872Y-16811140D01*
X6923872Y-16811140D02*
X6904825Y-16820664D01*
X6904825Y-16820664D02*
X6885777Y-16820664D01*
X6885777Y-16820664D02*
X6866729Y-16811140D01*
X6866729Y-16811140D02*
X6857206Y-16801616D01*
X6857206Y-16801616D02*
X6847682Y-16782569D01*
X6847682Y-16782569D02*
X6838158Y-16744473D01*
X6838158Y-16744473D02*
X6838158Y-16696854D01*
X6838158Y-16696854D02*
X6847682Y-16658759D01*
X6847682Y-16658759D02*
X6857206Y-16639711D01*
X6857206Y-16639711D02*
X6866729Y-16630188D01*
X6866729Y-16630188D02*
X6885777Y-16620664D01*
X7028634Y-16620664D02*
X7028634Y-16658759D01*
X7104825Y-16620664D02*
X7104825Y-16658759D01*
X7400063Y-16896854D02*
X7390539Y-16887330D01*
X7390539Y-16887330D02*
X7371491Y-16858759D01*
X7371491Y-16858759D02*
X7361968Y-16839711D01*
X7361968Y-16839711D02*
X7352444Y-16811140D01*
X7352444Y-16811140D02*
X7342920Y-16763521D01*
X7342920Y-16763521D02*
X7342920Y-16725426D01*
X7342920Y-16725426D02*
X7352444Y-16677807D01*
X7352444Y-16677807D02*
X7361968Y-16649235D01*
X7361968Y-16649235D02*
X7371491Y-16630188D01*
X7371491Y-16630188D02*
X7390539Y-16601616D01*
X7390539Y-16601616D02*
X7400063Y-16592092D01*
X7466729Y-16639711D02*
X7476253Y-16630188D01*
X7476253Y-16630188D02*
X7495301Y-16620664D01*
X7495301Y-16620664D02*
X7542920Y-16620664D01*
X7542920Y-16620664D02*
X7561968Y-16630188D01*
X7561968Y-16630188D02*
X7571491Y-16639711D01*
X7571491Y-16639711D02*
X7581015Y-16658759D01*
X7581015Y-16658759D02*
X7581015Y-16677807D01*
X7581015Y-16677807D02*
X7571491Y-16706378D01*
X7571491Y-16706378D02*
X7457206Y-16820664D01*
X7457206Y-16820664D02*
X7581015Y-16820664D01*
X7752444Y-16687330D02*
X7752444Y-16820664D01*
X7704825Y-16611140D02*
X7657206Y-16753997D01*
X7657206Y-16753997D02*
X7781015Y-16753997D01*
X8009587Y-16820664D02*
X8009587Y-16620664D01*
X8095301Y-16820664D02*
X8095301Y-16715902D01*
X8095301Y-16715902D02*
X8085777Y-16696854D01*
X8085777Y-16696854D02*
X8066730Y-16687330D01*
X8066730Y-16687330D02*
X8038158Y-16687330D01*
X8038158Y-16687330D02*
X8019110Y-16696854D01*
X8019110Y-16696854D02*
X8009587Y-16706378D01*
X8219110Y-16820664D02*
X8200063Y-16811140D01*
X8200063Y-16811140D02*
X8190539Y-16801616D01*
X8190539Y-16801616D02*
X8181015Y-16782569D01*
X8181015Y-16782569D02*
X8181015Y-16725426D01*
X8181015Y-16725426D02*
X8190539Y-16706378D01*
X8190539Y-16706378D02*
X8200063Y-16696854D01*
X8200063Y-16696854D02*
X8219110Y-16687330D01*
X8219110Y-16687330D02*
X8247682Y-16687330D01*
X8247682Y-16687330D02*
X8266730Y-16696854D01*
X8266730Y-16696854D02*
X8276253Y-16706378D01*
X8276253Y-16706378D02*
X8285777Y-16725426D01*
X8285777Y-16725426D02*
X8285777Y-16782569D01*
X8285777Y-16782569D02*
X8276253Y-16801616D01*
X8276253Y-16801616D02*
X8266730Y-16811140D01*
X8266730Y-16811140D02*
X8247682Y-16820664D01*
X8247682Y-16820664D02*
X8219110Y-16820664D01*
X8400063Y-16820664D02*
X8381015Y-16811140D01*
X8381015Y-16811140D02*
X8371491Y-16792092D01*
X8371491Y-16792092D02*
X8371491Y-16620664D01*
X8552444Y-16811140D02*
X8533396Y-16820664D01*
X8533396Y-16820664D02*
X8495301Y-16820664D01*
X8495301Y-16820664D02*
X8476253Y-16811140D01*
X8476253Y-16811140D02*
X8466730Y-16792092D01*
X8466730Y-16792092D02*
X8466730Y-16715902D01*
X8466730Y-16715902D02*
X8476253Y-16696854D01*
X8476253Y-16696854D02*
X8495301Y-16687330D01*
X8495301Y-16687330D02*
X8533396Y-16687330D01*
X8533396Y-16687330D02*
X8552444Y-16696854D01*
X8552444Y-16696854D02*
X8561968Y-16715902D01*
X8561968Y-16715902D02*
X8561968Y-16734949D01*
X8561968Y-16734949D02*
X8466730Y-16753997D01*
X8638158Y-16811140D02*
X8657206Y-16820664D01*
X8657206Y-16820664D02*
X8695301Y-16820664D01*
X8695301Y-16820664D02*
X8714349Y-16811140D01*
X8714349Y-16811140D02*
X8723873Y-16792092D01*
X8723873Y-16792092D02*
X8723873Y-16782569D01*
X8723873Y-16782569D02*
X8714349Y-16763521D01*
X8714349Y-16763521D02*
X8695301Y-16753997D01*
X8695301Y-16753997D02*
X8666730Y-16753997D01*
X8666730Y-16753997D02*
X8647682Y-16744473D01*
X8647682Y-16744473D02*
X8638158Y-16725426D01*
X8638158Y-16725426D02*
X8638158Y-16715902D01*
X8638158Y-16715902D02*
X8647682Y-16696854D01*
X8647682Y-16696854D02*
X8666730Y-16687330D01*
X8666730Y-16687330D02*
X8695301Y-16687330D01*
X8695301Y-16687330D02*
X8714349Y-16696854D01*
X8790539Y-16896854D02*
X8800063Y-16887330D01*
X8800063Y-16887330D02*
X8819111Y-16858759D01*
X8819111Y-16858759D02*
X8828634Y-16839711D01*
X8828634Y-16839711D02*
X8838158Y-16811140D01*
X8838158Y-16811140D02*
X8847682Y-16763521D01*
X8847682Y-16763521D02*
X8847682Y-16725426D01*
X8847682Y-16725426D02*
X8838158Y-16677807D01*
X8838158Y-16677807D02*
X8828634Y-16649235D01*
X8828634Y-16649235D02*
X8819111Y-16630188D01*
X8819111Y-16630188D02*
X8800063Y-16601616D01*
X8800063Y-16601616D02*
X8790539Y-16592092D01*
X9152444Y-16896854D02*
X9142920Y-16887330D01*
X9142920Y-16887330D02*
X9123873Y-16858759D01*
X9123873Y-16858759D02*
X9114349Y-16839711D01*
X9114349Y-16839711D02*
X9104825Y-16811140D01*
X9104825Y-16811140D02*
X9095301Y-16763521D01*
X9095301Y-16763521D02*
X9095301Y-16725426D01*
X9095301Y-16725426D02*
X9104825Y-16677807D01*
X9104825Y-16677807D02*
X9114349Y-16649235D01*
X9114349Y-16649235D02*
X9123873Y-16630188D01*
X9123873Y-16630188D02*
X9142920Y-16601616D01*
X9142920Y-16601616D02*
X9152444Y-16592092D01*
X9228634Y-16687330D02*
X9228634Y-16820664D01*
X9228634Y-16706378D02*
X9238158Y-16696854D01*
X9238158Y-16696854D02*
X9257206Y-16687330D01*
X9257206Y-16687330D02*
X9285777Y-16687330D01*
X9285777Y-16687330D02*
X9304825Y-16696854D01*
X9304825Y-16696854D02*
X9314349Y-16715902D01*
X9314349Y-16715902D02*
X9314349Y-16820664D01*
X9438158Y-16820664D02*
X9419111Y-16811140D01*
X9419111Y-16811140D02*
X9409587Y-16801616D01*
X9409587Y-16801616D02*
X9400063Y-16782569D01*
X9400063Y-16782569D02*
X9400063Y-16725426D01*
X9400063Y-16725426D02*
X9409587Y-16706378D01*
X9409587Y-16706378D02*
X9419111Y-16696854D01*
X9419111Y-16696854D02*
X9438158Y-16687330D01*
X9438158Y-16687330D02*
X9466730Y-16687330D01*
X9466730Y-16687330D02*
X9485777Y-16696854D01*
X9485777Y-16696854D02*
X9495301Y-16706378D01*
X9495301Y-16706378D02*
X9504825Y-16725426D01*
X9504825Y-16725426D02*
X9504825Y-16782569D01*
X9504825Y-16782569D02*
X9495301Y-16801616D01*
X9495301Y-16801616D02*
X9485777Y-16811140D01*
X9485777Y-16811140D02*
X9466730Y-16820664D01*
X9466730Y-16820664D02*
X9438158Y-16820664D01*
X9561968Y-16687330D02*
X9638158Y-16687330D01*
X9590539Y-16620664D02*
X9590539Y-16792092D01*
X9590539Y-16792092D02*
X9600063Y-16811140D01*
X9600063Y-16811140D02*
X9619111Y-16820664D01*
X9619111Y-16820664D02*
X9638158Y-16820664D01*
X9857206Y-16687330D02*
X9857206Y-16887330D01*
X9857206Y-16696854D02*
X9876254Y-16687330D01*
X9876254Y-16687330D02*
X9914349Y-16687330D01*
X9914349Y-16687330D02*
X9933396Y-16696854D01*
X9933396Y-16696854D02*
X9942920Y-16706378D01*
X9942920Y-16706378D02*
X9952444Y-16725426D01*
X9952444Y-16725426D02*
X9952444Y-16782569D01*
X9952444Y-16782569D02*
X9942920Y-16801616D01*
X9942920Y-16801616D02*
X9933396Y-16811140D01*
X9933396Y-16811140D02*
X9914349Y-16820664D01*
X9914349Y-16820664D02*
X9876254Y-16820664D01*
X9876254Y-16820664D02*
X9857206Y-16811140D01*
X10066730Y-16820664D02*
X10047682Y-16811140D01*
X10047682Y-16811140D02*
X10038158Y-16792092D01*
X10038158Y-16792092D02*
X10038158Y-16620664D01*
X10228635Y-16820664D02*
X10228635Y-16715902D01*
X10228635Y-16715902D02*
X10219111Y-16696854D01*
X10219111Y-16696854D02*
X10200063Y-16687330D01*
X10200063Y-16687330D02*
X10161968Y-16687330D01*
X10161968Y-16687330D02*
X10142920Y-16696854D01*
X10228635Y-16811140D02*
X10209587Y-16820664D01*
X10209587Y-16820664D02*
X10161968Y-16820664D01*
X10161968Y-16820664D02*
X10142920Y-16811140D01*
X10142920Y-16811140D02*
X10133396Y-16792092D01*
X10133396Y-16792092D02*
X10133396Y-16773045D01*
X10133396Y-16773045D02*
X10142920Y-16753997D01*
X10142920Y-16753997D02*
X10161968Y-16744473D01*
X10161968Y-16744473D02*
X10209587Y-16744473D01*
X10209587Y-16744473D02*
X10228635Y-16734949D01*
X10295301Y-16687330D02*
X10371492Y-16687330D01*
X10323873Y-16620664D02*
X10323873Y-16792092D01*
X10323873Y-16792092D02*
X10333396Y-16811140D01*
X10333396Y-16811140D02*
X10352444Y-16820664D01*
X10352444Y-16820664D02*
X10371492Y-16820664D01*
X10514349Y-16811140D02*
X10495301Y-16820664D01*
X10495301Y-16820664D02*
X10457206Y-16820664D01*
X10457206Y-16820664D02*
X10438158Y-16811140D01*
X10438158Y-16811140D02*
X10428635Y-16792092D01*
X10428635Y-16792092D02*
X10428635Y-16715902D01*
X10428635Y-16715902D02*
X10438158Y-16696854D01*
X10438158Y-16696854D02*
X10457206Y-16687330D01*
X10457206Y-16687330D02*
X10495301Y-16687330D01*
X10495301Y-16687330D02*
X10514349Y-16696854D01*
X10514349Y-16696854D02*
X10523873Y-16715902D01*
X10523873Y-16715902D02*
X10523873Y-16734949D01*
X10523873Y-16734949D02*
X10428635Y-16753997D01*
X10695301Y-16820664D02*
X10695301Y-16620664D01*
X10695301Y-16811140D02*
X10676254Y-16820664D01*
X10676254Y-16820664D02*
X10638158Y-16820664D01*
X10638158Y-16820664D02*
X10619111Y-16811140D01*
X10619111Y-16811140D02*
X10609587Y-16801616D01*
X10609587Y-16801616D02*
X10600063Y-16782569D01*
X10600063Y-16782569D02*
X10600063Y-16725426D01*
X10600063Y-16725426D02*
X10609587Y-16706378D01*
X10609587Y-16706378D02*
X10619111Y-16696854D01*
X10619111Y-16696854D02*
X10638158Y-16687330D01*
X10638158Y-16687330D02*
X10676254Y-16687330D01*
X10676254Y-16687330D02*
X10695301Y-16696854D01*
X10771492Y-16896854D02*
X10781016Y-16887330D01*
X10781016Y-16887330D02*
X10800063Y-16858759D01*
X10800063Y-16858759D02*
X10809587Y-16839711D01*
X10809587Y-16839711D02*
X10819111Y-16811140D01*
X10819111Y-16811140D02*
X10828635Y-16763521D01*
X10828635Y-16763521D02*
X10828635Y-16725426D01*
X10828635Y-16725426D02*
X10819111Y-16677807D01*
X10819111Y-16677807D02*
X10809587Y-16649235D01*
X10809587Y-16649235D02*
X10800063Y-16630188D01*
X10800063Y-16630188D02*
X10781016Y-16601616D01*
X10781016Y-16601616D02*
X10771492Y-16592092D01*
M02*
