M48
; DRILL file {KiCad 7.0.7} date Sat Mar 23 11:57:12 2024
; FORMAT={-:-/ absolute / inch / decimal}
; #@! TF.CreationDate,2024-03-23T11:57:12+09:00
; #@! TF.GenerationSoftware,Kicad,Pcbnew,7.0.7
; #@! TF.FileFunction,Plated,1,2,PTH
FMAT,2
INCH
; #@! TA.AperFunction,Plated,PTH,ViaDrill
T1C0.0157
; #@! TA.AperFunction,Plated,PTH,ComponentDrill
T2C0.0236
; #@! TA.AperFunction,Plated,PTH,ComponentDrill
T3C0.0394
; #@! TA.AperFunction,Plated,PTH,ComponentDrill
T4C0.0590
%
G90
G05
T1
X1.6506Y-1.8514
X1.6614Y-1.0866
X1.6614Y-1.189
X1.6614Y-1.2913
X1.6614Y-1.4213
X1.6614Y-1.4646
X1.6614Y-1.5118
X1.6614Y-1.5551
X1.6614Y-1.5984
X1.6614Y-1.6417
X1.6614Y-1.689
X1.6614Y-1.7323
X1.6614Y-1.7795
X1.6693Y-1.9134
X1.6693Y-1.9567
X1.6693Y-2.0
X1.6693Y-2.0433
X1.6693Y-2.0866
X1.6693Y-2.1299
X1.7047Y-1.0866
X1.7047Y-1.189
X1.7047Y-1.2913
X1.7047Y-1.4646
X1.7047Y-1.5118
X1.7047Y-1.5551
X1.7047Y-1.5984
X1.7047Y-1.6417
X1.7047Y-1.689
X1.7047Y-1.7323
X1.7047Y-1.7795
X1.7126Y-1.9134
X1.7126Y-1.9567
X1.7126Y-2.0
X1.7126Y-2.0433
X1.7126Y-2.0866
X1.7126Y-2.1299
X1.748Y-1.0866
X1.748Y-1.189
X1.748Y-1.2913
X1.748Y-1.4646
X1.748Y-1.5118
X1.748Y-1.5551
X1.748Y-1.5984
X1.748Y-1.6417
X1.748Y-1.689
X1.748Y-1.7323
X1.748Y-1.7795
X1.7559Y-2.0
X1.7559Y-2.0433
X1.7559Y-2.0866
X1.7913Y-1.0866
X1.7913Y-1.189
X1.7913Y-1.2913
X1.7913Y-1.4646
X1.7913Y-1.5118
X1.7913Y-1.5551
X1.7913Y-1.5984
X1.7913Y-1.6417
X1.7913Y-1.689
X1.7913Y-1.7323
X1.7913Y-1.7795
X1.7992Y-2.0
X1.7992Y-2.0433
X1.8425Y-1.689
X1.8425Y-1.7323
X1.8465Y-2.0
X1.878Y-1.8976
X1.8819Y-2.2594
X1.8819Y-3.0094
X1.8819Y-3.7594
X1.8819Y-4.5094
X1.8819Y-5.2594
X1.8858Y-1.689
X1.8858Y-1.7323
X1.8937Y-2.0
X1.8976Y-1.2913
X1.8976Y-1.3386
X1.9331Y-1.689
X1.9331Y-1.7323
X1.9409Y-2.0
X1.9449Y-1.2913
X1.9764Y-1.689
X1.9764Y-1.7323
X1.9882Y-2.0
X2.0118Y-1.2677
X2.0354Y-2.0
X2.0394Y-1.5118
X2.0394Y-1.5591
X2.0433Y-1.7901
X2.0591Y-1.2677
X2.0827Y-1.5118
X2.0827Y-1.5591
X2.1933Y-1.7901
X2.2047Y-1.5118
X2.2047Y-1.563
X2.248Y-1.5118
X2.248Y-1.563
X2.2598Y-1.9252
X2.2874Y-1.7638
X2.2874Y-2.1181
X2.2874Y-2.1614
X2.3071Y-1.6102
X2.3307Y-1.7165
X2.3307Y-1.7638
X2.3307Y-2.1181
X2.3307Y-2.1614
X2.3858Y-1.4528
X2.3858Y-1.4961
X2.3858Y-1.689
X2.3906Y-1.3937
X2.4331Y-1.5315
X2.437Y-5.128
X2.4468Y-4.378
X2.4488Y-2.1496
X2.4528Y-2.878
X2.4528Y-4.5669
X2.4547Y-3.628
X2.4606Y-5.315
X2.4646Y-3.0591
X2.4646Y-3.8189
X2.4724Y-1.3071
X2.4823Y-2.3091
X2.5Y-1.437
X2.5Y-1.4882
X2.5Y-1.5394
X2.5079Y-1.7717
X2.5079Y-1.815
X2.5079Y-1.8583
X2.5079Y-1.9016
X2.5079Y-1.9488
X2.5472Y-1.437
X2.5472Y-1.4882
X2.5472Y-1.5394
X2.5512Y-1.7717
X2.5512Y-1.815
X2.5512Y-1.8583
X2.5512Y-1.9016
X2.5512Y-1.9488
X2.5945Y-1.437
X2.5945Y-1.4882
X2.5945Y-1.5394
X2.6417Y-1.437
X2.6417Y-1.4882
X2.6417Y-1.5394
X2.6732Y-1.7559
X2.6732Y-1.8031
X2.6732Y-1.8386
X2.6732Y-1.874
X2.6732Y-1.9094
X2.6732Y-1.9449
X2.7165Y-1.4646
X2.7244Y-2.1102
X2.7283Y-1.2165
X2.752Y-1.9646
X2.7558Y-1.6904
X2.7638Y-2.1102
X2.7756Y-1.5354
X2.7953Y-1.878
X2.7953Y-1.9213
X2.7953Y-1.9646
X2.8031Y-1.2283
X2.8031Y-1.2717
X2.8031Y-2.1102
X2.8386Y-1.878
X2.8386Y-1.9213
X2.8386Y-1.9646
X2.8438Y-1.6024
X2.8465Y-1.81
X2.8583Y-1.7402
X2.9094Y-1.1142
X2.9094Y-1.1614
X2.9094Y-1.9173
X2.9095Y-1.8819
X2.9568Y-1.4448
X2.9685Y-1.8189
X2.9764Y-1.878
X3.0065Y-1.8268
X3.0394Y-1.7323
X3.0433Y-1.1299
X3.0433Y-1.1732
X3.0453Y-1.4725
X3.0551Y-1.374
X3.0689Y-1.5787
X3.0866Y-1.1299
X3.0866Y-1.1732
X3.0866Y-1.2165
X3.1235Y-1.7394
X3.126Y-1.8091
X3.1299Y-1.1299
X3.1299Y-1.1732
X3.1299Y-1.2165
X3.1299Y-1.6213
X3.1654Y-1.8091
X3.1693Y-1.6213
X3.1693Y-1.7559
X3.1732Y-1.1299
X3.1732Y-1.1732
X3.1732Y-1.2165
X3.1811Y-1.9953
X3.2047Y-1.8091
X3.2102Y-1.546
X3.2165Y-1.1299
X3.2165Y-1.1732
X3.2185Y-1.6319
X3.2441Y-1.3551
X3.252Y-1.6772
X3.2598Y-1.1299
X3.2598Y-1.1732
X3.2677Y-1.5039
X3.2776Y-1.376
X3.2953Y-1.6872
X3.2953Y-1.7226
X3.3061Y-1.4646
X3.3071Y-1.8032
X3.3071Y-1.756
X3.3256Y-1.9269
X3.327Y-1.9623
X3.3356Y-1.4941
X3.3386Y-1.8425
X3.3819Y-1.5433
X3.3824Y-1.7521
X3.3848Y-1.7874
X3.3858Y-1.4385
X3.3898Y-1.8386
X3.3937Y-1.1181
X3.3937Y-1.1614
X3.4016Y-1.6654
X3.4016Y-2.0866
X3.4055Y-3.626
X3.4055Y-4.378
X3.4094Y-2.878
X3.4094Y-4.5709
X3.411Y-5.1276
X3.4148Y-1.468
X3.4252Y-3.0591
X3.4252Y-3.815
X3.4291Y-1.9803
X3.4291Y-2.0157
X3.4291Y-2.315
X3.4409Y-1.9134
X3.4449Y-2.0866
X3.4449Y-1.5728
X3.4724Y-1.1181
X3.4724Y-1.1614
X3.4724Y-1.2087
X3.4764Y-1.874
X3.4862Y-1.6654
X3.4882Y-2.0866
X3.5Y-1.3701
X3.5157Y-1.1181
X3.5157Y-1.1614
X3.5315Y-2.0866
X3.5354Y-1.5
X3.5472Y-1.3189
X3.5472Y-1.3701
X3.5472Y-1.3701
X3.5591Y-1.1181
X3.5591Y-1.1614
X3.5669Y-1.2283
X3.5748Y-2.0866
X3.5866Y-1.9094
X3.5945Y-1.3701
X3.5984Y-1.6142
X3.6024Y-1.1181
X3.6024Y-1.1614
X3.6024Y-1.5394
X3.6181Y-2.0866
X3.6299Y-1.7362
X3.6299Y-1.7795
X3.6299Y-1.8228
X3.6299Y-1.8661
X3.6299Y-1.9094
X3.6417Y-1.3701
X3.6575Y-1.5394
X3.6575Y-1.5827
X3.6614Y-1.6378
X3.6614Y-2.0866
X3.6732Y-1.7362
X3.6732Y-1.7795
X3.6732Y-1.8228
X3.6732Y-1.8661
X3.6732Y-1.9094
X3.689Y-1.3701
X3.7047Y-2.0866
X3.7087Y-1.5394
X3.7087Y-1.5827
X3.7165Y-1.7795
X3.7283Y-1.0827
X3.748Y-2.0866
X3.7677Y-1.0827
X3.7756Y-5.3425
X3.7913Y-2.0866
X3.8071Y-1.0827
X3.8169Y-1.3898
X3.8346Y-2.0866
X3.8386Y-1.4449
X3.8386Y-1.4921
X3.8386Y-1.5433
X3.8386Y-1.5945
X3.8465Y-1.0827
X3.878Y-2.0866
X3.8858Y-1.0827
X3.9016Y-1.1929
X3.9094Y-1.7087
X3.9094Y-1.8228
X3.9094Y-1.8661
X3.9094Y-1.9094
X3.9173Y-1.2992
X3.9291Y-1.7835
X3.9449Y-1.3898
X3.9488Y-2.1162
X3.9528Y-1.8228
X3.9528Y-1.8661
X3.9528Y-1.9094
X3.9843Y-1.1496
X3.9843Y-1.1969
X3.9843Y-1.5512
X3.9843Y-1.7047
X3.9961Y-1.8661
X3.9961Y-1.9094
X3.9961Y-1.9449
X4.0079Y-1.4331
X4.0315Y-1.1496
X4.0315Y-1.1969
X4.0591Y-1.3228
X4.0591Y-1.374
X4.0591Y-1.4331
X4.0591Y-1.9055
X4.0787Y-1.1496
X4.0787Y-1.1969
X4.0945Y-1.8031
X4.0945Y-1.9055
X4.0984Y-1.622
X4.1102Y-1.3189
X4.1102Y-1.374
X4.1102Y-1.4331
X4.126Y-1.1496
X4.126Y-1.1969
X4.1319Y-1.9626
X4.1575Y-2.874
X4.1614Y-3.626
X4.1614Y-4.374
X4.1732Y-1.1496
X4.1732Y-1.1969
X4.1732Y-2.311
X4.1732Y-4.5512
X4.1772Y-3.0591
X4.1772Y-3.811
X4.2205Y-1.1496
X4.2205Y-1.1969
X4.2677Y-1.1496
X4.2677Y-1.1969
X4.315Y-1.1496
X4.315Y-1.1969
X4.3622Y-1.1496
X4.3622Y-1.1969
X4.4094Y-1.1496
X4.4094Y-1.1969
X4.4567Y-1.1496
X4.4567Y-1.1969
X4.5039Y-1.1496
X4.5039Y-1.1969
X4.5512Y-1.1496
X4.5512Y-1.1969
X4.5984Y-1.1496
X4.5984Y-1.1969
X4.6142Y-4.3701
X4.6142Y-5.122
X4.626Y-2.0157
X4.626Y-2.063
X4.6457Y-1.1496
X4.6457Y-1.1969
X4.6614Y-4.3701
X4.6614Y-5.122
X4.6732Y-2.0157
X4.6732Y-2.063
X4.6929Y-1.1496
X4.6929Y-1.1969
X4.7205Y-2.0157
X4.7205Y-2.063
X4.7402Y-1.1496
X4.7402Y-1.1969
X4.752Y-4.2795
X4.752Y-5.0276
X4.7677Y-2.0157
X4.7677Y-2.063
X4.7874Y-1.1496
X4.7874Y-1.1969
X4.7992Y-4.2362
X4.7992Y-4.9843
X4.815Y-2.0157
X4.815Y-2.063
X4.8228Y-4.4409
X4.8228Y-4.4895
X4.8228Y-4.5381
X4.8228Y-4.5866
X4.8228Y-5.1929
X4.8228Y-5.2415
X4.8228Y-5.29
X4.8228Y-5.3386
X4.8268Y-3.7598
X4.8346Y-1.1496
X4.8346Y-1.1969
X4.8543Y-2.2145
X4.8622Y-2.0157
X4.8622Y-2.063
X4.8819Y-1.1496
X4.8819Y-1.1969
X4.9016Y-2.311
X4.9055Y-2.9606
X4.9055Y-3.122
X4.9094Y-2.0157
X4.9094Y-2.063
X4.9114Y-4.8189
X4.9213Y-1.9409
X4.9291Y-1.1496
X4.9291Y-1.1969
X4.9567Y-2.0157
X4.9567Y-2.063
X4.9764Y-1.1496
X4.9764Y-1.1969
X5.0236Y-1.1496
X5.0236Y-1.1969
X5.0315Y-2.2165
X5.0709Y-1.1496
X5.0709Y-1.1969
X5.1181Y-1.1496
X5.1181Y-1.1969
X5.1535Y-1.9606
X5.1535Y-2.0079
X5.1535Y-2.1063
X5.1654Y-1.1496
X5.1654Y-1.1969
X5.2008Y-1.9606
X5.2008Y-2.0079
X5.2126Y-1.1496
X5.2126Y-1.1969
X5.248Y-1.9606
X5.248Y-2.0079
X5.2598Y-1.1496
X5.2598Y-1.1969
X5.2953Y-1.9606
X5.2953Y-2.0079
X5.3071Y-1.1496
X5.3071Y-1.1969
X5.3071Y-1.248
X5.3071Y-1.2953
X5.3425Y-1.9606
X5.3425Y-2.0079
X5.3543Y-1.1496
X5.3543Y-1.1969
X5.3543Y-1.248
X5.3543Y-1.2953
X5.3898Y-1.9606
X5.3898Y-2.0079
X5.4016Y-1.1496
X5.4016Y-1.1969
X5.4016Y-1.248
X5.4016Y-1.2953
X5.437Y-1.9606
X5.437Y-2.0079
X5.4488Y-1.1496
X5.4488Y-1.1969
X5.4488Y-1.248
X5.4488Y-1.2953
X5.4488Y-1.3425
X5.4961Y-1.1496
X5.4961Y-1.1969
X5.4961Y-1.248
X5.4961Y-1.2953
X5.4961Y-1.3425
X5.4961Y-2.0866
X5.5433Y-1.1496
X5.5433Y-1.1969
X5.5433Y-1.248
X5.5433Y-1.2953
X5.5433Y-1.3425
X5.5433Y-1.3898
X5.5472Y-2.311
X5.5748Y-1.9409
X5.5906Y-1.1496
X5.5906Y-1.1969
X5.5906Y-1.248
X5.5906Y-1.2953
X5.5906Y-1.3425
X5.5906Y-1.3898
T3
X1.5945Y-1.1368
X1.5945Y-1.2368
X1.5945Y-1.3368
X1.9268Y-1.1644
X1.9268Y-1.5024
X1.9268Y-1.6024
X2.0268Y-1.1644
X2.1268Y-1.1644
X2.2268Y-1.1644
X2.3268Y-1.1644
X2.4268Y-1.1644
X2.5268Y-1.1644
X2.6268Y-1.1644
X4.2126Y-2.0669
X4.3126Y-2.0669
X4.4126Y-2.0669
X4.5126Y-2.0669
T4
X1.9008Y-2.4382
X1.9008Y-2.6382
X1.9008Y-3.1882
X1.9008Y-3.3882
X1.9008Y-3.9382
X1.9008Y-4.1382
X1.9008Y-4.6882
X1.9008Y-4.8882
X1.9008Y-5.4382
X1.9008Y-5.6382
X2.1508Y-2.3382
X2.1508Y-2.7382
X2.1508Y-3.0882
X2.1508Y-3.4882
X2.1508Y-3.8382
X2.1508Y-4.2382
X2.1508Y-4.5882
X2.1508Y-4.9882
X2.1508Y-5.3382
X2.1508Y-5.7382
X2.8642Y-2.4382
X2.8642Y-2.6382
X2.8642Y-3.1882
X2.8642Y-3.3882
X2.8642Y-3.9382
X2.8642Y-4.1382
X2.8642Y-4.6882
X2.8642Y-4.8882
X3.1142Y-2.3382
X3.1142Y-2.7382
X3.1142Y-3.0882
X3.1142Y-3.4882
X3.1142Y-3.8382
X3.1142Y-4.2382
X3.1142Y-4.5882
X3.1142Y-4.9882
X3.2392Y-5.4382
X3.2392Y-5.6382
X3.4892Y-5.3382
X3.4892Y-5.7382
X3.6142Y-2.4382
X3.6142Y-2.6382
X3.6142Y-3.1882
X3.6142Y-3.3882
X3.6142Y-3.9382
X3.6142Y-4.1382
X3.6142Y-4.6882
X3.6142Y-4.8882
X3.8642Y-2.3382
X3.8642Y-2.7382
X3.8642Y-3.0882
X3.8642Y-3.4882
X3.8642Y-3.8382
X3.8642Y-4.2382
X3.8642Y-4.5882
X3.8642Y-4.9882
X4.3642Y-1.5024
X4.3642Y-1.7024
X4.3642Y-2.4382
X4.3642Y-2.6382
X4.3642Y-3.1882
X4.3642Y-3.3882
X4.3642Y-3.9382
X4.3642Y-4.1382
X4.3642Y-4.6882
X4.3642Y-4.8882
X4.3642Y-5.4382
X4.3642Y-5.6382
X4.6142Y-1.4024
X4.6142Y-1.8024
X4.6142Y-2.3382
X4.6142Y-2.7382
X4.6142Y-3.0882
X4.6142Y-3.4882
X4.6142Y-3.8382
X4.6142Y-4.2382
X4.6142Y-4.5882
X4.6142Y-4.9882
X4.6142Y-5.3382
X4.6142Y-5.7382
X5.1142Y-1.5024
X5.1142Y-1.7024
X5.1142Y-2.4382
X5.1142Y-2.6382
X5.1142Y-3.5632
X5.1142Y-3.7632
X5.1142Y-5.0632
X5.1142Y-5.2632
X5.3642Y-1.4024
X5.3642Y-1.8024
X5.3642Y-2.3382
X5.3642Y-2.7382
X5.3642Y-3.4632
X5.3642Y-3.8632
X5.3642Y-4.9632
X5.3642Y-5.3632
T2
G00X2.9795Y-1.1165
M15
G01X2.9795Y-1.148
M16
G05
G00X2.9795Y-1.2748
M15
G01X2.9795Y-1.3181
M16
G05
G00X3.3197Y-1.1165
M15
G01X3.3197Y-1.148
M16
G05
G00X3.3197Y-1.2748
M15
G01X3.3197Y-1.3181
M16
G05
T0
M30
