M48
; DRILL file {KiCad 7.0.7} date Tue Mar  5 00:21:39 2024
; FORMAT={-:-/ absolute / inch / decimal}
; #@! TF.CreationDate,2024-03-05T00:21:39+09:00
; #@! TF.GenerationSoftware,Kicad,Pcbnew,7.0.7
; #@! TF.FileFunction,NonPlated,1,2,NPTH
FMAT,2
INCH
; #@! TA.AperFunction,NonPlated,NPTH,ComponentDrill
T1C0.0236
; #@! TA.AperFunction,NonPlated,NPTH,ComponentDrill
T2C0.0670
; #@! TA.AperFunction,NonPlated,NPTH,ComponentDrill
T3C0.1181
; #@! TA.AperFunction,NonPlated,NPTH,ComponentDrill
T4C0.1570
%
G90
G05
T1
X3.0358Y-1.2776
X3.2634Y-1.2776
T2
X1.8508Y-2.5382
X1.8508Y-3.2882
X1.8508Y-4.0382
X1.8508Y-4.7882
X1.8508Y-5.5382
X2.2508Y-2.5382
X2.2508Y-3.2882
X2.2508Y-4.0382
X2.2508Y-4.7882
X2.2508Y-5.5382
X2.8142Y-2.5382
X2.8142Y-3.2882
X2.8142Y-4.0382
X2.8142Y-4.7882
X3.1892Y-5.5382
X3.2142Y-2.5382
X3.2142Y-3.2882
X3.2142Y-4.0382
X3.2142Y-4.7882
X3.5642Y-2.5382
X3.5642Y-3.2882
X3.5642Y-4.0382
X3.5642Y-4.7882
X3.5892Y-5.5382
X3.9642Y-2.5382
X3.9642Y-3.2882
X3.9642Y-4.0382
X3.9642Y-4.7882
X4.3142Y-1.6024
X4.3142Y-2.5382
X4.3142Y-3.2882
X4.3142Y-4.0382
X4.3142Y-4.7882
X4.3142Y-5.5382
X4.7142Y-1.6024
X4.7142Y-2.5382
X4.7142Y-3.2882
X4.7142Y-4.0382
X4.7142Y-4.7882
X4.7142Y-5.5382
X5.0642Y-1.6024
X5.0642Y-2.5382
X5.0642Y-3.6632
X5.0642Y-5.1632
X5.4642Y-1.6024
X5.4642Y-2.5382
X5.4642Y-3.6632
X5.4642Y-5.1632
T3
X1.9508Y-2.3382
X1.9508Y-2.7382
X1.9508Y-3.0882
X1.9508Y-3.4882
X1.9508Y-3.8382
X1.9508Y-4.2382
X1.9508Y-4.5882
X1.9508Y-4.9882
X1.9508Y-5.3382
X1.9508Y-5.7382
X2.2008Y-2.4382
X2.2008Y-2.6382
X2.2008Y-3.1882
X2.2008Y-3.3882
X2.2008Y-3.9382
X2.2008Y-4.1382
X2.2008Y-4.6882
X2.2008Y-4.8882
X2.2008Y-5.4382
X2.2008Y-5.6382
X2.9142Y-2.3382
X2.9142Y-2.7382
X2.9142Y-3.0882
X2.9142Y-3.4882
X2.9142Y-3.8382
X2.9142Y-4.2382
X2.9142Y-4.5882
X2.9142Y-4.9882
X3.1642Y-2.4382
X3.1642Y-2.6382
X3.1642Y-3.1882
X3.1642Y-3.3882
X3.1642Y-3.9382
X3.1642Y-4.1382
X3.1642Y-4.6882
X3.1642Y-4.8882
X3.2892Y-5.3382
X3.2892Y-5.7382
X3.5392Y-5.4382
X3.5392Y-5.6382
X3.6642Y-2.3382
X3.6642Y-2.7382
X3.6642Y-3.0882
X3.6642Y-3.4882
X3.6642Y-3.8382
X3.6642Y-4.2382
X3.6642Y-4.5882
X3.6642Y-4.9882
X3.9142Y-2.4382
X3.9142Y-2.6382
X3.9142Y-3.1882
X3.9142Y-3.3882
X3.9142Y-3.9382
X3.9142Y-4.1382
X3.9142Y-4.6882
X3.9142Y-4.8882
X4.4142Y-1.4024
X4.4142Y-1.8024
X4.4142Y-2.3382
X4.4142Y-2.7382
X4.4142Y-3.0882
X4.4142Y-3.4882
X4.4142Y-3.8382
X4.4142Y-4.2382
X4.4142Y-4.5882
X4.4142Y-4.9882
X4.4142Y-5.3382
X4.4142Y-5.7382
X4.6642Y-1.5024
X4.6642Y-1.7024
X4.6642Y-2.4382
X4.6642Y-2.6382
X4.6642Y-3.1882
X4.6642Y-3.3882
X4.6642Y-3.9382
X4.6642Y-4.1382
X4.6642Y-4.6882
X4.6642Y-4.8882
X4.6642Y-5.4382
X4.6642Y-5.6382
X5.1642Y-1.4024
X5.1642Y-1.8024
X5.1642Y-2.3382
X5.1642Y-2.7382
X5.1642Y-3.4632
X5.1642Y-3.8632
X5.1642Y-4.9632
X5.1642Y-5.3632
X5.4142Y-1.5024
X5.4142Y-1.7024
X5.4142Y-2.4382
X5.4142Y-2.6382
X5.4142Y-3.5632
X5.4142Y-3.7632
X5.4142Y-5.0632
X5.4142Y-5.2632
T4
X2.0508Y-2.5382
X2.0508Y-3.2882
X2.0508Y-4.0382
X2.0508Y-4.7882
X2.0508Y-5.5382
X3.0142Y-2.5382
X3.0142Y-3.2882
X3.0142Y-4.0382
X3.0142Y-4.7882
X3.3892Y-5.5382
X3.7642Y-2.5382
X3.7642Y-3.2882
X3.7642Y-4.0382
X3.7642Y-4.7882
X4.5142Y-1.6024
X4.5142Y-2.5382
X4.5142Y-3.2882
X4.5142Y-4.0382
X4.5142Y-4.7882
X4.5142Y-5.5382
X5.2642Y-1.6024
X5.2642Y-2.5382
X5.2642Y-3.6632
X5.2642Y-5.1632
T0
M30
